<?xml version="1.0" encoding="utf-8"?>
<!-- Generator: Adobe Illustrator 16.0.0, SVG Export Plug-In . SVG Version: 6.00 Build 0)  -->
<!DOCTYPE svg PUBLIC "-//W3C//DTD SVG 1.1//EN" "http://www.w3.org/Graphics/SVG/1.1/DTD/svg11.dtd">
<svg version="1.1" id="Layer_1" xmlns="http://www.w3.org/2000/svg" xmlns:xlink="http://www.w3.org/1999/xlink" x="0px" y="0px"
	 width="300.24px" height="94.32px" viewBox="0 0 300.24 94.32" enable-background="new 0 0 300.24 94.32" xml:space="preserve">
<g>
	<g>
		<path fill-rule="evenodd" clip-rule="evenodd" fill="#F8991D" d="M186.266,73.599c-17.444,12.873-42.736,19.721-64.513,19.721
			c-30.522,0-58.006-11.282-78.807-30.062c-1.632-1.474-0.175-3.491,1.788-2.347c22.44,13.058,50.19,20.92,78.852,20.92
			c19.335,0,40.589-4.01,60.145-12.308C186.68,68.273,189.151,71.469,186.266,73.599z"/>
		<path fill-rule="evenodd" clip-rule="evenodd" fill="#F8991D" d="M193.524,65.313c-2.23-2.858-14.749-1.353-20.371-0.681
			c-1.703,0.202-1.968-1.282-0.433-2.36c9.985-7.014,26.346-4.987,28.248-2.643c1.917,2.371-0.501,18.773-9.858,26.603
			c-1.44,1.204-2.809,0.561-2.171-1.027C191.042,79.944,195.758,68.17,193.524,65.313z"/>
	</g>
	<g>
		<path fill-rule="evenodd" clip-rule="evenodd" fill="#010101" d="M173.548,12.724V5.909c0.005-1.037,0.788-1.728,1.728-1.728
			l30.545-0.002c0.978,0.001,1.76,0.711,1.763,1.722l-0.003,5.845c-0.008,0.981-0.833,2.26-2.299,4.291L189.46,38.625
			c5.873-0.138,12.085,0.741,17.421,3.741c1.204,0.675,1.527,1.678,1.621,2.66v7.273c0,1-1.095,2.161-2.248,1.558
			c-9.402-4.926-21.878-5.464-32.273,0.059c-1.063,0.566-2.174-0.576-2.174-1.579v-6.914c0-1.105,0.021-2.997,1.137-4.684
			l18.33-26.297l-15.96-0.002C174.338,14.44,173.557,13.744,173.548,12.724z"/>
		<path fill-rule="evenodd" clip-rule="evenodd" fill="#010101" d="M62.131,55.29h-9.292c-0.884-0.059-1.591-0.723-1.663-1.571
			l0.006-47.693c0-0.955,0.803-1.717,1.794-1.717l8.653-0.003c0.905,0.047,1.631,0.732,1.688,1.602v6.227h0.174
			c2.256-6.021,6.506-8.832,12.231-8.832c5.812,0,9.454,2.811,12.057,8.832c2.255-6.021,7.372-8.832,12.837-8.832
			c3.903,0,8.155,1.606,10.756,5.219c2.95,4.013,2.343,9.834,2.343,14.954l-0.008,30.097c0,0.952-0.803,1.718-1.792,1.718h-9.282
			c-0.932-0.062-1.668-0.8-1.668-1.715l-0.002-25.284c0-2.006,0.173-7.024-0.26-8.931c-0.694-3.211-2.775-4.114-5.463-4.114
			c-2.255,0-4.598,1.506-5.553,3.913c-0.954,2.409-0.866,6.422-0.866,9.132v25.281c0,0.952-0.803,1.718-1.792,1.718h-9.282
			c-0.932-0.062-1.668-0.8-1.668-1.715L76.07,28.291c0-5.317,0.867-13.146-5.724-13.146c-6.68,0-6.42,7.627-6.42,13.146
			l-0.003,25.281C63.923,54.524,63.121,55.29,62.131,55.29z"/>
		<path fill-rule="evenodd" clip-rule="evenodd" fill="#010101" d="M233.877,3.302c13.792,0,21.25,11.843,21.25,26.896
			c0,14.552-8.237,26.096-21.25,26.096c-13.531,0-20.905-11.844-20.905-26.599C212.972,14.844,220.431,3.302,233.877,3.302z
			 M233.963,13.038c-6.852,0-7.286,9.332-7.286,15.154c0,5.82-0.086,18.266,7.2,18.266c7.2,0,7.546-10.037,7.546-16.159
			c0-4.015-0.174-8.833-1.388-12.646C238.994,14.343,236.912,13.038,233.963,13.038z"/>
		<path fill-rule="evenodd" clip-rule="evenodd" fill="#010101" d="M273.013,55.29h-9.257c-0.932-0.062-1.669-0.8-1.669-1.715
			l-0.014-47.711c0.078-0.872,0.849-1.556,1.786-1.556l8.62-0.003c0.811,0.042,1.48,0.596,1.65,1.337v7.294h0.176
			c2.602-6.523,6.244-9.635,12.661-9.635c4.164,0,8.242,1.506,10.844,5.621c2.43,3.814,2.43,10.236,2.43,14.854v30.011
			c-0.104,0.846-0.863,1.502-1.781,1.502h-9.316c-0.86-0.057-1.553-0.689-1.656-1.502V27.891c0-5.219,0.609-12.846-5.811-12.846
			c-2.257,0-4.337,1.506-5.376,3.813c-1.302,2.911-1.477,5.82-1.477,9.033v25.682C274.807,54.524,274.005,55.29,273.013,55.29z"/>
		<path fill-rule="evenodd" clip-rule="evenodd" fill="#010101" d="M149.201,32.513c0,3.621,0.086,6.638-1.739,9.856
			c-1.479,2.617-3.826,4.224-6.433,4.224c-3.565,0-5.651-2.717-5.651-6.739c0-7.914,7.099-9.354,13.823-9.354V32.513z
			 M158.569,55.169c-0.616,0.551-1.502,0.589-2.197,0.218c-3.085-2.566-3.639-3.752-5.325-6.195
			c-5.101,5.198-8.713,6.756-15.321,6.756c-7.823,0-13.91-4.829-13.91-14.483c0-7.544,4.085-12.673,9.911-15.189
			c5.042-2.212,12.083-2.614,17.474-3.217v-1.208c0-2.212,0.173-4.829-1.13-6.739c-1.131-1.71-3.305-2.414-5.218-2.414
			c-3.542,0-6.694,1.816-7.468,5.581c-0.161,0.836-0.771,1.664-1.614,1.708l-9.007-0.975c-0.761-0.172-1.606-0.782-1.387-1.943
			c2.071-10.927,11.938-14.228,20.781-14.228c4.521,0,10.433,1.207,13.996,4.627c4.52,4.224,4.085,9.857,4.085,15.992v14.478
			c0,4.354,1.809,6.264,3.509,8.612c0.592,0.846,0.726,1.851-0.031,2.468c-1.9,1.592-5.273,4.521-7.128,6.172L158.569,55.169z"/>
		<path fill-rule="evenodd" clip-rule="evenodd" fill="#010101" d="M27.382,32.513c0,3.621,0.087,6.638-1.739,9.856
			c-1.477,2.617-3.824,4.224-6.432,4.224c-3.563,0-5.65-2.717-5.65-6.739c0-7.914,7.1-9.354,13.821-9.354V32.513z M36.751,55.169
			c-0.616,0.551-1.503,0.589-2.195,0.218c-3.086-2.566-3.64-3.752-5.327-6.195c-5.101,5.198-8.714,6.756-15.32,6.756
			C6.084,55.948,0,51.119,0,41.465c0-7.544,4.085-12.673,9.91-15.189c5.042-2.212,12.083-2.614,17.472-3.217v-1.208
			c0-2.212,0.173-4.829-1.13-6.739c-1.13-1.71-3.304-2.414-5.215-2.414c-3.544,0-6.696,1.816-7.469,5.581
			c-0.161,0.836-0.771,1.664-1.614,1.708l-9.006-0.975C2.186,18.84,1.34,18.23,1.56,17.069C3.629,6.142,13.498,2.841,22.34,2.841
			c4.52,0,10.431,1.207,13.996,4.627c4.52,4.224,4.085,9.857,4.085,15.992v14.478c0,4.354,1.809,6.264,3.509,8.612
			c0.592,0.846,0.725,1.851-0.031,2.468c-1.898,1.592-5.272,4.521-7.126,6.172L36.751,55.169z"/>
	</g>
</g>
</svg>
