<?xml version="1.0" encoding="utf-8"?>
<!-- Generator: Adobe Illustrator 16.0.0, SVG Export Plug-In . SVG Version: 6.00 Build 0)  -->
<!DOCTYPE svg PUBLIC "-//W3C//DTD SVG 1.1//EN" "http://www.w3.org/Graphics/SVG/1.1/DTD/svg11.dtd">
<svg version="1.1" id="Layer_1" xmlns="http://www.w3.org/2000/svg" xmlns:xlink="http://www.w3.org/1999/xlink" x="0px" y="0px"
	 width="49.997px" height="21.593px" viewBox="0 0 49.997 21.593" enable-background="new 0 0 49.997 21.593" xml:space="preserve">
<g>
	<path fill="#FFFFFF" d="M1.813,0h0.244C2.063,0.08,2.074,0.233,2.08,0.307c7.71,5.25,15.251,10.763,22.922,16.087
		c7.677-5.335,15.24-10.842,22.963-16.121c0.005-0.068,0.028-0.205,0.04-0.273h0.256c0.199,1.085,1.38,2.347,1.556,3.66l0.188-1.818
		V3.66C41.999,9.444,33.878,15.064,25.821,20.78c-0.182,0.205-0.534,0.608-0.71,0.813h-0.227c-0.182-0.21-0.54-0.625-0.716-0.83
		C16.104,15.075,8.029,9.416,0,3.688V3.666C0.54,2.438,1.375,1.102,1.813,0z"/>
</g>
</svg>
