<?xml version="1.0" encoding="utf-8"?>
<!-- Generator: Adobe Illustrator 16.0.0, SVG Export Plug-In . SVG Version: 6.00 Build 0)  -->
<!DOCTYPE svg PUBLIC "-//W3C//DTD SVG 1.1//EN" "http://www.w3.org/Graphics/SVG/1.1/DTD/svg11.dtd">
<svg version="1.1" id="Layer_1" xmlns="http://www.w3.org/2000/svg" xmlns:xlink="http://www.w3.org/1999/xlink" x="0px" y="0px"
	 width="300.002px" height="94.601px" viewBox="0 0 300.002 94.601" enable-background="new 0 0 300.002 94.601"
	 xml:space="preserve">
<path fill-rule="evenodd" clip-rule="evenodd" fill="#253E8A" d="M264.465,8.273c0.547-2.094,1.602-3.758,3.164-4.992
	c2.781-2.172,6.07-2.883,9.868-2.133c3.921,0.781,6.5,2.828,7.734,6.141c0.5,1.344,0.68,2.734,0.539,4.171
	c-0.125,1.453-0.555,2.789-1.289,4.008c-0.75,1.266-1.82,2.531-3.211,3.797c-0.5,0.453-1.796,1.508-3.89,3.164
	c1.141,1.328,2.742,3.25,4.804,5.766c2.188,2.641,3.789,4.563,4.805,5.766l5.461-6.305c1.656,1.781,2.93,3.102,3.82,3.961
	c-2.563,2.968-4.469,5.21-5.719,6.726c1.891,2.313,4.695,5.781,8.414,10.406h-7.359c-2.266-2.766-3.945-4.852-5.039-6.258
	c-3.016,3.375-6.21,5.555-9.586,6.54c-2.594,0.813-5.25,0.906-7.969,0.281c-2.781-0.64-5.109-1.921-6.984-3.844
	c-2.125-2.109-3.383-4.727-3.773-7.852c-0.39-3.203,0.258-6.023,1.945-8.461c0.969-1.375,2.359-2.773,4.172-4.195
	c1.047-0.813,2.641-1.992,4.781-3.539c-1.172-1.344-2.063-2.461-2.672-3.352c-0.891-1.297-1.523-2.57-1.898-3.82
	C263.973,12.281,263.934,10.289,264.465,8.273z M237.184,1.875h5.977V48.75h-5.977v-22.5h-22.148v22.5h-5.977V1.875h5.977v18.867
	h22.148V1.875z M276.512,5.859c-1.469-0.469-2.922-0.305-4.359,0.492c-1.484,0.844-2.281,2.031-2.391,3.563
	c-0.156,1.437,0.273,2.937,1.289,4.5c0.594,0.891,1.578,2.164,2.953,3.82c0.781-0.609,1.992-1.547,3.633-2.813
	c1.328-1.172,2.148-2.414,2.461-3.727c0.328-1.265,0.133-2.492-0.586-3.679S277.793,6.109,276.512,5.859z M274.332,44.156
	c1.531-0.375,3.094-1.164,4.688-2.367c0.828-0.625,2.148-1.789,3.96-3.492c-4.578-5.562-7.992-9.75-10.242-12.563
	c-3.313,2.344-5.008,3.555-5.086,3.633c-1.844,1.532-3.063,3.172-3.656,4.922c-0.703,2.813,0.148,5.352,2.555,7.617
	C268.941,44.156,271.535,44.906,274.332,44.156z M178.005,7.406c-0.016-1.844-0.016-3.688,0-5.531l28.125,0.023v5.484h-11.133V48.75
	h-6c0.031-13.781,0.031-27.563,0-41.343C185.341,7.391,181.677,7.391,178.005,7.406z M162.396,0
	c5.016,10.813,12.476,27.062,22.382,48.75c-2.156,0.031-4.297,0.031-6.422,0c-3.188-7-4.969-10.906-5.344-11.719
	c-7.093,0.031-14.203,0.031-21.328,0l-5.32,11.742l-6.422-0.023c4.953-10.828,12.39-27.078,22.313-48.75H162.396z M158.271,22.242
	c-2.313,5.266-3.672,8.359-4.078,9.282h16.335c-3.64-8.235-6.351-14.422-8.132-18.563C161.303,15.367,159.928,18.46,158.271,22.242z
	 M201.396,76.687c0.016-1.329,0.023-7.313,0.023-17.954c4.25-0.031,10.625-0.039,19.125-0.023v35.273l-19.172,0.023l-16.687-17.766
	v17.742h-19.125l0.023-35.273c4.265,0.016,10.679,0.023,19.242,0.023c0.531,0.563,3.281,3.57,8.25,9.023
	C196.388,71.397,199.161,74.374,201.396,76.687z M157.779,65.038c1.875,1.594,3.297,3.391,4.266,5.391
	c1.188,2.484,1.586,5.156,1.195,8.016c-0.391,2.874-1.516,5.319-3.375,7.335c-3.625,4.172-9.29,6.907-16.992,8.204
	c-8.391,1.25-16.094,0.602-23.109-1.945c-2.516-0.938-4.711-2.109-6.586-3.516c-2.125-1.625-3.75-3.485-4.875-5.579
	c-1.313-2.453-1.813-5.125-1.5-8.015c0.328-2.907,1.398-5.415,3.211-7.524c4.016-4.797,10.25-7.766,18.703-8.906
	c8.828-1.031,16.547-0.07,23.156,2.883C154.139,62.397,156.107,63.616,157.779,65.038z M223.591,58.593
	c1.75,0.016,8.078,0.016,18.984,0c7.703-0.016,14.039,0.063,19.007,0.234c5.766,0.328,10.547,0.805,14.344,1.43
	c5.203,0.859,9.82,2.156,13.852,3.891c2.688,1.172,4.891,2.609,6.609,4.312c2.078,2.031,3.281,4.305,3.609,6.821v2.859
	c-0.359,2.359-1.531,4.507-3.516,6.445c-1.609,1.578-3.68,2.953-6.211,4.125c-3.906,1.797-8.359,3.125-13.359,3.985
	c-3.922,0.672-8.563,1.102-13.922,1.289h-39.397V58.593z M269.785,79.709c0.859-0.843,1.289-1.796,1.289-2.859
	c0.063-1.125-0.313-2.18-1.125-3.164c-0.703-0.844-1.625-1.5-2.766-1.969c-1.984-0.859-4.391-1.414-7.219-1.664
	c-0.438-0.046-2.914-0.156-7.429-0.328v13.593c3.156,0,5.609-0.086,7.359-0.258c2.719-0.266,5.102-0.805,7.148-1.617
	C268.168,80.991,269.082,80.413,269.785,79.709z M89.202,7.641c2.313,1.859,4.102,4.046,5.368,6.562
	c1.297,2.625,2.063,5.531,2.297,8.719c0.234,2.953-0.008,5.953-0.727,9c-0.734,3.156-2.203,6.007-4.406,8.554
	c-2.172,2.516-4.774,4.406-7.805,5.672c-3.078,1.406-6.851,2.242-11.32,2.508c-5.219,0.047-9.109,0.078-11.672,0.094V1.875
	c2.313,0.047,5.805,0.063,10.477,0.047c4.031,0.156,7.453,0.727,10.265,1.711C84.459,4.508,86.967,5.844,89.202,7.641z
	 M88.803,16.054c-1.094-1.906-2.484-3.445-4.172-4.617c-2.359-1.64-5.195-2.781-8.507-3.421c-2.625-0.5-5.695-0.703-9.211-0.609
	v35.835c5.688,0.172,10.375-0.516,14.062-2.063c1.766-0.703,3.352-1.672,4.758-2.906c1.453-1.281,2.594-2.742,3.422-4.383
	c1.719-3.422,2.258-7.391,1.617-11.906C90.491,19.859,89.834,17.882,88.803,16.054z M136.123,13.57
	c0.125,2.094-0.219,4.031-1.031,5.813c-0.875,1.906-2.172,3.359-3.891,4.359c1.594,0.297,3.07,0.961,4.43,1.992
	c1.328,1,2.391,2.227,3.188,3.68c1.172,2.047,1.719,4.297,1.641,6.75c-0.063,2.469-0.75,4.672-2.063,6.609
	c-1.234,1.719-2.914,3.086-5.039,4.102c-1.875,0.891-3.977,1.454-6.305,1.688c-1.859,0.156-4.164,0.227-6.914,0.21
	c-3.094-0.031-5.414-0.039-6.961-0.023c0.031-15.625,0.031-31.242,0-46.851c5.25,0.047,8.125,0.086,8.625,0.117
	c3.281,0.234,6.054,0.883,8.32,1.945c1.797,0.828,3.234,2.148,4.313,3.961C135.436,9.609,135.998,11.492,136.123,13.57z
	 M123.748,7.406c-0.781-0.094-2.304-0.141-4.57-0.141c0,9.125,0.008,14.257,0.023,15.398c2.344-0.078,3.727-0.141,4.148-0.188
	c1.562-0.172,2.882-0.539,3.96-1.102c0.906-0.469,1.641-1.172,2.203-2.109c0.531-0.875,0.844-1.844,0.938-2.906
	c0.188-1.5,0.117-2.867-0.211-4.102c-0.406-1.484-1.148-2.617-2.227-3.398C126.889,8.094,125.467,7.609,123.748,7.406z
	 M119.155,43.359c1.344-0.016,3.398-0.031,6.164-0.047c2.359-0.156,4.313-0.703,5.859-1.641c2.094-1.219,3.211-3.195,3.352-5.93
	c0.141-2.734-0.797-4.781-2.813-6.141c-1.594-1.094-3.609-1.781-6.047-2.063c-0.953-0.125-3.117-0.203-6.492-0.234L119.155,43.359z
	 M36.445,20.273l18.633,0.023v5.484l-18.633,0.023v17.438l19.219,0.023v5.484H30.468V1.875h25.195L55.64,7.406L36.445,7.383V20.273z
	 M22.851,13.64c0.109,2.063-0.234,3.969-1.031,5.719c-0.859,1.891-2.133,3.336-3.82,4.336c2.922,0.641,5.273,2.297,7.055,4.969
	c1.766,2.641,2.453,5.453,2.063,8.438c-0.156,2.063-0.836,3.961-2.039,5.695c-1.219,1.75-2.773,3.055-4.664,3.914
	c-2.625,1.281-5.969,1.977-10.031,2.086C5.727,48.672,2.266,48.656,0,48.75V1.875l8.672,0.141c3.312,0.234,6.101,0.922,8.367,2.063
	c1.75,0.844,3.148,2.164,4.195,3.961C22.203,9.727,22.742,11.593,22.851,13.64z M14.343,8.602c-1.141-0.641-2.516-1.047-4.125-1.219
	C9.344,7.289,7.891,7.25,5.859,7.266V22.64c2.297-0.031,3.844-0.102,4.641-0.211c1.734-0.234,3.164-0.75,4.289-1.547
	c0.922-0.656,1.594-1.602,2.016-2.836c0.344-1.063,0.484-2.234,0.422-3.516c0.031-1.203-0.188-2.328-0.656-3.375
	C16.054,10.031,15.312,9.18,14.343,8.602z M5.859,43.359c1.344-0.016,3.383-0.031,6.117-0.047c2.344-0.156,4.289-0.688,5.836-1.594
	c2.172-1.203,3.313-3.211,3.422-6.023c0.125-2.828-0.867-4.906-2.977-6.234c-1.594-1.031-3.594-1.68-6-1.945
	c-0.906-0.109-3.039-0.18-6.398-0.211V43.359z M64.218,68.437h-12.89v3.164h11.835l-0.023,9.281c-3.938-0.016-7.875-0.016-11.812,0
	v3.398l13.359-0.023l-0.023,9.75c-9.671-0.016-19.351-0.016-29.039,0V58.593h28.593V68.437z M28.804,61.663
	c1.703,1.391,2.672,3.305,2.907,5.742c0.234,2.422-0.359,4.477-1.782,6.164c-0.375,0.469-0.891,0.891-1.547,1.266
	c-0.344,0.204-0.953,0.508-1.828,0.915c1.984,0.734,3.461,1.554,4.43,2.461c1.734,1.546,2.594,3.593,2.578,6.14
	c-0.031,2.532-0.914,4.563-2.648,6.094c-2.454,2.219-6.047,3.399-10.782,3.54H0V58.593c3.75,0.016,9.367,0.023,16.851,0.023
	c2.703,0.094,4.789,0.289,6.258,0.586C25.406,59.671,27.304,60.491,28.804,61.663z M15.468,67.265c-1,0.016-1.742,0.016-2.227,0
	v4.945c0.484-0.016,1.234-0.031,2.25-0.047c0.875-0.046,1.594-0.227,2.156-0.539c0.734-0.359,1.109-1.016,1.125-1.968
	c0-0.969-0.375-1.625-1.125-1.969C17.07,67.437,16.343,67.296,15.468,67.265z M13.242,85.428c0.656,0,1.648,0,2.977,0
	c1.156-0.047,2.117-0.266,2.883-0.656c0.797-0.391,1.211-1.079,1.242-2.063c0.047-0.984-0.313-1.695-1.078-2.133
	c-0.75-0.453-1.727-0.719-2.93-0.797c-1.391-0.016-2.422-0.046-3.094-0.094V85.428z M128.131,71.812
	c-1.078,0.828-1.828,1.805-2.25,2.93c-0.328,0.938-0.398,1.898-0.211,2.883c0.172,1.015,0.586,1.882,1.242,2.601
	c1.625,1.922,4.141,2.953,7.547,3.094c3.5,0.109,6.234-0.727,8.203-2.508c0.75-0.672,1.289-1.484,1.617-2.437
	c0.328-0.984,0.375-1.953,0.141-2.906c-0.172-0.922-0.602-1.781-1.289-2.578c-0.625-0.703-1.391-1.305-2.297-1.805
	c-1.375-0.703-2.906-1.117-4.594-1.242c-1.547-0.125-3.125,0-4.734,0.375C130.225,70.562,129.1,71.093,128.131,71.812z
	 M86.952,63.374c1.094,1.922,2.023,3.5,2.789,4.734c0.578-1.328,1.398-2.93,2.461-4.805c0.578-1.031,1.461-2.586,2.648-4.664
	c4.391-0.063,10.968-0.079,19.734-0.047c-6.938,8.563-12.148,14.977-15.632,19.242c-0.234,0.297-0.406,0.523-0.516,0.68
	c-0.172,0.266-0.25,0.523-0.234,0.773v14.696h-17.11V78.749c-6.468-7.766-12.015-14.477-16.64-20.133
	c6.594-0.016,13.18-0.016,19.757,0C84.381,58.913,85.295,60.499,86.952,63.374z"/>
</svg>
