<?xml version="1.0" encoding="utf-8"?>
<!-- Generator: Adobe Illustrator 16.0.0, SVG Export Plug-In . SVG Version: 6.00 Build 0)  -->
<!DOCTYPE svg PUBLIC "-//W3C//DTD SVG 1.1//EN" "http://www.w3.org/Graphics/SVG/1.1/DTD/svg11.dtd">
<svg version="1.1" id="Layer_1" xmlns="http://www.w3.org/2000/svg" xmlns:xlink="http://www.w3.org/1999/xlink" x="0px" y="0px"
	 width="300.24px" height="94.32px" viewBox="0 0 300.24 94.32" enable-background="new 0 0 300.24 94.32" xml:space="preserve">
<g>
	<path fill-rule="evenodd" clip-rule="evenodd" fill="#939598" d="M157.625,65.701l-2.94-3.674
		c-2.388,2.391-7.716,4.777-11.573,4.777c-6.614,0-12.31-4.777-12.31-11.022c0-7.714,7.35-11.941,9.553-12.676
		c-1.469-1.837-4.04-4.96-4.04-8.819c0.183-5.143,3.306-9.185,10.104-9.185c5.879,0,10.288,3.857,10.288,9.553
		c0,6.43-4.961,8.634-6.431,9.92l4.777,6.797c1.285-1.654,2.572-5.694,2.389-6.428h6.43c0,0-0.919,8.081-4.595,11.938l6.798,8.818
		H157.625L157.625,65.701z M146.601,31.165c-2.02,0-3.674,1.654-3.489,3.308c0.184,2.205,2.021,3.674,3.123,5.143
		c1.47-1.102,4.041-2.571,4.041-4.96C150.275,32.818,148.806,31.165,146.601,31.165L146.601,31.165z M144.213,48.251
		c-6.246,4.225-5.879,7.165-5.879,7.165c0,2.938,2.756,4.591,4.777,4.774c2.388,0,5.879-2.021,7.532-3.491L144.213,48.251
		L144.213,48.251z"/>
	<path fill-rule="evenodd" clip-rule="evenodd" d="M34.354,42.371c-1.469-5.879-6.797-10.655-13.043-10.655
		c-7.9,0-13.778,6.247-13.595,13.778c0.184,7.348,5.879,13.042,13.595,13.042c7.348,0,11.574-5.327,12.493-8.818h7.715
		c-1.653,10.839-12.125,16.537-20.391,16.537C11.758,66.255,0,58.536,0,45.494C0,33.186,9.369,24,21.311,24
		c10.104,0,19.29,7.716,20.576,18.371H34.354L34.354,42.371z"/>
	<path fill-rule="evenodd" clip-rule="evenodd" d="M96.815,65.888c-6.062,0-7.164-4.41-7.164-6.798V41.27h-3.857v-5.696h3.857
		v-8.818h7.716v9.186h4.96v5.328h-4.96v15.983c0,4.041,4.96,2.754,5.694,2.938v5.697H96.815L96.815,65.888z"/>
	<path fill-rule="evenodd" clip-rule="evenodd" d="M50.888,52.292c0,0.367,0,13.409,0,13.409h-7.532V36.492h7.349v2.939
		c1.102-1.469,3.307-3.123,5.694-3.858c1.654-0.183,3.307,0,3.307,0v7.165C55.848,41.636,50.521,43.289,50.888,52.292L50.888,52.292
		z"/>
	<path fill-rule="evenodd" clip-rule="evenodd" d="M108.757,52.842c0,3.857,3.675,6.798,7.532,6.798
		c2.756,0,4.409-1.104,5.879-3.307h7.9c-1.104,5.145-6.431,9.922-13.411,9.922c-9.003,0-15.433-6.798-15.433-16.35
		c0-7.351,5.512-14.882,14.514-14.699c10.287,0.185,14.881,9.003,14.696,17.636H108.757L108.757,52.842z M115.555,41.27
		c-3.307-0.185-6.43,2.388-6.43,6.062h12.858C121.983,43.657,119.045,41.27,115.555,41.27L115.555,41.27z"/>
	<path fill-rule="evenodd" clip-rule="evenodd" d="M79.179,65.701c0,0.187-0.184-1.101-0.551-2.387
		c-1.285,1.104-4.225,3.307-8.818,3.307c-5.144,0-11.022-3.124-11.022-9.185c0-3.674,2.388-8.452,10.656-9.556
		c4.775-0.733,8.451-0.366,8.634-2.937c0.184-0.92-0.734-4.043-5.512-4.043c-2.204,0-4.96,0.734-5.511,4.226H60.44
		c0-5.144,3.124-9.553,12.86-9.553c6.063,0,12.125,2.573,12.125,9.187c0,0,0,15.612,0,16.166c0.184,1.654,0.735,3.857,1.286,4.774
		H79.179L79.179,65.701z M65.585,57.253c0.184,3.12,4.225,3.674,4.96,3.304c0,0,4.042,0,5.879-2.021
		c1.103-1.467,1.653-3.304,1.103-7.348C70.178,52.842,65.585,53.579,65.585,57.253L65.585,57.253z"/>
	<polygon fill-rule="evenodd" clip-rule="evenodd" points="292.652,26.389 300,26.389 300,65.701 292.652,65.701 292.652,26.389 	
		"/>
	<path fill-rule="evenodd" clip-rule="evenodd" d="M253.888,52.476c0,0.366,0,13.226,0,13.226h-7.531V36.677h7.349v2.938
		c1.286-1.469,3.307-3.306,5.695-3.857c1.837-0.367,3.491,0,3.491,0v7.165C258.666,41.82,253.521,43.474,253.888,52.476
		L253.888,52.476z"/>
	<path fill-rule="evenodd" clip-rule="evenodd" d="M235.701,52.476c0,0.366,0,13.226,0,13.226h-7.715V36.677h7.531v2.938
		c1.285-1.469,3.308-3.306,5.694-3.857c1.654-0.367,3.308,0,3.308,0v7.165C240.662,41.82,235.334,43.474,235.701,52.476
		L235.701,52.476z"/>
	<path fill-rule="evenodd" clip-rule="evenodd" d="M269.688,53.025c0,3.674,3.674,6.614,7.533,6.614c2.57,0,4.409-0.916,5.878-3.307
		h7.716c-0.918,5.145-6.246,9.922-13.227,9.922c-8.818,0-15.432-6.798-15.432-16.167c0-7.35,5.511-14.882,14.513-14.697
		c10.104,0,14.881,9.002,14.513,17.635H269.688L269.688,53.025z M276.669,41.27c-3.491,0-6.613,2.388-6.613,6.062h12.859
		C282.915,43.841,280.159,41.27,276.669,41.27L276.669,41.27z"/>
	<path fill-rule="evenodd" clip-rule="evenodd" d="M187.017,65.701c-8.267,0-20.575,0-20.575,0V26.205h17.82
		c6.063,0,12.309,2.755,12.309,10.104c0,6.062-4.775,7.348-5.878,8.266c3.489,1.103,7.349,4.409,7.349,10.841
		C198.041,62.397,191.243,65.701,187.017,65.701L187.017,65.701z M182.607,32.451h-8.816v9.737h8.45
		c1.837,0,6.246-0.734,6.246-5.328C188.487,33.737,185.365,32.451,182.607,32.451L182.607,32.451z M182.607,48.068h-8.816V59.64
		h9.368c1.287,0,6.247-1.104,6.247-5.327C189.406,51.926,188.855,48.068,182.607,48.068L182.607,48.068z"/>
	<path fill-rule="evenodd" clip-rule="evenodd" d="M219.535,65.701c0,0.187-0.367-1.101-0.552-2.387
		c-1.286,1.104-4.227,3.307-8.817,3.307c-5.144,0-11.023-3.124-11.023-9.185c0-3.674,2.389-8.269,10.839-9.556
		c4.409-0.733,8.267-0.366,8.451-2.937c0.184-0.735-0.735-3.859-5.511-3.859c-2.205,0-4.777,0.551-5.329,4.226h-6.797
		c0-5.144,3.491-9.553,12.859-9.553c5.88,0,11.942,2.571,12.126,9.187c0,5.511,0,15.063,0,15.063c0,1.287,0.552,4.594,1.102,5.694
		H219.535L219.535,65.701z M206.859,57.253c0,3.12,4.224,3.674,4.959,3.304c0,0,4.042,0,5.696-2.021
		c1.102-1.467,1.469-3.12,1.102-7.348C211.451,53.025,206.859,53.579,206.859,57.253L206.859,57.253z"/>
</g>
</svg>
