<?xml version="1.0" encoding="utf-8"?>
<!-- Generator: Adobe Illustrator 16.0.3, SVG Export Plug-In . SVG Version: 6.00 Build 0)  -->
<!DOCTYPE svg PUBLIC "-//W3C//DTD SVG 1.1//EN" "http://www.w3.org/Graphics/SVG/1.1/DTD/svg11.dtd">
<svg version="1.1" xmlns="http://www.w3.org/2000/svg" xmlns:xlink="http://www.w3.org/1999/xlink" x="0px" y="0px" width="36px"
	 height="36px" viewBox="0 0 36 36" enable-background="new 0 0 36 36" xml:space="preserve">
<g id="Layer_3">
	<path fill-rule="evenodd" clip-rule="evenodd" fill="#FFFFFF" d="M29.879,6.115C26.602,2.838,22.642,1.2,18,1.201
		c-4.641,0-8.601,1.639-11.882,4.915L6.115,6.118C2.839,9.399,1.201,13.359,1.201,18c0,4.642,1.638,8.602,4.915,11.879
		c3.281,3.281,7.243,4.92,11.885,4.92c4.641,0,8.599-1.64,11.876-4.92l0.003-0.003c3.281-3.276,4.92-7.235,4.92-11.876
		C34.799,13.358,33.16,9.396,29.879,6.115z M18,0c4.973,0,9.214,1.757,12.726,5.269C34.241,8.784,36,13.027,36,18
		c0,4.972-1.758,9.214-5.271,12.726l-0.003,0.003C27.214,34.242,22.972,36,18,36c-4.973,0-9.216-1.759-12.731-5.274
		C1.757,27.214,0,22.973,0,18S1.755,8.784,5.266,5.269l0.003-0.003C8.784,1.755,13.027,0,18,0z"/>
</g>
<g id="Layer_1">
	<path fill-rule="evenodd" clip-rule="evenodd" fill="#FFFFFF" d="M18.456,5.89c0.365,0.044,0.687,0.152,0.967,0.324
		c0.22,0.14,0.415,0.33,0.583,0.57c0.152,0.22,0.268,0.468,0.348,0.744c0.088,0.304,0.142,0.626,0.162,0.967
		s0.006,0.694-0.042,1.063c0.072-0.04,0.126-0.063,0.162-0.066l0.018-0.006c0.056,0,0.09,0.032,0.102,0.096
		c0.012,0.072,0.016,0.15,0.012,0.234c-0.004,0.08-0.014,0.166-0.03,0.258c-0.004,0.044-0.016,0.106-0.036,0.186l-0.066,0.3
		c-0.036,0.12-0.092,0.234-0.168,0.342c-0.084,0.092-0.18,0.174-0.289,0.246l-0.06,0.324v0.018l-0.006,0.006
		c-0.016,0.1-0.032,0.178-0.048,0.234s-0.032,0.094-0.048,0.114c-0.048,0.152-0.138,0.306-0.27,0.462l-0.222,0.234
		c-0.06,0.068-0.11,0.126-0.15,0.174c-0.212,0.216-0.422,0.386-0.63,0.511c-0.229,0.124-0.455,0.188-0.679,0.192
		c-0.036-0.004-0.07-0.006-0.102-0.006c-0.22-0.016-0.438-0.09-0.654-0.222c-0.176-0.108-0.354-0.258-0.534-0.45
		c-0.092-0.096-0.172-0.18-0.24-0.252c-0.068-0.068-0.122-0.128-0.162-0.18c-0.144-0.176-0.24-0.346-0.289-0.51l-0.138-0.648
		c-0.116-0.072-0.214-0.158-0.294-0.258c-0.084-0.112-0.14-0.23-0.168-0.354l-0.072-0.313c-0.02-0.08-0.032-0.138-0.036-0.174
		c-0.028-0.188-0.028-0.356,0-0.504c0.02-0.04,0.048-0.06,0.084-0.06c0.012,0,0.026,0.004,0.042,0.012
		c0.036,0.008,0.084,0.028,0.144,0.06c-0.06-0.521-0.062-0.995-0.006-1.423c0.052-0.428,0.166-0.809,0.342-1.141
		c0.144-0.276,0.346-0.508,0.606-0.696c0.256-0.192,0.539-0.316,0.847-0.373c0.108-0.02,0.216-0.036,0.324-0.048
		s0.214-0.018,0.318-0.018c0.064,0,0.128,0.002,0.192,0.006C18.334,5.87,18.396,5.878,18.456,5.89z M20.053,13.533l3.747,1.351
		c0.108,0.028,0.2,0.104,0.276,0.229c0.02,0.032,0.042,0.078,0.066,0.138c0.024,0.056,0.05,0.124,0.078,0.204
		c0.212,0.749,0.4,1.437,0.564,2.065c0.164,0.625,0.304,1.183,0.42,1.675l0.096,0.48l-0.006,0.006h-14.47v-0.006l0.096-0.48
		c0.108-0.492,0.244-1.051,0.408-1.675c0.164-0.628,0.356-1.317,0.576-2.065c0.024-0.08,0.048-0.148,0.072-0.204
		c0.024-0.06,0.048-0.106,0.072-0.138c0.072-0.12,0.16-0.196,0.264-0.229c0.145-0.048,0.322-0.108,0.535-0.18l2.017-0.714
		c0.032-0.012,0.072-0.026,0.12-0.042l0.366-0.138l0.03-0.018h0.006l0.679-0.258h0.006l1.027,5.529l0.012-0.012l0.559-3.446
		c-0.008-0.04-0.016-0.084-0.024-0.132c-0.012-0.048-0.022-0.1-0.03-0.156l-0.084-0.271c-0.04-0.124-0.072-0.228-0.096-0.312
		c-0.032-0.088-0.05-0.158-0.054-0.21v-0.012l0.318-0.499h0.721l0.306,0.475l0.018,0.024v0.012c-0.016,0.052-0.034,0.123-0.054,0.21
		c-0.028,0.084-0.06,0.188-0.096,0.312l-0.084,0.271c-0.016,0.056-0.028,0.108-0.036,0.156c-0.008,0.048-0.014,0.092-0.018,0.132
		l0.096,0.486c0.044,0.236,0.09,0.484,0.138,0.744c0.044,0.256,0.086,0.521,0.126,0.793c0.04,0.272,0.08,0.552,0.12,0.84
		l0.072,0.583l0.006,0.012l1.033-5.529H20.053z M25.343,21.878l0.072,0.012l-1.321,3.896c-0.104,0.3-0.226,0.654-0.366,1.063
		l-1.039,3.056h-1.591l-2.708-8.021h1.783l1.741,6.07l1.765-6.07L25.343,21.878z M14.277,23.169l-0.222,0.006
		c-0.404,0.04-0.732,0.188-0.984,0.444c-0.204,0.2-0.366,0.448-0.486,0.745c-0.12,0.292-0.2,0.634-0.24,1.026
		c-0.048,0.393-0.05,0.771-0.006,1.135c0.08,0.756,0.316,1.317,0.708,1.681c0.272,0.268,0.618,0.422,1.039,0.462l0.192,0.006
		c0.333,0,0.639-0.082,0.919-0.246c0.196-0.125,0.364-0.311,0.504-0.559c0.04-0.08,0.084-0.18,0.132-0.3
		c0.048-0.116,0.098-0.25,0.15-0.402l1.663,0.006c-0.08,0.452-0.214,0.856-0.402,1.213c-0.188,0.356-0.424,0.664-0.708,0.924
		c-0.224,0.212-0.48,0.384-0.769,0.517c-0.284,0.132-0.597,0.222-0.937,0.27c-0.096,0.012-0.19,0.024-0.282,0.036
		c-0.1,0.004-0.196,0.006-0.289,0.006c-0.436,0-0.873-0.068-1.309-0.204c-0.524-0.168-0.985-0.475-1.381-0.918
		c-0.373-0.433-0.632-0.927-0.781-1.483l-0.012-0.078c-0.124-0.469-0.188-0.951-0.192-1.447c0-0.496,0.056-1.004,0.168-1.525
		c0.076-0.333,0.192-0.645,0.349-0.937c0.156-0.289,0.352-0.555,0.588-0.799c0.244-0.26,0.51-0.468,0.798-0.624
		c0.284-0.16,0.588-0.269,0.913-0.325c0.144-0.02,0.29-0.034,0.438-0.042c0.148-0.012,0.3-0.018,0.456-0.018l0.925,0.084l0.12,0.036
		c0.388,0.096,0.75,0.267,1.086,0.511c0.324,0.236,0.595,0.528,0.811,0.876c0.224,0.4,0.371,0.834,0.438,1.303h-1.693
		c-0.096-0.292-0.196-0.522-0.3-0.69c-0.152-0.236-0.334-0.404-0.546-0.504C14.86,23.231,14.574,23.169,14.277,23.169z"/>
</g>
</svg>
