<?xml version="1.0" encoding="utf-8"?>
<!-- Generator: Adobe Illustrator 16.0.0, SVG Export Plug-In . SVG Version: 6.00 Build 0)  -->
<!DOCTYPE svg PUBLIC "-//W3C//DTD SVG 1.1//EN" "http://www.w3.org/Graphics/SVG/1.1/DTD/svg11.dtd">
<svg version="1.1" id="Layer_1" xmlns="http://www.w3.org/2000/svg" xmlns:xlink="http://www.w3.org/1999/xlink" x="0px" y="0px"
	 width="171.9px" height="162.18px" viewBox="0 0 171.9 162.18" enable-background="new 0 0 171.9 162.18" xml:space="preserve">
<g id="Layer_3">
	<circle opacity="0.5" fill="#FFFFFF" enable-background="new    " cx="85.253" cy="81.042" r="73.625"/>
</g>
<g id="Layer_2">
	<g>
		<path d="M69.759,151.648c0.149-1.819,0.138-5.396-1.542-9.43c-1.938-4.667-7.787-6.678-7.787-6.678s-1.414,6.741,1.34,11.181
			c0.888,1.432,2.573,2.832,4.154,3.943c-2.524-0.727-5.336-1.689-8.349-2.978c0.457-1.719,1.07-5.192,0.13-9.404
			c-1.078-4.834-6.383-7.77-6.383-7.77s-2.509,6.265-0.606,11.021c0.624,1.552,2.04,3.219,3.396,4.57
			c-1.646-0.801-3.33-1.69-5.054-2.7c-0.947-0.514-1.898-1.073-2.85-1.67c0.729-1.543,1.966-4.837,1.771-9.155
			c-0.216-4.85-4.837-8.585-4.837-8.585s-3.49,5.621-2.461,10.531c0.359,1.724,1.582,3.729,2.731,5.327
			c-2.472-1.773-4.919-3.815-7.286-6.098c0.96-1.351,2.734-4.333,3.283-8.564c0.618-4.714-3.205-9.105-3.205-9.105
			s-4.323,4.828-4.166,9.742c0.056,1.694,0.866,3.793,1.687,5.512c-2.109-2.235-4.13-4.668-6.031-7.262
			c1.177-1.177,3.328-3.728,4.548-7.63c1.398-4.445-1.543-9.336-1.543-9.336s-4.999,3.925-5.678,8.695
			c-0.225,1.563,0.146,3.586,0.612,5.327c-1.654-2.497-3.189-5.127-4.575-7.87c1.317-0.916,3.874-3.02,5.743-6.629
			c2.104-4.052,0.1-9.272,0.1-9.272s-5.492,2.938-6.962,7.429c-0.505,1.544-0.464,3.698-0.286,5.518
			c-1.273-2.824-2.376-5.752-3.287-8.769c1.396-0.63,4.292-2.227,6.768-5.462c2.722-3.554,1.676-8.934,1.676-8.934
			s-5.802,1.901-7.981,5.983c-0.804,1.494-1.122,3.766-1.245,5.621c-0.801-3.126-1.388-6.342-1.723-9.624
			c1.429-0.355,4.541-1.396,7.518-4.133c3.233-2.97,3.138-8.339,3.138-8.339s-5.92,0.848-8.72,4.418
			c-1.041,1.318-1.738,3.486-2.171,5.262c-0.316-3.416-0.349-6.813-0.13-10.166c1.381-0.084,4.646-0.522,8.076-2.716
			c3.623-2.315,4.446-7.515,4.446-7.515s-5.86-0.188-9.169,2.776c-1.327,1.188-2.438,3.395-3.16,5.104
			c0.363-3.604,1.004-7.146,1.892-10.583c1.364,0.151,4.572,0.27,8.232-1.253c3.891-1.617,5.568-6.497,5.568-6.497
			s-5.625-1.178-9.322,1.124c-1.433,0.891-2.834,2.736-3.818,4.24c1.01-3.434,2.254-6.754,3.689-9.925
			c1.291,0.377,4.363,1.04,8.151,0.192c4.033-0.897,6.48-5.32,6.48-5.32s-5.225-2.095-9.189-0.505
			c-1.542,0.618-3.221,2.18-4.427,3.468c1.596-3.259,3.388-6.338,5.325-9.203c1.082,0.553,4.01,1.821,7.973,1.64
			c4.041-0.18,7.156-4.031,7.156-4.031s-4.686-2.911-8.779-2.047c-1.766,0.369-3.889,1.825-5.292,2.918
			c2.226-3.125,4.618-5.968,7.106-8.465c0.834,0.652,3.51,2.51,7.538,3.034c3.934,0.516,7.602-2.672,7.602-2.672
			s-4.031-3.606-8.132-3.472c-1.94,0.062-4.521,1.311-6.03,2.146c1.375-1.322,2.778-2.538,4.192-3.638
			c1.583-1.321,3.148-2.514,4.688-3.606c0.721,0.794,2.981,3.013,6.744,4.191c3.706,1.165,7.787-1.287,7.787-1.287
			s-3.278-4.165-7.253-4.735c-1.856-0.265-4.505,0.478-6.115,1.021c3.477-2.373,6.768-4.204,9.697-5.612
			c0.448,0.741,2.252,3.441,5.868,5.313c3.381,1.759,7.731,0.084,7.731,0.084s-2.453-4.577-6.192-5.805
			c-1.952-0.638-5.078-0.233-6.612,0.03c2.615-1.217,4.913-2.095,6.759-2.732c0.797,0.39,3.435,1.529,5.821,0.71
			c3.563-1.226,5.326-3.626,5.326-3.626s-3.68-1.41-5.866-1.039c-2.737,0.469-4.975,3.132-5.435,3.709
			c-1.521,0.479-3.339,1.114-5.384,1.961c1.319-0.904,3.737-2.725,4.67-4.489c1.845-3.484,0.432-8.479,0.432-8.479
			s-4.296,1.815-5.513,5.426c-1.315,3.914-0.705,7.148-0.523,7.937c-2.977,1.287-6.381,3.009-10.017,5.315
			c1.193-1.198,3.077-3.289,3.659-5.104c1.236-3.824-1.069-8.593-1.069-8.593s-3.995,2.586-4.577,6.428
			c-0.616,4.065,0.498,7.154,0.854,8.007c-1.946,1.284-3.947,2.729-5.979,4.368c-0.902,0.682-1.801,1.412-2.693,2.183
			c0.958-1.441,2.145-3.51,2.378-5.192c0.563-4.062-2.599-8.448-2.599-8.448s-3.559,3.31-3.462,7.274
			c0.096,3.934,1.563,6.731,2.167,7.723c-2.498,2.324-4.926,4.994-7.207,7.948c0.679-1.6,1.422-3.75,1.361-5.396
			c-0.156-4.182-4.114-8.028-4.114-8.028s-2.986,3.955-2.186,7.922c0.789,3.921,2.753,6.472,3.54,7.367
			c-2.087,2.88-4.029,6-5.776,9.321c0.412-1.742,0.809-4.112,0.444-5.797c-0.897-4.174-5.554-7.338-5.554-7.338
			s-2.301,4.504-0.794,8.348c1.5,3.83,3.948,6.049,4.884,6.795c-1.521,3.105-2.873,6.363-3.995,9.745
			c0.077-1.763,0.011-3.963-0.602-5.468c-1.642-4.034-6.881-6.391-6.881-6.391s-1.516,4.933,0.683,8.53
			c2.115,3.467,4.858,5.262,6.004,5.898c-0.927,3.154-1.647,6.404-2.142,9.724c-0.258-1.651-0.702-3.519-1.482-4.76
			C8.72,62.559,3.036,61.12,3.036,61.12S2.39,66.346,5.231,69.57c2.629,2.983,5.566,4.319,6.916,4.813
			c-0.319,3.2-0.419,6.454-0.267,9.74c-0.55-1.593-1.318-3.348-2.303-4.435c-3.044-3.367-9.007-3.807-9.007-3.807
			s0.271,5.369,3.701,8.105c3.197,2.558,6.419,3.366,7.844,3.614c0.204,3.106,0.625,6.163,1.245,9.152
			c-0.822-1.466-1.881-3.023-3.026-3.916c-3.656-2.841-9.726-2.225-9.726-2.225s1.226,5.344,5.157,7.486
			c3.607,1.969,6.936,2.236,8.448,2.24c0.794,3.005,1.782,5.934,2.936,8.765c-1.095-1.34-2.452-2.752-3.783-3.46
			c-4.18-2.205-10.168-0.51-10.168-0.51s2.178,5.151,6.506,6.61c3.999,1.345,7.403,1.016,8.911,0.753
			c1.325,2.849,2.815,5.589,4.431,8.202c-1.353-1.179-2.994-2.386-4.481-2.863c-4.587-1.48-10.31,1.287-10.31,1.287
			s3.104,4.787,7.711,5.484c4.263,0.646,7.631-0.294,9.097-0.824c1.713,2.497,3.539,4.858,5.453,7.065
			c-1.477-0.854-3.159-1.644-4.603-1.844c-4.872-0.674-10.132,3.121-10.132,3.121s3.969,4.264,8.723,4.147
			c4.235-0.103,7.371-1.533,8.83-2.351c2.033,2.102,4.138,4.03,6.281,5.766c-1.521-0.526-3.168-0.935-4.524-0.884
			c-5.014,0.187-9.628,4.929-9.628,4.929s4.741,3.582,9.5,2.622c4.16-0.839,7.03-2.774,8.382-3.868
			c1.52,1.048,3.038,1.997,4.561,2.837c0.963,0.571,1.913,1.11,2.854,1.615c-1.676-0.279-3.49-0.423-4.905-0.118
			c-5.005,1.074-8.801,6.654-8.801,6.654s5.4,2.761,10.014,0.954c4.09-1.603,6.646-4.109,7.789-5.43
			c2.771,1.297,5.4,2.328,7.83,3.146c-1.711,0.022-3.52,0.202-4.86,0.749c-4.84,1.966-7.667,8.25-7.667,8.25
			s5.916,1.815,10.231-0.818c3.807-2.32,5.928-5.271,6.85-6.808c6.927,1.834,11.195,2.104,11.195,2.104l0.126-1.241l0.128-1.244
			C78.691,153.14,75.358,152.916,69.759,151.648z M166.287,98.099c3.927-2.144,5.156-7.486,5.156-7.486s-6.071-0.616-9.729,2.225
			c-1.145,0.893-2.201,2.449-3.024,3.916c0.623-2.99,1.042-6.046,1.246-9.152c1.424-0.245,4.643-1.058,7.841-3.614
			c3.431-2.736,3.704-8.105,3.704-8.105s-5.962,0.439-9.006,3.807c-0.983,1.09-1.755,2.843-2.303,4.435
			c0.154-3.284,0.054-6.54-0.27-9.74c1.352-0.493,4.289-1.829,6.919-4.813c2.841-3.224,2.194-8.449,2.194-8.449
			s-5.684,1.438-8.048,5.202c-0.777,1.243-1.224,3.11-1.48,4.761c-0.493-3.317-1.215-6.57-2.139-9.726
			c1.144-0.637,3.887-2.432,6-5.898c2.198-3.598,0.685-8.53,0.685-8.53s-5.24,2.356-6.885,6.391
			c-0.607,1.505-0.675,3.705-0.599,5.468c-1.12-3.381-2.471-6.639-3.994-9.745c0.937-0.746,3.386-2.965,4.886-6.795
			c1.506-3.844-0.795-8.348-0.795-8.348s-4.652,3.165-5.552,7.338c-0.361,1.685,0.034,4.058,0.444,5.797
			c-1.747-3.318-3.69-6.44-5.776-9.321c0.786-0.896,2.75-3.445,3.54-7.367c0.798-3.967-2.186-7.922-2.186-7.922
			s-3.958,3.847-4.115,8.028c-0.061,1.646,0.684,3.797,1.365,5.396c-2.287-2.954-4.711-5.625-7.213-7.948
			c0.604-0.991,2.073-3.79,2.168-7.723c0.097-3.965-3.459-7.274-3.459-7.274s-3.162,4.388-2.598,8.448
			c0.229,1.683,1.416,3.751,2.374,5.192c-0.894-0.771-1.791-1.501-2.691-2.183c-2.033-1.639-4.034-3.084-5.979-4.368
			c0.354-0.853,1.471-3.941,0.854-8.007c-0.582-3.842-4.577-6.428-4.577-6.428s-2.309,4.769-1.071,8.593
			c0.585,1.815,2.466,3.906,3.66,5.107c-3.638-2.31-7.039-4.031-10.018-5.318c0.184-0.788,0.791-4.022-0.524-7.937
			c-1.215-3.609-5.512-5.426-5.512-5.426s-1.41,4.995,0.431,8.479c0.932,1.764,3.353,3.583,4.669,4.489
			c-2.045-0.847-3.861-1.482-5.382-1.961c-0.458-0.577-2.696-3.241-5.433-3.709C101.879,7.504,98.2,8.914,98.2,8.914
			s1.764,2.4,5.327,3.626c2.389,0.819,5.026-0.32,5.82-0.71c1.848,0.638,4.147,1.516,6.761,2.732
			c-1.533-0.264-4.659-0.668-6.615-0.03c-3.739,1.228-6.193,5.805-6.193,5.805s4.353,1.674,7.733-0.084
			c3.616-1.872,5.421-4.573,5.869-5.313c2.93,1.408,6.224,3.239,9.695,5.612c-1.609-0.544-4.257-1.285-6.115-1.021
			c-3.976,0.569-7.252,4.734-7.252,4.734s4.08,2.452,7.788,1.287c3.763-1.179,6.023-3.396,6.744-4.191
			c1.536,1.093,3.104,2.286,4.688,3.606c1.412,1.1,2.814,2.314,4.193,3.638c-1.51-0.832-4.09-2.083-6.036-2.146
			c-4.098-0.135-8.126,3.472-8.126,3.472s3.664,3.188,7.599,2.672c4.028-0.523,6.703-2.381,7.538-3.036
			c2.488,2.499,4.882,5.341,7.108,8.467c-1.4-1.093-3.525-2.549-5.294-2.918c-4.096-0.864-8.779,2.047-8.779,2.047
			s3.116,3.852,7.158,4.031c3.962,0.182,6.894-1.087,7.974-1.64c1.938,2.865,3.729,5.947,5.324,9.206
			c-1.205-1.291-2.885-2.853-4.429-3.47c-3.96-1.59-9.188,0.505-9.188,0.505s2.45,4.423,6.48,5.32
			c3.79,0.848,6.863,0.186,8.152-0.192c1.436,3.171,2.681,6.494,3.688,9.927c-0.983-1.504-2.387-3.352-3.82-4.242
			c-3.695-2.302-9.317-1.124-9.317-1.124s1.678,4.881,5.566,6.497c3.66,1.522,6.868,1.405,8.231,1.253
			c0.888,3.438,1.526,6.979,1.891,10.583c-0.722-1.708-1.832-3.917-3.158-5.104c-3.308-2.964-9.168-2.776-9.168-2.776
			s0.823,5.199,4.446,7.515c3.43,2.193,6.695,2.632,8.076,2.716c0.218,3.352,0.186,6.75-0.132,10.168
			c-0.435-1.778-1.131-3.946-2.169-5.265c-2.801-3.57-8.721-4.418-8.721-4.418s-0.097,5.369,3.139,8.339
			c2.974,2.737,6.086,3.776,7.515,4.133c-0.334,3.282-0.921,6.498-1.72,9.624c-0.123-1.854-0.443-4.126-1.244-5.621
			c-2.181-4.082-7.98-5.983-7.98-5.983s-1.049,5.379,1.672,8.934c2.477,3.235,5.372,4.832,6.768,5.462
			c-0.909,3.017-2.015,5.944-3.287,8.769c0.18-1.818,0.223-3.974-0.285-5.518c-1.47-4.49-6.959-7.429-6.959-7.429
			s-2.006,5.222,0.098,9.272c1.873,3.609,4.426,5.713,5.744,6.629c-1.384,2.743-2.919,5.373-4.577,7.87
			c0.468-1.741,0.839-3.765,0.613-5.327c-0.681-4.771-5.676-8.695-5.676-8.695s-2.944,4.891-1.547,9.337
			c1.223,3.901,3.375,6.452,4.553,7.627c-1.904,2.596-3.924,5.024-6.035,7.26c0.821-1.717,1.632-3.813,1.688-5.508
			c0.157-4.914-4.169-9.742-4.169-9.742s-3.819,4.393-3.203,9.105c0.551,4.231,2.324,7.216,3.285,8.564
			c-2.367,2.282-4.813,4.324-7.289,6.096c1.148-1.596,2.374-3.602,2.732-5.325c1.029-4.91-2.462-10.531-2.462-10.531
			s-4.616,3.735-4.835,8.585c-0.196,4.318,1.044,7.612,1.771,9.155c-0.95,0.597-1.9,1.156-2.851,1.67
			c-1.724,1.009-3.408,1.899-5.051,2.7c1.354-1.352,2.771-3.019,3.396-4.57c1.902-4.755-0.605-11.021-0.605-11.021
			s-5.305,2.936-6.383,7.77c-0.941,4.212-0.327,7.687,0.129,9.404c-3.012,1.287-5.822,2.251-8.351,2.978
			c1.582-1.111,3.266-2.513,4.153-3.943c2.758-4.439,1.343-11.181,1.343-11.181s-5.848,2.011-7.789,6.678
			c-1.676,4.034-1.689,7.61-1.541,9.43c-5.597,1.269-8.93,1.492-8.93,1.492l0.126,1.244l0.128,1.241c0,0,4.266-0.271,11.192-2.104
			c0.922,1.536,3.044,4.486,6.85,6.808c4.314,2.635,10.231,0.818,10.231,0.818s-2.824-6.283-7.665-8.25
			c-1.343-0.547-3.15-0.727-4.862-0.749c2.428-0.816,5.058-1.849,7.831-3.146c1.14,1.321,3.698,3.827,7.787,5.43
			c4.613,1.808,10.015-0.954,10.015-0.954s-3.797-5.58-8.802-6.653c-1.414-0.306-3.227-0.162-4.908,0.117
			c0.943-0.505,1.896-1.044,2.856-1.615c1.518-0.841,3.043-1.79,4.557-2.836c1.354,1.09,4.227,3.028,8.384,3.867
			c4.761,0.96,9.503-2.622,9.503-2.622s-4.612-4.742-9.63-4.929c-1.356-0.051-3.006,0.356-4.524,0.884
			c2.143-1.735,4.249-3.665,6.285-5.766c1.455,0.816,4.594,2.248,8.826,2.351c4.755,0.116,8.722-4.147,8.722-4.147
			s-5.259-3.795-10.13-3.121c-1.444,0.2-3.126,0.99-4.604,1.844c1.915-2.207,3.741-4.567,5.456-7.065
			c1.464,0.53,4.83,1.471,9.093,0.824c4.608-0.697,7.713-5.484,7.713-5.484s-5.722-2.769-10.309-1.287
			c-1.49,0.479-3.13,1.688-4.482,2.863c1.616-2.613,3.104-5.354,4.429-8.202c1.509,0.263,4.913,0.592,8.909-0.753
			c4.33-1.459,6.509-6.61,6.509-6.61s-5.991-1.695-10.168,0.51c-1.33,0.708-2.688,2.12-3.782,3.46
			c1.149-2.832,2.14-5.76,2.933-8.765C159.347,100.335,162.674,100.067,166.287,98.099z"/>
	</g>
</g>
<g id="Layer_1_1_">
	<path fill="#E4D1B3" d="M69.183,151.073c0.148-1.82,0.137-5.396-1.542-9.431c-1.939-4.667-7.788-6.678-7.788-6.678
		s-1.414,6.741,1.34,11.181c0.888,1.433,2.574,2.832,4.155,3.943c-2.525-0.727-5.336-1.689-8.35-2.978
		c0.457-1.719,1.07-5.192,0.13-9.404c-1.078-4.834-6.383-7.77-6.383-7.77s-2.509,6.266-0.605,11.021
		c0.624,1.552,2.04,3.219,3.396,4.57c-1.645-0.801-3.33-1.691-5.054-2.699c-0.948-0.515-1.898-1.074-2.85-1.67
		c0.729-1.543,1.966-4.838,1.771-9.156c-0.216-4.85-4.836-8.585-4.836-8.585s-3.49,5.621-2.461,10.532
		c0.359,1.723,1.582,3.729,2.731,5.326c-2.472-1.773-4.919-3.815-7.285-6.098c0.96-1.35,2.733-4.333,3.282-8.563
		c0.618-4.715-3.205-9.106-3.205-9.106s-4.322,4.828-4.166,9.742c0.056,1.694,0.866,3.793,1.687,5.512
		c-2.109-2.235-4.13-4.668-6.031-7.262c1.177-1.176,3.328-3.728,4.548-7.629c1.398-4.447-1.542-9.336-1.542-9.336
		s-4.999,3.924-5.679,8.694c-0.224,1.563,0.146,3.586,0.613,5.327c-1.655-2.497-3.19-5.127-4.576-7.87
		c1.318-0.916,3.874-3.02,5.743-6.629c2.104-4.052,0.1-9.271,0.1-9.271s-5.492,2.938-6.962,7.428
		c-0.505,1.544-0.464,3.699-0.286,5.518c-1.272-2.823-2.376-5.752-3.287-8.769c1.396-0.63,4.293-2.227,6.77-5.462
		c2.721-3.553,1.675-8.934,1.675-8.934s-5.801,1.901-7.981,5.983c-0.804,1.494-1.122,3.766-1.245,5.621
		c-0.801-3.126-1.388-6.342-1.723-9.624c1.429-0.355,4.541-1.396,7.519-4.133c3.232-2.97,3.137-8.338,3.137-8.338
		s-5.92,0.847-8.719,4.418c-1.04,1.317-1.738,3.485-2.171,5.261c-0.317-3.416-0.35-6.813-0.131-10.166
		c1.382-0.084,4.646-0.522,8.076-2.716c3.623-2.315,4.446-7.515,4.446-7.515s-5.86-0.188-9.169,2.776
		c-1.327,1.189-2.438,3.396-3.16,5.105c0.363-3.604,1.004-7.146,1.892-10.583c1.364,0.15,4.572,0.269,8.232-1.254
		c3.891-1.616,5.569-6.496,5.569-6.496s-5.625-1.179-9.323,1.124c-1.432,0.89-2.834,2.735-3.818,4.239
		c1.011-3.434,2.254-6.754,3.689-9.925c1.291,0.377,4.364,1.04,8.151,0.192c4.033-0.897,6.48-5.32,6.48-5.32
		s-5.224-2.095-9.189-0.505c-1.542,0.618-3.221,2.18-4.427,3.468c1.596-3.259,3.389-6.338,5.325-9.203
		c1.082,0.554,4.011,1.821,7.973,1.641c4.041-0.181,7.156-4.032,7.156-4.032s-4.685-2.911-8.779-2.047
		c-1.765,0.37-3.889,1.826-5.292,2.918c2.226-3.125,4.618-5.967,7.106-8.464c0.834,0.651,3.51,2.509,7.538,3.033
		C45.332,32.541,49,29.354,49,29.354s-4.03-3.606-8.132-3.472c-1.939,0.062-4.521,1.311-6.03,2.146
		c1.375-1.322,2.778-2.537,4.192-3.638c1.583-1.321,3.149-2.514,4.689-3.605c0.72,0.794,2.98,3.012,6.743,4.19
		c3.706,1.165,7.787-1.287,7.787-1.287s-3.277-4.165-7.253-4.734c-1.855-0.266-4.505,0.477-6.115,1.021
		c3.477-2.373,6.768-4.204,9.697-5.612c0.448,0.74,2.252,3.441,5.868,5.313c3.381,1.759,7.732,0.084,7.732,0.084
		s-2.453-4.578-6.193-5.805c-1.952-0.638-5.078-0.233-6.612,0.03c2.615-1.217,4.913-2.095,6.759-2.732
		c0.798,0.39,3.435,1.53,5.821,0.71c3.563-1.226,5.326-3.626,5.326-3.626s-3.679-1.41-5.866-1.039
		c-2.737,0.469-4.975,3.132-5.435,3.709c-1.521,0.479-3.338,1.114-5.383,1.961c1.318-0.904,3.736-2.724,4.67-4.489
		C63.111,4.995,61.698,0,61.698,0s-4.296,1.815-5.512,5.426c-1.316,3.914-0.706,7.149-0.524,7.937
		c-2.976,1.287-6.381,3.009-10.017,5.315c1.193-1.198,3.078-3.29,3.66-5.104c1.235-3.825-1.07-8.594-1.07-8.594
		s-3.995,2.586-4.577,6.429c-0.616,4.063,0.498,7.153,0.854,8.006c-1.947,1.285-3.948,2.729-5.979,4.369
		c-0.902,0.681-1.801,1.411-2.693,2.182c0.958-1.441,2.145-3.51,2.378-5.192c0.563-4.062-2.599-8.447-2.599-8.447
		s-3.558,3.309-3.462,7.273c0.096,3.935,1.563,6.731,2.167,7.724c-2.498,2.323-4.926,4.993-7.207,7.947
		c0.679-1.6,1.422-3.75,1.361-5.396c-0.156-4.182-4.114-8.028-4.114-8.028s-2.986,3.955-2.185,7.923
		c0.788,3.921,2.753,6.472,3.54,7.366c-2.088,2.88-4.03,6-5.777,9.321c0.412-1.742,0.809-4.112,0.445-5.796
		c-0.898-4.175-5.555-7.338-5.555-7.338s-2.301,4.504-0.794,8.347c1.5,3.83,3.948,6.048,4.884,6.795
		c-1.521,3.105-2.873,6.364-3.994,9.745c0.076-1.762,0.01-3.963-0.603-5.467c-1.641-4.035-6.881-6.392-6.881-6.392
		s-1.515,4.934,0.683,8.53c2.115,3.467,4.858,5.262,6.004,5.899c-0.927,3.153-1.647,6.403-2.142,9.723
		c-0.258-1.651-0.702-3.519-1.482-4.759c-2.361-3.764-8.046-5.202-8.046-5.202s-0.646,5.226,2.195,8.45
		c2.629,2.982,5.567,4.318,6.916,4.812c-0.319,3.2-0.419,6.454-0.266,9.74c-0.551-1.592-1.319-3.347-2.304-4.435
		C5.963,75.743,0,75.303,0,75.303s0.272,5.369,3.701,8.106c3.197,2.557,6.419,3.365,7.844,3.613
		c0.204,3.106,0.625,6.163,1.245,9.152c-0.822-1.466-1.881-3.023-3.025-3.916c-3.657-2.841-9.727-2.224-9.727-2.224
		s1.227,5.343,5.157,7.485c3.608,1.97,6.936,2.236,8.449,2.24c0.794,3.005,1.78,5.934,2.935,8.765
		c-1.095-1.34-2.452-2.752-3.783-3.46c-4.18-2.205-10.168-0.51-10.168-0.51s2.179,5.151,6.506,6.61
		c3.999,1.345,7.403,1.016,8.911,0.753c1.325,2.849,2.815,5.589,4.432,8.202c-1.354-1.179-2.995-2.386-4.482-2.863
		c-4.587-1.48-10.309,1.287-10.309,1.287s3.104,4.787,7.711,5.485c4.262,0.646,7.63-0.295,9.096-0.825
		c1.713,2.498,3.539,4.858,5.453,7.065c-1.478-0.854-3.159-1.644-4.604-1.844c-4.871-0.674-10.132,3.121-10.132,3.121
		s3.97,4.264,8.724,4.148c4.234-0.104,7.371-1.534,8.83-2.352c2.032,2.103,4.137,4.03,6.28,5.766
		c-1.521-0.526-3.168-0.935-4.523-0.884c-5.015,0.187-9.628,4.93-9.628,4.93s4.74,3.582,9.5,2.621
		c4.159-0.839,7.029-2.774,8.381-3.867c1.52,1.047,3.039,1.996,4.56,2.836c0.963,0.571,1.914,1.11,2.854,1.615
		c-1.676-0.279-3.491-0.423-4.906-0.117c-5.005,1.073-8.801,6.653-8.801,6.653s5.4,2.761,10.014,0.954
		c4.09-1.603,6.647-4.108,7.789-5.43c2.772,1.297,5.401,2.328,7.83,3.146c-1.711,0.022-3.519,0.202-4.86,0.749
		c-4.84,1.967-7.667,8.25-7.667,8.25s5.916,1.815,10.231-0.818c3.807-2.32,5.928-5.271,6.85-6.807
		c6.928,1.833,11.195,2.104,11.195,2.104l0.126-1.241l0.128-1.244C78.115,152.564,74.782,152.339,69.183,151.073z M165.71,97.522
		c3.928-2.144,5.156-7.485,5.156-7.485s-6.071-0.617-9.729,2.224c-1.146,0.893-2.202,2.449-3.025,3.916
		c0.623-2.99,1.042-6.046,1.246-9.152c1.424-0.245,4.643-1.058,7.841-3.613c3.431-2.737,3.704-8.106,3.704-8.106
		s-5.962,0.44-9.006,3.807c-0.983,1.091-1.755,2.843-2.302,4.435c0.153-3.284,0.053-6.54-0.271-9.74
		c1.353-0.493,4.289-1.829,6.919-4.812c2.841-3.225,2.194-8.45,2.194-8.45s-5.684,1.438-8.047,5.202
		c-0.778,1.244-1.225,3.11-1.481,4.761c-0.493-3.317-1.215-6.57-2.139-9.725c1.144-0.638,3.887-2.433,6-5.899
		c2.199-3.597,0.685-8.53,0.685-8.53s-5.24,2.356-6.885,6.392c-0.607,1.504-0.675,3.705-0.598,5.467
		c-1.121-3.381-2.472-6.638-3.995-9.745c0.937-0.747,3.386-2.965,4.886-6.795c1.506-3.843-0.795-8.347-0.795-8.347
		s-4.652,3.165-5.552,7.338c-0.361,1.684,0.035,4.057,0.444,5.796c-1.747-3.318-3.69-6.44-5.776-9.321
		c0.787-0.895,2.75-3.445,3.54-7.366c0.798-3.968-2.186-7.923-2.186-7.923s-3.958,3.847-4.115,8.028
		c-0.061,1.646,0.684,3.796,1.365,5.396c-2.287-2.954-4.711-5.624-7.213-7.947c0.604-0.992,2.073-3.79,2.168-7.724
		c0.097-3.966-3.459-7.273-3.459-7.273s-3.162,4.387-2.598,8.447c0.229,1.683,1.416,3.751,2.374,5.192
		c-0.894-0.771-1.791-1.501-2.691-2.182c-2.033-1.64-4.034-3.084-5.979-4.369c0.354-0.853,1.471-3.942,0.854-8.006
		c-0.582-3.843-4.577-6.429-4.577-6.429s-2.309,4.769-1.07,8.594c0.584,1.814,2.465,3.905,3.659,5.106
		c-3.638-2.31-7.038-4.031-10.018-5.317c0.184-0.788,0.791-4.023-0.524-7.938C113.502,1.816,109.205,0,109.205,0
		s-1.41,4.995,0.432,8.479c0.931,1.765,3.352,3.583,4.669,4.489c-2.046-0.847-3.862-1.482-5.383-1.961
		c-0.458-0.577-2.696-3.241-5.433-3.709c-2.188-0.371-5.867,1.039-5.867,1.039s1.765,2.4,5.327,3.626
		c2.389,0.82,5.026-0.32,5.82-0.71c1.848,0.638,4.147,1.516,6.761,2.732c-1.533-0.264-4.659-0.668-6.615-0.03
		c-3.738,1.228-6.192,5.805-6.192,5.805s4.352,1.674,7.732-0.084c3.616-1.872,5.421-4.573,5.869-5.313
		c2.93,1.408,6.224,3.239,9.695,5.612c-1.609-0.544-4.256-1.285-6.115-1.021c-3.975,0.569-7.252,4.734-7.252,4.734
		s4.08,2.452,7.788,1.287c3.763-1.179,6.023-3.396,6.744-4.19c1.537,1.092,3.104,2.285,4.688,3.605
		c1.412,1.101,2.814,2.314,4.193,3.638c-1.51-0.831-4.09-2.083-6.036-2.146c-4.098-0.135-8.126,3.472-8.126,3.472
		s3.664,3.188,7.599,2.672c4.028-0.523,6.703-2.381,7.538-3.035c2.488,2.499,4.882,5.34,7.108,8.466
		c-1.401-1.092-3.525-2.548-5.294-2.918c-4.095-0.864-8.779,2.047-8.779,2.047s3.116,3.852,7.158,4.032
		c3.962,0.181,6.894-1.087,7.974-1.641c1.938,2.865,3.729,5.947,5.324,9.206c-1.205-1.291-2.885-2.853-4.429-3.47
		c-3.96-1.59-9.188,0.505-9.188,0.505s2.45,4.423,6.48,5.32c3.791,0.848,6.865,0.186,8.153-0.192
		c1.435,3.171,2.68,6.494,3.688,9.927c-0.983-1.504-2.387-3.352-3.82-4.241c-3.694-2.303-9.318-1.124-9.318-1.124
		s1.678,4.88,5.566,6.497c3.66,1.521,6.868,1.404,8.231,1.253c0.888,3.438,1.526,6.979,1.891,10.583
		c-0.722-1.708-1.832-3.917-3.158-5.105c-3.307-2.964-9.168-2.776-9.168-2.776s0.823,5.199,4.446,7.515
		c3.43,2.193,6.695,2.632,8.076,2.716c0.218,3.352,0.186,6.75-0.132,10.168c-0.435-1.778-1.13-3.946-2.169-5.264
		c-2.801-3.571-8.721-4.418-8.721-4.418s-0.097,5.368,3.139,8.338c2.974,2.737,6.086,3.776,7.515,4.133
		c-0.334,3.282-0.921,6.498-1.72,9.624c-0.123-1.854-0.443-4.126-1.244-5.621c-2.18-4.082-7.98-5.983-7.98-5.983
		s-1.049,5.379,1.673,8.934c2.476,3.235,5.371,4.832,6.767,5.462c-0.909,3.017-2.014,5.945-3.287,8.769
		c0.179-1.818,0.222-3.974-0.285-5.518c-1.471-4.49-6.96-7.428-6.96-7.428s-2.006,5.221,0.098,9.271
		c1.873,3.609,4.426,5.713,5.744,6.629c-1.384,2.743-2.919,5.373-4.576,7.87c0.467-1.741,0.838-3.765,0.612-5.327
		c-0.681-4.771-5.676-8.694-5.676-8.694s-2.944,4.889-1.547,9.336c1.223,3.901,3.374,6.453,4.553,7.627
		c-1.904,2.596-3.924,5.024-6.035,7.26c0.821-1.717,1.632-3.813,1.688-5.508c0.158-4.914-4.169-9.742-4.169-9.742
		s-3.819,4.393-3.203,9.105c0.551,4.231,2.324,7.216,3.285,8.564c-2.367,2.282-4.813,4.324-7.289,6.096
		c1.148-1.596,2.374-3.602,2.732-5.324c1.029-4.911-2.462-10.532-2.462-10.532s-4.616,3.735-4.835,8.585
		c-0.195,4.318,1.044,7.613,1.771,9.156c-0.95,0.596-1.9,1.155-2.851,1.67c-1.724,1.008-3.407,1.898-5.051,2.699
		c1.354-1.352,2.771-3.019,3.396-4.57c1.901-4.754-0.606-11.021-0.606-11.021s-5.305,2.936-6.383,7.77
		c-0.941,4.212-0.327,7.687,0.129,9.404c-3.012,1.287-5.822,2.251-8.35,2.978c1.581-1.111,3.265-2.512,4.152-3.943
		c2.758-4.439,1.343-11.181,1.343-11.181s-5.848,2.011-7.789,6.678c-1.676,4.034-1.689,7.61-1.54,9.43
		c-5.598,1.269-8.931,1.492-8.931,1.492l0.126,1.244l0.128,1.241c0,0,4.266-0.271,11.192-2.104c0.922,1.536,3.044,4.486,6.85,6.807
		c4.314,2.635,10.231,0.818,10.231,0.818s-2.824-6.283-7.665-8.25c-1.343-0.547-3.15-0.727-4.862-0.749
		c2.428-0.816,5.059-1.849,7.831-3.146c1.14,1.321,3.698,3.827,7.787,5.43c4.613,1.808,10.015-0.954,10.015-0.954
		s-3.797-5.58-8.802-6.653c-1.414-0.306-3.227-0.162-4.908,0.118c0.943-0.506,1.896-1.045,2.856-1.616
		c1.518-0.84,3.043-1.79,4.557-2.836c1.354,1.09,4.227,3.028,8.384,3.867c4.761,0.961,9.504-2.621,9.504-2.621
		s-4.613-4.743-9.631-4.93c-1.356-0.051-3.006,0.356-4.524,0.884c2.143-1.735,4.249-3.664,6.285-5.766
		c1.455,0.816,4.593,2.248,8.827,2.352c4.755,0.115,8.721-4.148,8.721-4.148s-5.259-3.795-10.13-3.121
		c-1.444,0.2-3.126,0.99-4.604,1.844c1.914-2.207,3.741-4.567,5.456-7.065c1.464,0.53,4.83,1.471,9.093,0.825
		c4.608-0.698,7.714-5.485,7.714-5.485s-5.723-2.769-10.31-1.287c-1.49,0.479-3.13,1.689-4.481,2.863
		c1.615-2.613,3.104-5.354,4.428-8.202c1.509,0.263,4.913,0.592,8.909-0.753c4.331-1.459,6.509-6.61,6.509-6.61
		s-5.991-1.695-10.168,0.51c-1.33,0.708-2.688,2.12-3.782,3.46c1.149-2.832,2.14-5.76,2.933-8.765
		C158.771,99.759,162.098,99.491,165.71,97.522z"/>
	<g>
		<g>
			<g>
				<path fill="#010101" d="M44.805,47.282c0-0.65,0.117-1.293,0.353-1.929c0.235-0.635,0.578-1.202,1.028-1.702
					s1-0.904,1.649-1.215c0.65-0.31,1.391-0.465,2.222-0.465c0.979,0,1.827,0.215,2.542,0.646c0.715,0.43,1.248,0.989,1.598,1.68
					l-1.59,1.095c-0.141-0.3-0.311-0.552-0.51-0.757c-0.2-0.205-0.415-0.368-0.646-0.488c-0.229-0.12-0.47-0.207-0.72-0.262
					s-0.495-0.083-0.735-0.083c-0.52,0-0.973,0.105-1.356,0.315c-0.385,0.21-0.706,0.481-0.96,0.816
					c-0.256,0.335-0.448,0.715-0.578,1.141s-0.195,0.848-0.195,1.268c0,0.47,0.075,0.923,0.225,1.358
					c0.15,0.435,0.362,0.816,0.639,1.146c0.274,0.33,0.604,0.595,0.989,0.795c0.386,0.2,0.809,0.3,1.269,0.3
					c0.24,0,0.49-0.029,0.75-0.09c0.26-0.06,0.508-0.154,0.743-0.285c0.233-0.129,0.452-0.297,0.651-0.502
					c0.2-0.205,0.36-0.452,0.48-0.741l1.695,0.975c-0.17,0.4-0.413,0.752-0.729,1.057c-0.314,0.306-0.67,0.563-1.064,0.772
					c-0.396,0.209-0.817,0.37-1.269,0.479c-0.45,0.11-0.89,0.165-1.32,0.165c-0.761,0-1.455-0.16-2.085-0.479
					c-0.63-0.32-1.173-0.737-1.628-1.252c-0.455-0.516-0.81-1.101-1.064-1.755C44.932,48.63,44.805,47.963,44.805,47.282z"/>
				<path fill="#010101" d="M55.741,52.683v-10.65h2.071v8.836h5.43v1.814H55.741z"/>
				<path fill="#010101" d="M64.501,52.683v-10.65h2.07v10.65H64.501z"/>
				<path fill="#010101" d="M68.146,47.282c0-0.65,0.118-1.293,0.352-1.929c0.236-0.635,0.578-1.202,1.027-1.702
					c0.451-0.5,1-0.904,1.649-1.215c0.65-0.31,1.392-0.465,2.222-0.465c0.979,0,1.827,0.215,2.543,0.646
					c0.715,0.43,1.247,0.989,1.598,1.68l-1.592,1.095c-0.139-0.3-0.309-0.552-0.51-0.757c-0.199-0.205-0.414-0.368-0.646-0.488
					c-0.229-0.12-0.471-0.207-0.721-0.262s-0.494-0.083-0.734-0.083c-0.52,0-0.973,0.105-1.356,0.315
					c-0.385,0.21-0.705,0.481-0.959,0.816c-0.256,0.335-0.449,0.715-0.578,1.141c-0.131,0.426-0.195,0.848-0.195,1.268
					c0,0.47,0.074,0.923,0.226,1.358c0.15,0.435,0.362,0.816,0.639,1.146c0.272,0.33,0.604,0.595,0.99,0.795
					c0.385,0.2,0.807,0.3,1.266,0.3c0.24,0,0.49-0.029,0.75-0.09c0.262-0.06,0.508-0.154,0.745-0.285
					c0.234-0.129,0.451-0.297,0.652-0.502c0.198-0.205,0.358-0.452,0.479-0.741l1.696,0.975c-0.17,0.4-0.412,0.752-0.728,1.057
					c-0.314,0.306-0.67,0.563-1.064,0.772c-0.396,0.21-0.818,0.37-1.269,0.479c-0.452,0.11-0.891,0.165-1.32,0.165
					c-0.761,0-1.455-0.16-2.086-0.479c-0.63-0.32-1.173-0.737-1.628-1.252c-0.454-0.516-0.811-1.101-1.063-1.755
					C68.274,48.63,68.146,47.963,68.146,47.282z"/>
				<path fill="#010101" d="M79.083,52.683V42.047h2.07v5.055l4.47-5.069h2.279l-4.08,4.726l4.335,5.925h-2.324l-3.314-4.604
					l-1.365,1.425v3.18H79.083z"/>
				<path fill="#010101" d="M101.493,42.032v10.65h-2.056v-4.545h-4.83v4.545h-2.07v-10.65h2.07v4.305h4.83v-4.305H101.493z"/>
				<path fill="#010101" d="M111.107,50.868v1.814h-7.396v-10.65h7.261v1.814h-5.191v2.565h4.486v1.681h-4.486v2.775H111.107z"/>
				<path fill="#010101" d="M112.728,52.683v-10.65h4.711c0.489,0,0.941,0.103,1.356,0.308s0.772,0.475,1.072,0.81
					s0.535,0.716,0.705,1.141s0.255,0.853,0.255,1.283c0,0.689-0.173,1.317-0.518,1.883c-0.346,0.564-0.813,0.973-1.402,1.223
					l2.43,4.005h-2.324l-2.176-3.569h-2.04v3.569L112.728,52.683L112.728,52.683z M114.798,47.297h2.597
					c0.188,0,0.367-0.045,0.531-0.135c0.165-0.09,0.309-0.212,0.429-0.368c0.12-0.155,0.215-0.337,0.284-0.548
					c0.069-0.21,0.104-0.436,0.104-0.676c0-0.25-0.04-0.479-0.12-0.689s-0.188-0.394-0.322-0.548
					c-0.135-0.155-0.289-0.275-0.465-0.36s-0.353-0.127-0.532-0.127h-2.506V47.297z"/>
				<path fill="#010101" d="M130.099,50.868v1.814h-7.396v-10.65h7.26v1.814h-5.189v2.565h4.484v1.681h-4.484v2.775H130.099z"/>
			</g>
			<g>
				<path fill="#010101" d="M53.821,58.36h-3.462v8.985h-2.09V58.36h-3.464v-1.847h9.017L53.821,58.36L53.821,58.36z"/>
				<path fill="#010101" d="M59.283,67.421c-0.793,0-1.512-0.155-2.158-0.465c-0.646-0.311-1.201-0.723-1.664-1.236
					s-0.821-1.101-1.076-1.762c-0.254-0.661-0.381-1.337-0.381-2.029c0-0.722,0.136-1.413,0.404-2.075
					c0.271-0.661,0.641-1.246,1.114-1.754c0.473-0.509,1.035-0.913,1.686-1.213c0.651-0.3,1.358-0.45,2.121-0.45
					c0.783,0,1.497,0.16,2.145,0.48c0.646,0.32,1.196,0.741,1.654,1.259c0.458,0.519,0.813,1.109,1.068,1.77
					c0.254,0.661,0.381,1.333,0.381,2.015c0,0.722-0.132,1.41-0.396,2.065c-0.265,0.656-0.631,1.236-1.099,1.739
					s-1.027,0.905-1.678,1.205C60.753,67.271,60.046,67.421,59.283,67.421z M56.14,61.929c0,0.468,0.07,0.92,0.213,1.357
					s0.348,0.823,0.618,1.159c0.27,0.337,0.601,0.605,0.991,0.81c0.393,0.204,0.836,0.305,1.335,0.305
					c0.51,0,0.958-0.104,1.351-0.313c0.392-0.209,0.722-0.486,0.992-0.832c0.27-0.347,0.473-0.735,0.609-1.167
					c0.139-0.433,0.206-0.872,0.206-1.319c0-0.467-0.074-0.92-0.221-1.358c-0.147-0.437-0.356-0.823-0.626-1.158
					c-0.271-0.336-0.601-0.604-0.992-0.802c-0.391-0.198-0.831-0.297-1.319-0.297c-0.508,0-0.961,0.104-1.356,0.313
					c-0.397,0.208-0.728,0.481-0.992,0.823c-0.266,0.341-0.466,0.728-0.603,1.159C56.208,61.042,56.14,61.482,56.14,61.929z"/>
				<path fill="#010101" d="M69.855,67.345V56.513h3.936c0.884,0,1.66,0.144,2.326,0.428c0.665,0.285,1.222,0.671,1.67,1.16
					c0.447,0.488,0.783,1.061,1.007,1.716c0.225,0.656,0.336,1.355,0.336,2.098c0,0.823-0.125,1.567-0.375,2.233
					c-0.25,0.667-0.607,1.235-1.075,1.709c-0.469,0.474-1.029,0.838-1.687,1.099c-0.655,0.259-1.39,0.389-2.204,0.389L69.855,67.345
					L69.855,67.345z M77.009,61.914c0-0.52-0.069-0.997-0.214-1.435c-0.142-0.437-0.35-0.813-0.625-1.128
					c-0.274-0.314-0.612-0.56-1.015-0.732c-0.401-0.172-0.857-0.26-1.365-0.26h-1.832v7.14h1.832c0.52,0,0.979-0.091,1.38-0.274
					c0.401-0.183,0.737-0.435,1.006-0.755c0.271-0.32,0.477-0.699,0.617-1.136C76.938,62.896,77.009,62.423,77.009,61.914z"/>
				<path fill="#010101" d="M85.399,67.421c-0.794,0-1.515-0.155-2.159-0.465c-0.646-0.311-1.2-0.723-1.663-1.236
					s-0.821-1.101-1.076-1.762s-0.382-1.337-0.382-2.029c0-0.722,0.135-1.413,0.405-2.075c0.269-0.661,0.641-1.246,1.113-1.754
					c0.474-0.509,1.034-0.913,1.686-1.213c0.65-0.3,1.358-0.45,2.121-0.45c0.782,0,1.496,0.16,2.143,0.48s1.198,0.741,1.655,1.259
					c0.458,0.519,0.814,1.109,1.068,1.77c0.253,0.661,0.382,1.333,0.382,2.015c0,0.722-0.134,1.41-0.397,2.065
					c-0.264,0.656-0.63,1.236-1.098,1.739s-1.027,0.905-1.678,1.205C86.868,67.271,86.162,67.421,85.399,67.421z M82.257,61.929
					c0,0.468,0.07,0.92,0.214,1.357c0.142,0.438,0.348,0.823,0.617,1.159c0.271,0.337,0.601,0.605,0.991,0.81
					c0.393,0.204,0.837,0.305,1.335,0.305c0.509,0,0.959-0.104,1.351-0.313c0.393-0.208,0.723-0.486,0.991-0.832
					c0.27-0.347,0.474-0.735,0.61-1.167c0.137-0.433,0.206-0.872,0.206-1.319c0-0.467-0.074-0.92-0.222-1.358
					c-0.147-0.437-0.356-0.823-0.625-1.158c-0.271-0.336-0.602-0.604-0.991-0.802c-0.394-0.198-0.832-0.297-1.32-0.297
					c-0.509,0-0.961,0.104-1.356,0.313c-0.396,0.209-0.728,0.481-0.991,0.823c-0.267,0.341-0.466,0.728-0.604,1.159
					C82.326,61.042,82.257,61.482,82.257,61.929z"/>
				<path fill="#010101" d="M94.413,60.404v6.941h-2.104V56.513h1.632l5.645,7.109v-7.094h2.105v10.816h-1.708L94.413,60.404z"/>
				<path fill="#010101" d="M107.03,56.513h1.861l4.12,10.832h-2.167l-1.007-2.7h-3.784l-0.991,2.7h-2.166L107.03,56.513z
					 M109.457,63.165l-1.495-4.256l-1.556,4.256H109.457z"/>
				<path fill="#010101" d="M121.234,58.36h-3.463v8.985h-2.089V58.36h-3.465v-1.847h9.018L121.234,58.36L121.234,58.36z"/>
				<path fill="#010101" d="M130.096,65.499v1.846h-7.521V56.513h7.383v1.847h-5.278v2.608h4.561v1.709h-4.561v2.821L130.096,65.499
					L130.096,65.499z"/>
			</g>
		</g>
		<g>
			<path fill="#010101" d="M47.443,83.06c-0.417,0-0.788-0.082-1.114-0.248c-0.326-0.164-0.603-0.387-0.831-0.666
				c-0.227-0.278-0.398-0.604-0.518-0.979c-0.118-0.373-0.177-0.77-0.177-1.186c0-0.596,0.113-1.17,0.34-1.725
				c0.227-0.554,0.526-1.042,0.9-1.469s0.81-0.768,1.307-1.021c0.497-0.256,1.015-0.383,1.554-0.383
				c0.568,0,1.038,0.154,1.412,0.461c0.373,0.308,0.641,0.688,0.801,1.142l0.327-1.476h1.249l-1.249,5.875
				c-0.01,0.039-0.018,0.072-0.021,0.1c-0.005,0.029-0.008,0.058-0.008,0.084c0,0.173,0.104,0.263,0.313,0.271l-0.228,1.078
				c-0.104,0.02-0.196,0.033-0.275,0.043c-0.081,0.01-0.154,0.014-0.221,0.014c-0.265,0-0.466-0.059-0.603-0.178
				c-0.137-0.117-0.206-0.271-0.206-0.461c0-0.152,0.043-0.422,0.128-0.81c-0.369,0.482-0.814,0.859-1.334,1.13
				C48.47,82.925,47.954,83.06,47.443,83.06z M47.982,81.981c0.208,0,0.433-0.041,0.674-0.127c0.242-0.084,0.478-0.203,0.709-0.354
				c0.232-0.152,0.442-0.33,0.631-0.533c0.189-0.203,0.332-0.42,0.426-0.646l0.44-2.129c-0.028-0.235-0.099-0.461-0.213-0.674
				c-0.113-0.213-0.253-0.396-0.418-0.553c-0.166-0.156-0.351-0.279-0.553-0.369c-0.204-0.09-0.414-0.135-0.632-0.135
				c-0.396,0-0.771,0.097-1.122,0.291c-0.35,0.193-0.659,0.45-0.93,0.767c-0.27,0.317-0.481,0.674-0.638,1.071
				c-0.156,0.396-0.234,0.795-0.234,1.193c0,0.303,0.042,0.589,0.128,0.857c0.085,0.271,0.21,0.504,0.376,0.702
				c0.165,0.199,0.362,0.355,0.589,0.469C47.443,81.926,47.699,81.981,47.982,81.981z"/>
			<path fill="#010101" d="M54.879,75.51h1.136l-0.342,1.59c0.389-0.52,0.875-0.938,1.462-1.249
				c0.588-0.313,1.192-0.468,1.816-0.468c0.596,0,1.015,0.158,1.256,0.475c0.241,0.317,0.362,0.741,0.362,1.271
				c0,0.208-0.017,0.426-0.05,0.653s-0.073,0.464-0.12,0.709l-0.938,4.429h-1.249l0.879-4.146c0.086-0.406,0.129-0.762,0.129-1.063
				c0-0.804-0.336-1.206-1.008-1.206c-0.235,0-0.484,0.05-0.745,0.148c-0.26,0.1-0.513,0.234-0.76,0.405
				c-0.246,0.17-0.473,0.374-0.681,0.61s-0.383,0.497-0.525,0.78l-0.951,4.471h-1.247L54.879,75.51z"/>
			<path fill="#010101" d="M64.372,83.06c-0.417,0-0.788-0.082-1.114-0.248c-0.325-0.164-0.603-0.387-0.829-0.666
				c-0.228-0.278-0.399-0.604-0.519-0.979c-0.118-0.373-0.177-0.77-0.177-1.186c0-0.596,0.113-1.17,0.34-1.725
				c0.227-0.554,0.527-1.042,0.901-1.469s0.809-0.768,1.306-1.021c0.497-0.256,1.015-0.383,1.554-0.383
				c0.568,0,1.038,0.154,1.412,0.461c0.373,0.308,0.641,0.688,0.801,1.142l0.952-4.428h1.249l-1.874,8.827
				c-0.009,0.039-0.017,0.072-0.021,0.1c-0.003,0.029-0.005,0.058-0.005,0.084c0,0.173,0.104,0.263,0.312,0.271l-0.227,1.078
				c-0.105,0.02-0.198,0.033-0.277,0.043c-0.081,0.01-0.153,0.014-0.22,0.014c-0.266,0-0.465-0.059-0.604-0.178
				c-0.138-0.117-0.206-0.271-0.206-0.461c0-0.084,0.011-0.189,0.029-0.313s0.051-0.287,0.099-0.496
				c-0.369,0.482-0.813,0.859-1.333,1.13C65.398,82.925,64.883,83.06,64.372,83.06z M64.911,81.981c0.208,0,0.434-0.041,0.674-0.127
				c0.242-0.084,0.479-0.203,0.709-0.354c0.232-0.152,0.442-0.33,0.631-0.533c0.189-0.203,0.332-0.42,0.427-0.646l0.439-2.129
				c-0.027-0.235-0.1-0.461-0.212-0.674c-0.114-0.213-0.253-0.396-0.419-0.553c-0.165-0.156-0.35-0.279-0.553-0.369
				s-0.414-0.135-0.631-0.135c-0.397,0-0.771,0.097-1.121,0.291c-0.351,0.193-0.659,0.45-0.93,0.767
				c-0.27,0.317-0.481,0.674-0.638,1.071c-0.156,0.396-0.233,0.795-0.233,1.193c0,0.303,0.042,0.589,0.127,0.857
				c0.085,0.271,0.211,0.504,0.376,0.702c0.166,0.199,0.361,0.355,0.589,0.469C64.372,81.925,64.627,81.981,64.911,81.981z"/>
			<path fill="#010101" d="M76.135,86.083c-0.794,0-1.414-0.146-1.858-0.441c-0.445-0.293-0.78-0.688-1.008-1.19l0.852-0.64
				c0.189,0.437,0.479,0.765,0.866,0.98c0.388,0.217,0.837,0.326,1.348,0.326c0.321,0,0.637-0.048,0.944-0.144
				c0.307-0.094,0.588-0.235,0.843-0.426c0.256-0.189,0.477-0.426,0.661-0.709c0.184-0.285,0.319-0.619,0.404-1.006l0.27-1.308
				c-0.35,0.453-0.777,0.813-1.284,1.078c-0.506,0.265-1.01,0.398-1.512,0.398c-0.396,0-0.753-0.082-1.07-0.242
				c-0.317-0.162-0.585-0.381-0.802-0.66c-0.218-0.278-0.383-0.602-0.497-0.964c-0.114-0.364-0.17-0.75-0.17-1.157
				c0-0.596,0.114-1.17,0.341-1.725c0.227-0.554,0.532-1.042,0.915-1.469s0.828-0.768,1.334-1.021
				c0.506-0.256,1.039-0.383,1.598-0.383c0.586,0,1.062,0.151,1.426,0.455c0.364,0.302,0.646,0.686,0.845,1.148l0.313-1.476h1.105
				l-1.561,7.325c-0.114,0.526-0.306,0.994-0.575,1.396c-0.271,0.402-0.596,0.74-0.979,1.015s-0.812,0.481-1.283,0.625
				C77.124,86.013,76.637,86.083,76.135,86.083z M77.271,81.981c0.246,0,0.494-0.047,0.745-0.141
				c0.25-0.096,0.487-0.221,0.709-0.377c0.223-0.156,0.421-0.333,0.596-0.532c0.176-0.199,0.311-0.402,0.405-0.61l0.455-2.129
				c-0.038-0.255-0.114-0.486-0.229-0.694c-0.113-0.208-0.251-0.391-0.413-0.546c-0.161-0.156-0.344-0.276-0.553-0.361
				c-0.208-0.085-0.425-0.128-0.652-0.128c-0.406,0-0.788,0.102-1.143,0.305c-0.354,0.204-0.664,0.464-0.929,0.78
				c-0.266,0.317-0.474,0.674-0.625,1.071c-0.151,0.396-0.228,0.787-0.228,1.165c0,0.303,0.044,0.587,0.135,0.851
				c0.089,0.267,0.214,0.497,0.376,0.696c0.161,0.198,0.354,0.356,0.581,0.477C76.731,81.923,76.987,81.981,77.271,81.981z"/>
			<path fill="#010101" d="M85.685,83.06c-0.464,0-0.874-0.08-1.233-0.24c-0.36-0.159-0.666-0.383-0.915-0.668
				c-0.251-0.282-0.439-0.614-0.566-0.992c-0.13-0.377-0.192-0.785-0.192-1.221c0-0.596,0.114-1.169,0.341-1.718
				c0.228-0.549,0.545-1.034,0.951-1.455s0.883-0.757,1.432-1.007c0.548-0.251,1.146-0.376,1.789-0.376
				c0.729,0,1.316,0.168,1.767,0.503c0.448,0.336,0.675,0.835,0.675,1.498c0,0.757-0.329,1.327-0.987,1.71
				c-0.657,0.383-1.675,0.576-3.057,0.576c-0.228,0-0.48-0.005-0.759-0.015c-0.279-0.011-0.569-0.028-0.872-0.057
				c-0.011,0.057-0.016,0.112-0.016,0.17s0,0.108,0,0.155c0,0.294,0.038,0.572,0.114,0.838c0.075,0.265,0.188,0.499,0.34,0.702
				c0.151,0.205,0.344,0.365,0.574,0.481c0.233,0.119,0.505,0.179,0.817,0.179c0.434,0,0.859-0.111,1.275-0.334
				c0.416-0.222,0.743-0.523,0.979-0.901l1.007,0.299c-0.17,0.274-0.383,0.524-0.639,0.752c-0.257,0.228-0.535,0.422-0.839,0.588
				c-0.301,0.166-0.62,0.298-0.957,0.392C86.377,83.013,86.036,83.06,85.685,83.06z M87.175,76.319
				c-0.407,0-0.773,0.069-1.101,0.206c-0.325,0.138-0.61,0.319-0.85,0.546c-0.242,0.229-0.445,0.485-0.611,0.774
				c-0.164,0.289-0.296,0.583-0.39,0.887c0.283,0.029,0.551,0.047,0.802,0.057s0.483,0.015,0.702,0.015
				c0.539,0,0.992-0.035,1.355-0.105c0.363-0.071,0.659-0.171,0.888-0.299c0.227-0.128,0.39-0.278,0.488-0.454
				c0.099-0.175,0.147-0.366,0.147-0.574c0-0.359-0.129-0.624-0.391-0.794C87.957,76.406,87.61,76.319,87.175,76.319z"/>
			<path fill="#010101" d="M92.184,83.019c-0.388,0-0.707-0.09-0.958-0.27c-0.249-0.181-0.375-0.469-0.375-0.867
				c0-0.131,0.015-0.271,0.043-0.41l1.063-4.981h-0.964l0.212-0.979h0.95l0.526-2.469h1.247l-0.524,2.469h1.577l-0.213,0.979h-1.563
				l-0.979,4.599c-0.02,0.094-0.03,0.166-0.03,0.211c0,0.201,0.063,0.344,0.186,0.434c0.123,0.091,0.275,0.136,0.454,0.136
				c0.236,0,0.458-0.039,0.667-0.121c0.209-0.078,0.354-0.144,0.439-0.191l0.072,0.994c-0.173,0.123-0.426,0.232-0.761,0.326
				C92.919,82.972,92.563,83.019,92.184,83.019z"/>
			<path fill="#010101" d="M100.953,83.06c-1.154,0-1.729-0.623-1.729-1.872c0-0.331,0.051-0.743,0.153-1.233l0.952-4.443h1.234
				l-0.896,4.201c-0.085,0.389-0.128,0.715-0.128,0.979c0,0.861,0.37,1.291,1.107,1.291c0.473,0,0.953-0.162,1.438-0.487
				c0.488-0.328,0.898-0.775,1.229-1.343l0.979-4.641h1.249l-1.249,5.875c-0.009,0.039-0.017,0.072-0.021,0.1
				c-0.004,0.029-0.008,0.058-0.008,0.084c0,0.173,0.104,0.263,0.313,0.271l-0.228,1.078c-0.104,0.02-0.195,0.033-0.275,0.043
				c-0.081,0.01-0.155,0.014-0.22,0.014c-0.257,0-0.451-0.057-0.582-0.172c-0.133-0.111-0.199-0.264-0.199-0.453
				c0-0.084,0.009-0.199,0.029-0.348c0.019-0.146,0.061-0.371,0.128-0.674c-0.427,0.559-0.929,0.985-1.504,1.285
				C102.148,82.911,101.557,83.06,100.953,83.06z"/>
			<path fill="#010101" d="M109.609,83.06c-0.567,0-1.106-0.09-1.618-0.274c-0.511-0.187-0.926-0.453-1.25-0.804l0.709-0.836
				c0.342,0.331,0.701,0.579,1.08,0.745s0.795,0.248,1.249,0.248c0.567,0,1.025-0.127,1.377-0.383
				c0.349-0.254,0.524-0.596,0.524-1.022c0-0.303-0.142-0.523-0.418-0.667c-0.28-0.142-0.704-0.288-1.271-0.438
				c-0.35-0.094-0.652-0.188-0.907-0.283c-0.257-0.095-0.47-0.205-0.64-0.328s-0.298-0.263-0.383-0.418
				c-0.085-0.156-0.127-0.343-0.127-0.561c0-0.416,0.089-0.788,0.268-1.113c0.182-0.327,0.42-0.604,0.717-0.831
				c0.301-0.228,0.645-0.402,1.037-0.525s0.802-0.184,1.228-0.184c0.529,0,1.003,0.09,1.419,0.269
				c0.417,0.182,0.758,0.417,1.021,0.711l-0.723,0.752c-0.247-0.274-0.537-0.48-0.874-0.618s-0.693-0.206-1.072-0.206
				c-0.245,0-0.475,0.027-0.688,0.085c-0.212,0.057-0.402,0.145-0.566,0.263c-0.167,0.119-0.296,0.269-0.391,0.447
				c-0.097,0.18-0.143,0.388-0.143,0.624c0,0.265,0.11,0.459,0.332,0.582c0.223,0.124,0.58,0.251,1.072,0.384
				c0.388,0.104,0.73,0.208,1.028,0.313c0.298,0.104,0.547,0.225,0.746,0.361c0.198,0.139,0.348,0.294,0.446,0.47
				c0.101,0.176,0.149,0.385,0.149,0.632c0,0.388-0.083,0.739-0.249,1.057c-0.165,0.316-0.396,0.592-0.688,0.822
				c-0.294,0.231-0.646,0.412-1.057,0.541C110.539,82.997,110.092,83.06,109.609,83.06z"/>
			<path fill="#010101" d="M119.625,83.019c-0.388,0-0.706-0.09-0.957-0.27c-0.251-0.181-0.377-0.469-0.377-0.867
				c0-0.131,0.016-0.271,0.043-0.41l1.063-4.981h-0.964l0.212-0.979h0.952l0.523-2.469h1.249l-0.523,2.469h1.573l-0.213,0.979
				h-1.562l-0.979,4.599c-0.019,0.094-0.027,0.166-0.027,0.211c0,0.201,0.062,0.344,0.185,0.434
				c0.122,0.091,0.273,0.136,0.455,0.136c0.236,0,0.458-0.039,0.667-0.121c0.207-0.078,0.354-0.144,0.438-0.191l0.07,0.994
				c-0.17,0.123-0.423,0.232-0.76,0.326C120.361,82.972,120.004,83.019,119.625,83.019z"/>
			<path fill="#010101" d="M125.601,83.06c-0.455,0-0.859-0.082-1.214-0.248c-0.355-0.164-0.652-0.387-0.896-0.666
				c-0.24-0.278-0.423-0.604-0.545-0.979c-0.124-0.373-0.185-0.772-0.185-1.199c0-0.595,0.117-1.168,0.354-1.717
				c0.236-0.548,0.558-1.035,0.964-1.461c0.407-0.427,0.882-0.768,1.427-1.021c0.543-0.256,1.118-0.383,1.725-0.383
				c0.455,0,0.858,0.083,1.214,0.248c0.354,0.165,0.654,0.388,0.9,0.667c0.244,0.279,0.432,0.608,0.562,0.986
				c0.127,0.379,0.19,0.78,0.19,1.206c0,0.587-0.118,1.154-0.355,1.703c-0.236,0.55-0.56,1.036-0.972,1.462
				c-0.412,0.428-0.89,0.768-1.433,1.021C126.794,82.933,126.214,83.06,125.601,83.06z M125.841,81.981
				c0.369,0,0.729-0.09,1.079-0.27c0.35-0.178,0.665-0.42,0.943-0.723c0.279-0.304,0.503-0.654,0.673-1.059
				c0.172-0.401,0.257-0.831,0.257-1.285c0-0.313-0.043-0.601-0.128-0.866c-0.085-0.265-0.207-0.493-0.36-0.688
				c-0.157-0.194-0.347-0.348-0.567-0.461c-0.224-0.114-0.468-0.17-0.732-0.17c-0.358,0-0.717,0.09-1.07,0.27
				c-0.354,0.181-0.671,0.423-0.949,0.731c-0.279,0.308-0.505,0.665-0.675,1.071s-0.255,0.833-0.255,1.277
				c0,0.313,0.043,0.602,0.128,0.865c0.085,0.266,0.205,0.495,0.36,0.688c0.155,0.194,0.343,0.346,0.562,0.454
				C125.322,81.929,125.568,81.981,125.841,81.981z"/>
		</g>
		<g>
			<path d="M58.741,91.139c4.717,0,10.243,0.458,12.482,0.688c-1.525,1.051-3.335,1.147-4.622,1.147c-2.001,0-3.717,0-5.193,0.035
				c-0.618,2.296-3.144,12.008-4.716,16.371c-1.048,2.822-2.239,4.791-4.002,5.611c3.288,0.131,7.337,0.591,10.339,0.623
				c-1.858,1.279-4.049,1.411-5.384,1.411c-5.146,0.033-9.719-0.064-14.34,0.559c0.334-2.396,3.764-2.625,7.766-2.625
				c3.478-5.151,6.717-18.111,8.671-21.949c-4.955,0.064-7.194,0.195-10.72,0.654C49.45,91.992,52.31,91.139,58.741,91.139z"/>
			<path d="M79.373,104.821c-3.476,0.265-6.24,0.395-8.384,0.395h-0.714c-1.478,2.329-2.621,4.824-2.621,7.153
				c0,1.902,0.763,2.625,2.668,2.625c3.288,0,6.622-2.165,9.051-5.611l0.62,0.328c-2.286,3.708-6.574,6.498-11.052,6.498
				c-2.765,0-4.24-1.083-4.24-3.248c0-1.938,1.145-4.922,2.764-7.908c-0.619-0.064-1.191-0.131-1.716-0.261V104.2
				c0.479,0.032,1.193,0.099,2.098,0.131c2.667-4.726,6.335-9.221,8.288-9.221c0.479,0,1.002,0.263,1.002,0.723
				c0,1.147-3.572,4.561-6.337,8.596h1.764c2.096,0,4.431-0.032,6.812-0.196v0.588H79.373z"/>
			<path d="M93.765,108.563c0,0.754-2.764,2.985-2.764,4.561c0,0.655,0.477,1.443,1.619,1.443c1.715,0,4.766-1.706,7.622-5.185
				l0.479,0.328c-2.001,3.546-6.052,5.973-9.435,5.973c-2.333,0-3.429-1.149-3.429-2.296c0-0.263,0.047-0.591,0.142-0.951
				c-2.764,2.525-4.86,3.807-7.193,3.807c-2.001,0-3.526-0.887-3.526-2.725c0-3.904,7.003-10.073,13.197-10.073
				c2.478,0,4.336,0.984,4.336,2.462c0,1.083-0.953,1.41-2.335,1.41c0.142-0.362,0.237-0.789,0.237-1.147
				c0-0.986-0.62-1.838-2.335-1.838c-4.478,0-9.813,6.104-9.813,9.285c0,0.886,0.428,1.279,1.287,1.279
				c2.954,0,7.67-4.791,10.005-7.152C92.43,107.807,93.765,108.069,93.765,108.563z"/>
			<path d="M103.2,108.792c-0.382,1.181-0.619,2.331-0.619,3.313c0,1.707,0.714,2.527,2.095,2.527c2.525,0,5.193-2.689,6.862-5.25
				l0.714,0.263c-2.524,3.741-5.526,6.037-8.957,6.037c-2.715,0-3.812-1.445-3.812-3.38c0-6.299,11.577-21.228,14.815-21.228
				c1,0,1.573,1.509,1.573,2.429C115.873,96.421,110.156,104.821,103.2,108.792z M103.63,107.676
				c5.525-3.839,10.767-11.222,10.767-13.42c0-0.426-0.19-0.525-0.334-0.525C112.777,93.731,106.25,101.344,103.63,107.676z"/>
			<path d="M122.21,114.959c2.956-0.787,6.053-2.56,7.863-5.578l0.618,0.328c-1.427,3.15-5.478,5.02-9.003,6.137
				c-2.479,4.199-5.717,8.039-9.005,8.039c-1.621,0-3.002-0.59-3.002-1.739c0-2.788,4.431-4.266,9.242-5.938
				c0.904-1.608,1.812-3.609,2.667-6.004c-2.049,2.296-4.382,4.167-6.956,4.167c-1.856,0-3.81-0.82-3.81-2.658
				c0-2.429,2.81-7.153,4.192-7.153c0.38,0,2.095,0.361,2.095,0.754c-1.095,1.116-3.145,4.66-3.145,6.433
				c0,0.786,0.429,1.313,1.716,1.313c1.811,0,4.431-2.037,6.337-4.2c0.188-0.491,0.333-0.983,0.475-1.511
				c0.192-0.623,0.858-1.671,2.431-1.671c0.286,0,0.618,0.032,1,0.098C125.929,106.855,124.452,110.99,122.21,114.959z
				 M118.449,116.993c-3.955,1.444-7.29,2.689-7.29,4.856c0,0.361,0.334,0.984,1.287,0.984S115.875,121.325,118.449,116.993z"/>
		</g>
	</g>
	<g>
		<g>
			<g>
				<path fill="#FFFFFF" d="M44.088,46.56c0-0.65,0.117-1.293,0.353-1.929c0.235-0.635,0.578-1.202,1.028-1.702s1-0.904,1.649-1.215
					c0.65-0.31,1.391-0.465,2.222-0.465c0.979,0,1.827,0.215,2.542,0.646c0.715,0.43,1.248,0.989,1.598,1.68l-1.59,1.095
					c-0.141-0.3-0.311-0.552-0.51-0.757c-0.2-0.205-0.415-0.368-0.646-0.488c-0.229-0.12-0.47-0.207-0.72-0.262
					s-0.495-0.083-0.735-0.083c-0.52,0-0.973,0.105-1.356,0.315c-0.385,0.21-0.706,0.481-0.96,0.816
					c-0.256,0.335-0.448,0.715-0.578,1.141s-0.195,0.848-0.195,1.268c0,0.47,0.075,0.923,0.225,1.358
					c0.15,0.435,0.362,0.816,0.639,1.146c0.274,0.33,0.604,0.595,0.989,0.795c0.386,0.2,0.809,0.3,1.269,0.3
					c0.24,0,0.49-0.029,0.75-0.09c0.26-0.06,0.508-0.154,0.743-0.285c0.233-0.129,0.452-0.297,0.651-0.502
					c0.2-0.205,0.36-0.452,0.48-0.741l1.695,0.975c-0.17,0.4-0.413,0.752-0.729,1.057c-0.314,0.306-0.67,0.563-1.064,0.772
					c-0.396,0.209-0.817,0.37-1.269,0.479c-0.45,0.11-0.89,0.165-1.32,0.165c-0.761,0-1.455-0.16-2.085-0.479
					c-0.63-0.32-1.173-0.737-1.628-1.252c-0.455-0.516-0.81-1.101-1.064-1.755C44.215,47.907,44.088,47.24,44.088,46.56z"/>
				<path fill="#FFFFFF" d="M55.023,51.96V41.31h2.071v8.836h5.43v1.814H55.023z"/>
				<path fill="#FFFFFF" d="M63.783,51.96V41.31h2.07v10.65H63.783z"/>
				<path fill="#FFFFFF" d="M67.428,46.56c0-0.65,0.118-1.293,0.352-1.929c0.236-0.635,0.578-1.202,1.027-1.702
					c0.451-0.5,1-0.904,1.649-1.215c0.65-0.31,1.392-0.465,2.222-0.465c0.979,0,1.827,0.215,2.543,0.646
					c0.715,0.43,1.247,0.989,1.598,1.68l-1.592,1.095c-0.139-0.3-0.309-0.552-0.51-0.757c-0.199-0.205-0.414-0.368-0.646-0.488
					c-0.229-0.12-0.471-0.207-0.721-0.262s-0.494-0.083-0.734-0.083c-0.52,0-0.973,0.105-1.356,0.315
					c-0.385,0.21-0.705,0.481-0.959,0.816c-0.256,0.335-0.449,0.715-0.578,1.141c-0.131,0.426-0.195,0.848-0.195,1.268
					c0,0.47,0.074,0.923,0.226,1.358c0.15,0.435,0.362,0.816,0.639,1.146c0.272,0.33,0.604,0.595,0.99,0.795
					c0.385,0.2,0.807,0.3,1.266,0.3c0.24,0,0.49-0.029,0.75-0.09c0.262-0.06,0.508-0.154,0.745-0.285
					c0.234-0.129,0.451-0.297,0.652-0.502c0.198-0.205,0.358-0.452,0.479-0.741l1.696,0.975c-0.17,0.4-0.412,0.752-0.728,1.057
					c-0.314,0.306-0.67,0.563-1.064,0.772c-0.396,0.21-0.818,0.37-1.269,0.479c-0.452,0.11-0.891,0.165-1.32,0.165
					c-0.761,0-1.455-0.16-2.086-0.479c-0.63-0.32-1.173-0.737-1.628-1.252c-0.454-0.516-0.811-1.101-1.063-1.755
					C67.556,47.907,67.428,47.24,67.428,46.56z"/>
				<path fill="#FFFFFF" d="M78.365,51.96V41.324h2.07v5.055l4.47-5.069h2.279l-4.08,4.726l4.335,5.925h-2.324l-3.314-4.604
					l-1.365,1.425v3.18H78.365z"/>
				<path fill="#FFFFFF" d="M100.775,41.31v10.65h-2.056v-4.545h-4.83v4.545h-2.07V41.31h2.07v4.305h4.83V41.31H100.775z"/>
				<path fill="#FFFFFF" d="M110.389,50.146v1.814h-7.396V41.31h7.261v1.814h-5.191v2.565h4.486v1.681h-4.486v2.775H110.389z"/>
				<path fill="#FFFFFF" d="M112.01,51.96V41.31h4.711c0.489,0,0.941,0.103,1.356,0.308s0.772,0.475,1.072,0.81
					s0.535,0.716,0.705,1.141s0.255,0.853,0.255,1.283c0,0.689-0.173,1.317-0.518,1.883c-0.346,0.564-0.813,0.973-1.402,1.223
					l2.43,4.005h-2.324l-2.176-3.569h-2.04v3.569L112.01,51.96L112.01,51.96z M114.08,46.574h2.597c0.188,0,0.367-0.045,0.531-0.135
					c0.165-0.09,0.309-0.212,0.429-0.368c0.12-0.155,0.215-0.337,0.284-0.548c0.069-0.21,0.104-0.436,0.104-0.676
					c0-0.25-0.04-0.479-0.12-0.689s-0.188-0.394-0.322-0.548c-0.135-0.155-0.289-0.275-0.465-0.36s-0.353-0.127-0.532-0.127h-2.506
					V46.574z"/>
				<path fill="#FFFFFF" d="M129.382,50.146v1.814h-7.396V41.31h7.26v1.814h-5.189v2.565h4.484v1.681h-4.484v2.775H129.382z"/>
			</g>
			<g>
				<path fill="#FFFFFF" d="M53.103,57.637h-3.462v8.985h-2.09v-8.985h-3.464V55.79h9.017L53.103,57.637L53.103,57.637z"/>
				<path fill="#FFFFFF" d="M58.565,66.698c-0.793,0-1.512-0.155-2.158-0.465c-0.646-0.311-1.201-0.723-1.664-1.236
					s-0.821-1.101-1.076-1.762c-0.254-0.661-0.381-1.337-0.381-2.029c0-0.722,0.136-1.413,0.404-2.075
					c0.271-0.661,0.641-1.246,1.114-1.754c0.473-0.509,1.035-0.913,1.686-1.213c0.651-0.3,1.358-0.45,2.121-0.45
					c0.783,0,1.497,0.16,2.145,0.48c0.646,0.32,1.196,0.741,1.654,1.259c0.458,0.519,0.813,1.109,1.068,1.77
					c0.254,0.661,0.381,1.333,0.381,2.015c0,0.722-0.132,1.41-0.396,2.065c-0.265,0.656-0.631,1.236-1.099,1.739
					s-1.027,0.905-1.678,1.205C60.035,66.548,59.328,66.698,58.565,66.698z M55.423,61.206c0,0.468,0.07,0.92,0.213,1.357
					s0.348,0.823,0.618,1.159c0.27,0.337,0.601,0.605,0.991,0.81c0.393,0.204,0.836,0.305,1.335,0.305
					c0.51,0,0.958-0.104,1.351-0.313c0.392-0.209,0.722-0.486,0.992-0.832c0.27-0.347,0.473-0.735,0.609-1.167
					c0.139-0.433,0.206-0.872,0.206-1.319c0-0.467-0.074-0.92-0.221-1.358c-0.147-0.437-0.356-0.823-0.626-1.158
					c-0.271-0.336-0.601-0.604-0.992-0.802c-0.391-0.198-0.831-0.297-1.319-0.297c-0.508,0-0.961,0.104-1.356,0.313
					c-0.397,0.208-0.728,0.481-0.992,0.823c-0.266,0.341-0.466,0.728-0.603,1.159C55.49,60.32,55.423,60.759,55.423,61.206z"/>
				<path fill="#FFFFFF" d="M69.137,66.622V55.79h3.936c0.884,0,1.66,0.144,2.326,0.428c0.665,0.285,1.222,0.671,1.67,1.16
					c0.447,0.488,0.783,1.061,1.007,1.716c0.225,0.656,0.336,1.355,0.336,2.098c0,0.823-0.125,1.567-0.375,2.233
					c-0.25,0.667-0.607,1.235-1.075,1.709c-0.469,0.474-1.029,0.838-1.687,1.099c-0.655,0.259-1.39,0.389-2.204,0.389L69.137,66.622
					L69.137,66.622z M76.291,61.192c0-0.52-0.069-0.997-0.214-1.435c-0.142-0.437-0.35-0.813-0.625-1.128
					c-0.274-0.314-0.612-0.56-1.015-0.732c-0.401-0.172-0.857-0.26-1.365-0.26H71.24v7.14h1.832c0.52,0,0.979-0.091,1.38-0.274
					c0.401-0.183,0.737-0.435,1.006-0.755c0.271-0.32,0.477-0.699,0.617-1.136C76.22,62.173,76.291,61.7,76.291,61.192z"/>
				<path fill="#FFFFFF" d="M84.681,66.698c-0.794,0-1.515-0.155-2.159-0.465c-0.646-0.311-1.2-0.723-1.663-1.236
					s-0.821-1.101-1.076-1.762s-0.382-1.337-0.382-2.029c0-0.722,0.135-1.413,0.405-2.075c0.269-0.661,0.641-1.246,1.113-1.754
					c0.474-0.509,1.034-0.913,1.686-1.213c0.65-0.3,1.358-0.45,2.121-0.45c0.782,0,1.496,0.16,2.143,0.48s1.198,0.741,1.655,1.259
					c0.458,0.519,0.814,1.109,1.068,1.77c0.253,0.661,0.382,1.333,0.382,2.015c0,0.722-0.134,1.41-0.397,2.065
					c-0.264,0.656-0.63,1.236-1.098,1.739s-1.027,0.905-1.678,1.205C86.15,66.548,85.444,66.698,84.681,66.698z M81.539,61.206
					c0,0.468,0.07,0.92,0.214,1.357c0.142,0.438,0.348,0.823,0.617,1.159c0.271,0.337,0.601,0.605,0.991,0.81
					c0.393,0.204,0.837,0.305,1.335,0.305c0.509,0,0.959-0.104,1.351-0.313c0.393-0.208,0.723-0.486,0.991-0.832
					c0.27-0.347,0.474-0.735,0.61-1.167c0.137-0.433,0.206-0.872,0.206-1.319c0-0.467-0.074-0.92-0.222-1.358
					c-0.147-0.437-0.356-0.823-0.625-1.158c-0.271-0.336-0.602-0.604-0.991-0.802c-0.394-0.198-0.832-0.297-1.32-0.297
					c-0.509,0-0.961,0.104-1.356,0.313c-0.396,0.209-0.728,0.481-0.991,0.823c-0.267,0.341-0.466,0.728-0.604,1.159
					C81.608,60.32,81.539,60.759,81.539,61.206z"/>
				<path fill="#FFFFFF" d="M93.695,59.681v6.941h-2.104V55.79h1.632l5.645,7.109v-7.094h2.105v10.816h-1.708L93.695,59.681z"/>
				<path fill="#FFFFFF" d="M106.312,55.79h1.861l4.12,10.832h-2.167l-1.007-2.7h-3.784l-0.991,2.7h-2.166L106.312,55.79z
					 M108.739,62.443l-1.495-4.256l-1.556,4.256H108.739z"/>
				<path fill="#FFFFFF" d="M120.516,57.637h-3.463v8.985h-2.089v-8.985H111.5V55.79h9.018L120.516,57.637L120.516,57.637z"/>
				<path fill="#FFFFFF" d="M129.379,64.777v1.846h-7.521V55.79h7.383v1.847h-5.278v2.608h4.561v1.709h-4.561v2.821L129.379,64.777
					L129.379,64.777z"/>
			</g>
		</g>
	</g>
</g>
</svg>
