<?xml version="1.0" encoding="utf-8"?>
<!-- Generator: Adobe Illustrator 16.0.0, SVG Export Plug-In . SVG Version: 6.00 Build 0)  -->
<!DOCTYPE svg PUBLIC "-//W3C//DTD SVG 1.1//EN" "http://www.w3.org/Graphics/SVG/1.1/DTD/svg11.dtd">
<svg version="1.1" id="Layer_1" xmlns="http://www.w3.org/2000/svg" xmlns:xlink="http://www.w3.org/1999/xlink" x="0px" y="0px"
	 width="36px" height="36px" viewBox="0 0 36 36" enable-background="new 0 0 36 36" xml:space="preserve">
<g id="Layer_1_2_">
	<g>
		<path fill="#FFFFFF" d="M15.624,19.93c0.262,0.375,0.394,0.821,0.394,1.338c0,0.525-0.131,0.972-0.394,1.338
			c-0.271,0.369-0.595,0.552-0.971,0.552s-0.696-0.185-0.958-0.552c-0.271-0.366-0.407-0.813-0.407-1.338
			c0-0.517,0.135-0.961,0.407-1.338c0.262-0.369,0.582-0.552,0.958-0.552C15.028,19.378,15.352,19.563,15.624,19.93z M23.971,18.459
			c-0.535-0.49-1.379-0.731-2.533-0.722c-1.453,0.104-2.59,0.157-3.414,0.157h-0.065c-1.601-0.105-2.738-0.157-3.412-0.157
			c-1.155-0.009-2,0.231-2.533,0.722c-0.726,0.665-1.089,1.492-1.089,2.48c0,1.767,0.678,2.97,2.035,3.608
			c1.006,0.481,2.673,0.722,5,0.722h0.065c2.329,0,3.999-0.24,5.014-0.722c1.355-0.639,2.034-1.842,2.034-3.608
			C25.073,19.96,24.706,19.133,23.971,18.459z M20.361,22.605c-0.264-0.366-0.395-0.813-0.395-1.338
			c0-0.517,0.131-0.961,0.395-1.338c0.271-0.369,0.595-0.552,0.971-0.552s0.695,0.185,0.958,0.552
			c0.271,0.375,0.407,0.821,0.407,1.338c0,0.525-0.137,0.972-0.407,1.338c-0.263,0.369-0.582,0.552-0.958,0.552
			C20.956,23.158,20.632,22.975,20.361,22.605z M25.414,9.811c0.368,0.927,0.604,1.916,0.708,2.966
			c0.079,0.858,0.065,1.422-0.039,1.693c1.05,1.137,1.575,2.489,1.575,4.056c0,3.22-1.111,5.441-3.333,6.666
			c-1.208,0.666-2.712,0.998-4.515,0.998h-3.636c-1.803,0-3.308-0.332-4.515-0.998c-2.213-1.225-3.32-3.446-3.32-6.666
			c0-1.575,0.521-2.927,1.562-4.056c-0.105-0.271-0.118-0.835-0.04-1.693c0.105-1.05,0.341-2.039,0.709-2.966l1.313,0.354
			c1.111,0.402,2.266,1.015,3.464,1.837c0.586-0.167,1.47-0.25,2.651-0.25c1.172,0,2.052,0.083,2.638,0.25
			c1.199-0.823,2.354-1.435,3.465-1.837C24.662,9.964,25.1,9.846,25.414,9.811z"/>
	</g>
</g>
</svg>
