<?xml version="1.0" encoding="utf-8"?>
<!-- Generator: Adobe Illustrator 16.0.3, SVG Export Plug-In . SVG Version: 6.00 Build 0)  -->
<!DOCTYPE svg PUBLIC "-//W3C//DTD SVG 1.1//EN" "http://www.w3.org/Graphics/SVG/1.1/DTD/svg11.dtd">
<svg version="1.1" xmlns="http://www.w3.org/2000/svg" xmlns:xlink="http://www.w3.org/1999/xlink" x="0px" y="0px" width="36px"
	 height="36px" viewBox="0 0 36 36" enable-background="new 0 0 36 36" xml:space="preserve">
<g id="Layer_3">
	<path fill-rule="evenodd" clip-rule="evenodd" fill="#FFFFFF" d="M29.879,6.115C26.602,2.838,22.642,1.2,18,1.201
		c-4.641,0-8.601,1.639-11.882,4.915L6.115,6.118C2.839,9.399,1.201,13.359,1.201,18c0,4.642,1.638,8.602,4.915,11.879
		c3.281,3.281,7.243,4.92,11.885,4.92c4.641,0,8.599-1.64,11.876-4.92l0.003-0.003c3.281-3.276,4.92-7.235,4.92-11.876
		C34.799,13.358,33.16,9.396,29.879,6.115z M18,0c4.973,0,9.214,1.757,12.726,5.269C34.241,8.784,36,13.027,36,18
		c0,4.972-1.758,9.214-5.271,12.726l-0.003,0.003C27.214,34.242,22.972,36,18,36c-4.973,0-9.216-1.759-12.731-5.274
		C1.757,27.214,0,22.973,0,18S1.755,8.784,5.266,5.269l0.003-0.003C8.784,1.755,13.027,0,18,0z"/>
</g>
<g id="Layer_1_2_">
	<g>
		<path fill-rule="evenodd" clip-rule="evenodd" fill="#FFFFFF" d="M15.624,19.929c0.262,0.376,0.394,0.822,0.394,1.339
			c0,0.525-0.131,0.971-0.394,1.338c-0.271,0.368-0.595,0.551-0.971,0.551c-0.376,0-0.696-0.184-0.958-0.551
			c-0.271-0.367-0.407-0.813-0.407-1.338c0-0.517,0.135-0.962,0.407-1.339c0.262-0.368,0.582-0.551,0.958-0.551
			C15.028,19.378,15.352,19.562,15.624,19.929z M23.97,18.459c-0.534-0.49-1.378-0.731-2.533-0.722
			c-1.453,0.104-2.59,0.157-3.413,0.157h-0.065c-1.601-0.105-2.738-0.157-3.412-0.157c-1.155-0.009-2,0.231-2.533,0.722
			c-0.726,0.665-1.089,1.492-1.089,2.48c0,1.767,0.678,2.97,2.035,3.609c1.006,0.481,2.673,0.722,5,0.722h0.065
			c2.328,0,3.999-0.241,5.014-0.722c1.356-0.639,2.034-1.842,2.034-3.609C25.073,19.96,24.706,19.133,23.97,18.459z M20.361,22.606
			c-0.263-0.367-0.394-0.813-0.394-1.338c0-0.517,0.131-0.962,0.394-1.339c0.271-0.368,0.595-0.551,0.971-0.551
			c0.376,0,0.695,0.184,0.958,0.551c0.271,0.376,0.407,0.822,0.407,1.339c0,0.525-0.136,0.971-0.407,1.338
			c-0.263,0.368-0.582,0.551-0.958,0.551C20.956,23.158,20.632,22.974,20.361,22.606z M25.414,9.811
			c0.368,0.927,0.604,1.916,0.708,2.966c0.079,0.858,0.066,1.422-0.039,1.693c1.05,1.137,1.575,2.489,1.575,4.055
			c0,3.22-1.111,5.442-3.333,6.667c-1.208,0.665-2.712,0.998-4.515,0.998h-3.635c-1.803,0-3.308-0.333-4.515-0.998
			c-2.213-1.225-3.32-3.447-3.32-6.667c0-1.575,0.521-2.927,1.562-4.055c-0.105-0.271-0.118-0.835-0.04-1.693
			c0.105-1.05,0.341-2.039,0.709-2.966l1.313,0.354c1.111,0.402,2.266,1.015,3.464,1.837c0.586-0.167,1.47-0.25,2.651-0.25
			c1.172,0,2.052,0.083,2.638,0.25c1.199-0.823,2.354-1.435,3.465-1.837C24.662,9.964,25.099,9.846,25.414,9.811z"/>
	</g>
</g>
</svg>
