<?xml version="1.0" encoding="utf-8"?>
<!-- Generator: Adobe Illustrator 16.0.0, SVG Export Plug-In . SVG Version: 6.00 Build 0)  -->
<!DOCTYPE svg PUBLIC "-//W3C//DTD SVG 1.1//EN" "http://www.w3.org/Graphics/SVG/1.1/DTD/svg11.dtd">
<svg version="1.1" id="Layer_1" xmlns="http://www.w3.org/2000/svg" xmlns:xlink="http://www.w3.org/1999/xlink" x="0px" y="0px"
	 width="144px" height="73.145px" viewBox="0 0 144 73.145" enable-background="new 0 0 144 73.145" xml:space="preserve">
<g>
	<polygon fill="#E7344D" points="15.152,56.951 15.152,16.945 72.963,0 129.592,16.731 129.592,56.627 72.534,73.147 15.152,56.951 
			"/>
	<polygon fill="#FFFFFF" points="18.155,19.197 72.746,3.323 126.693,19.197 126.693,54.162 72.64,70.033 18.155,54.59 
		18.155,19.197 	"/>
	<polygon fill="#2D3D5D" points="19.229,20.053 72.856,4.29 125.513,19.842 125.513,53.407 72.534,69.071 19.229,53.84 
		19.229,20.053 	"/>
	<path fill="#FFFFFF" d="M100.271,42.076c0.926,0,1.255,0.534,1.255,0.78c0,0.254-0.353,0.7-1.211,0.7
		c-0.846,0-1.209-0.366-1.234-0.753C99.064,42.518,99.354,42.076,100.271,42.076L100.271,42.076z"/>
	<path fill="#FFFFFF" d="M91.214,44.279h2.048c0,0-1.993,5.52-2.048,5.82c-0.064,0.305,0.249,0.656,0.693,0.305
		c0.452-0.347,1.135-1.131,1.414-1.821c0.254-0.685,1.534-4.252,1.534-4.252h2.053c0,0-1.604,4.185-1.839,5.003
		C94.83,50.15,94.74,50.611,95,50.657c0.269,0.033,1.155-0.405,1.625-1.141c0.463-0.741,0.731-1.204,0.731-1.204l1.444-3.935h1.973
		c0,0-1.335,3.681-1.648,4.591c-0.289,0.899-0.538,1.574-0.254,1.669c0.274,0.1,1.589-0.805,1.902-1.318
		c0.318-0.521,1.062-2.749,1.614-4.262h-1.42l0.194-0.692h1.415l0.886-2.53l2.143-0.12l-0.892,2.666c0,0,1.489-0.038,1.573-0.038
		c0.08,0,0.199,0.191,0.11,0.324c-0.11,0.137-0.374,0.465-0.374,0.465h-1.554c0,0-1.494,4.253-1.644,4.844
		c-0.145,0.609-0.01,1.258,0.842,0.325c0.852-0.938,2.037-3.226,2.471-3.945c0.433-0.718,1.439-2.352,3.426-2.177
		c1.998,0.164,1.729,1.756,1.476,2.595c-0.255,0.837-0.937,2.661-3.616,2.393c0,0-0.494,0.933-0.115,1.793
		c0.39,0.853,1.256,0.799,1.973,0.244c0.727-0.546,1.404-1.405,2.138-2.828c0.696-1.33,1.623-3.563,2.251-3.963h1.809
		c0,0-0.195,0.688-0.065,1.355c0.145,0.67,1.012,3.092,0.832,4.27c-0.194,1.166-1.21,2.874-3.418,2.971
		c-2.206,0.103-2.425-0.807-2.311-1.25c0,0-0.628,0.784-2.137,0.922c-1.505,0.135-3.367-0.4-3.412-2.643
		c0,0-1.166,1.317-2.092,1.985c-0.917,0.672-2.003,0.498-2.142-0.167c-0.13-0.665-0.16-1.43-0.16-1.43s-1.39,1.711-2.466,1.9
		c-1.065,0.179-1.684-0.685-1.414-1.9c0,0-1.574,1.854-2.646,1.865c-1.072,0.018-1.37-0.614-1.301-1.808c0,0-1.38,2.151-2.964,1.745
		c-0.981-0.251-0.418-2.447-0.264-2.983C89.675,48.711,90.591,45.638,91.214,44.279L91.214,44.279z"/>
	<path fill="#FFFFFF" d="M79.509,44.179c0.344,0.355,0.179,1.004-0.514,1.653c-0.682,0.657-1.639,1.893-0.892,4.019
		c0.742,2.127,2.93,2.654,4.862,2.44c1.928-0.224,3.197-1.437,3.162-2.972c-0.045-1.542-0.736-2.546-1.773-3.672
		c-1.046-1.113-1.878-2.167-1.862-3.71c0.02-1.437,1.912-2.179,2.849-2.29c0.892-0.117,3.354-0.225,4.643,1.12
		c1.285,1.339,0.996,2.629,0.398,2.789c-0.587,0.174-0.961-0.058-1.229-1.071c-0.274-0.997-1.186-1.987-2.774-2.017
		c-1.585-0.037-2.446,0.451-2.566,1.133c-0.108,0.679,0.589,1.509,1.58,2.198c0.986,0.681,3.406,2.57,3.367,4.96
		c-0.064,2.394-1.654,4.44-5.295,4.603c-3.362,0.151-5.614-1.071-6.356-3.778c-0.683-2.524-0.024-3.689,1.076-5.015
		C78.388,44.321,79.145,43.83,79.509,44.179L79.509,44.179z"/>
	<path fill="#FFFFFF" d="M73.731,49.988c0,0,0.672-0.861,0.746-1.859c0.035-0.604,0.612-0.577,0.617-0.275
		c0.016,0.296-0.219,1.868-1.141,2.838c0,0,0.424,1.234,1.027,1.967c0.612,0.737,0.976,1.021,1.598,1.059
		c0.618,0.03,0.853-0.097,0.873,0.149c0.009,0.227-0.658,0.702-1.824,0.479c-1.176-0.212-2.306-1.741-2.604-2.586
		c0,0-0.962,1.057-2.207,1.139c-1.266,0.08-2.535-0.316-2.676-2.01c-0.123-1.691,1.545-3.063,3.498-3.645
		c0,0-0.344-1.457,0.123-2.389c0.465-0.938,1.62-0.938,2.118-0.719c0.503,0.208,1.031,1.177,0.612,1.957
		c-0.418,0.77-1.08,1.178-1.544,1.392C72.948,47.484,73.188,49.253,73.731,49.988L73.731,49.988z"/>
	<path fill="#FFFFFF" d="M44.565,51.988l2.585-7.998h1.917l-0.492,1.806c0,0,1.012-1.186,1.833-1.559
		c0.837-0.382,2.111-0.621,2.182,0.966c0.055,1.215-0.867,2.722-1.156,3.558c-0.299,0.829-0.667,1.803-0.397,2.074
		c0.264,0.26,1.554,0.03,2.36-1.457l1.884-5.256l1.858,0.058l-0.379,1.377c0,0,1.479-1.319,2.426-1.454
		c0.941-0.147,1.832,0.241,1.498,1.434c-0.313,1.174-1.98,5.164-1.873,6.131c0.111,0.969,1.342,2.66,4.035,1.178
		c2.691-1.472,3.205-4.195,3.205-5.233c0-1.059-0.35-1.87-0.111-2.198c0.238-0.317,0.916-0.285,1.236,0.652
		c0.328,0.946,0.109,2.795-0.664,4.252c-0.791,1.457-3.023,3.691-5.828,3.735c-2.789,0.064-4.144-1.452-3.576-3.811
		c0.494-1.988,1.484-3.689,1.595-4.249c0.1-0.58,0.029-0.738-0.375-0.599c-0.418,0.142-1.912,1.074-2.48,2.937
		c-0.567,1.854-1.111,3.767-1.111,3.767l-2.071-0.055l0.389-1.404c0,0-1.116,1.19-2.088,1.459c-0.961,0.262-2.222,0.294-2.177-0.943
		c0.06-1.238,1.002-3.389,1.24-3.884c0.239-0.479,0.737-1.876,0.463-2.016c-0.269-0.127-1.808,0.738-2.934,3.506l-1.025,3.228
		H44.565L44.565,51.988z"/>
	<path fill="#FFFFFF" d="M45.034,41.218c0,0-2.003,2.48-3.009,4.741c-0.981,2.262-1.684,6.083-4,7.271
		c-2.307,1.178-5.105,1.362-6.58-1.188c-1.5-2.56,0.523-5.836,1.066-6.05c0.463-0.195,0.408-0.84,0.139-1.002
		c-0.278-0.164-0.996-0.084-1.668,0.837c-0.678,0.912-1.738,2.837-0.678,5.734c0.837,2.278,2.765,2.993,4.034,3.188
		c1.34,0.227,3.502,0,4.633-0.551c1.126-0.58,2.885-2.053,3.845-4.067c0.968-2.021,1.564-4.494,2.183-5.759
		c0.622-1.269,1.609-2.914,2.151-3.398c0.538-0.487,1.052-1.213,0.109-1.021c-0.932,0.195-2.879,0.429-3.795,0.698
		c-0.917,0.271-2.501,0.701-3.98,1.988C38,43.932,37.442,45.74,37.97,47.093c0.548,1.352,1.409,1.128,1.704,0.936
		c0.294-0.179,0.294-0.672-0.09-1.208c-0.375-0.535-0.961-1.344-0.205-2.478C40.133,43.212,41.068,41.782,45.034,41.218
		L45.034,41.218z"/>
	<path fill="#FFFFFF" d="M84.52,26.279l0.977-2.932l2.151-0.303l-0.996,3.26l1.754,0.028l-0.13,0.629h-1.754
		c0,0-1.359,3.38-1.743,5.334c-0.408,1.959,0,1.705,0.519,1.388c0.533-0.333,1.589-1.337,1.832-1.857c0,0,0.304-2.234,1.554-3.918
		c1.251-1.673,2.801-1.853,3.593-1.755c0.767,0.097,1.729,0.948,1.679,1.957c-0.061,1.004-0.061,1.308-0.061,1.308
		s0.653-0.123,1.285-0.785c0.623-0.645,1.256-1.729,1.355-2.199l1.779,0.049l-0.1,1.254c0,0,1.379-1.207,1.938-1.434
		c0.543-0.225,1.808-0.25,1.922,0.528c0.125,0.772,0,1.452-0.796,3.556c-0.808,2.115-1.809,4.75-0.733,5.74
		c1.076,1.014,2.735,0.361,3.911-0.564c1.186-0.939,3.088-3.584,3.043-5.425c-0.06-1.835-0.209-2.097,0.299-2.202
		c0.493-0.1,0.852,0.324,0.802,1.377s0,2.48-1.479,4.712c-1.479,2.229-3.911,3.511-5.743,3.412c-1.834-0.098-2.76-0.78-3.063-2.49
		c-0.305-1.691,0.254-3.322,0.851-4.861c0.608-1.529,0.987-2.299,0.772-2.5c-0.199-0.204-0.772,0.07-1.319,0.824
		c-0.549,0.753-1.884,2.962-2.835,6.421h-2.053l1.878-5.596c0,0-1.206,1.086-1.878,1.056c0,0-0.603,3.263-2.406,4.214
		c-1.817,0.959-3.875,0.428-4.109-1.679c0,0-1.189,1.33-1.967,1.775c-0.777,0.452-2.501,1.156-2.716-0.722
		c-0.164-1.585,0.957-4.143,1.032-4.485c0.075-0.359,0.782-2.464,0.782-2.464H82.94v-0.627L84.52,26.279L84.52,26.279z"/>
	<path fill="#FFFFFF" d="M59.863,26.65l0.268-0.57h2.143c0,0-1.455,4.588-1.754,5.497c-0.303,0.896-0.582,1.801,0.045,1.897
		c0.633,0.1,2.023-1.786,2.182-2.074c0.254-0.483,1.709-5.297,1.709-5.297h1.848c0,0,0,1.206-0.119,1.554
		c0,0,1.385-1.25,2.162-1.482c0.777-0.225,1.848-0.022,1.594,2.167c0,0,1.533-1.936,2.665-2.239
		c1.127-0.299,1.953,0.254,1.629,1.579c-0.318,1.333-1.21,3.307-1.549,4.267c-0.358,0.961-0.503,2.111,0.294,1.676
		c0.807-0.421,1.703-1.277,2.261-2.411l1.629-4.963h1.684l0.101,0.754c0,0,0.861-1.138,2.256-0.924
		c1.529,0.225,1.255,3.686,0.479,5.517c-0.783,1.833-2.541,3.416-3.637,3.337c-1.106-0.074-1.125-0.221-1.425-0.498l-1.235,3.679
		l-2.132-0.046l1.504-4.837c0,0-1.777,1.8-2.962,1.781c-1.178-0.026-1.48-1.132-1.322-1.781c0.145-0.658,1.58-4.414,1.725-4.97
		c0.155-0.548,0.324-1.161-0.379-0.657c-0.693,0.505-1.484,1.711-2.021,3.019c-0.555,1.3-1.584,4.102-1.584,4.102l-1.934-0.012
		c0,0,1.873-5.923,1.998-6.351c0.135-0.424-0.09-0.85-0.639-0.649c-0.557,0.195-1.16,1.002-1.639,2.005
		c-0.473,1.002-1.479,3.459-1.883,4.939h-2.182l0.488-1.355c0,0-1.539,1.582-2.664,1.604c-1.131,0.027-1.459-0.651-1.459-1.905
		c0,0-1.505,1.809-2.881,1.809c-1.39,0-1.579-0.898-1.429-2.336c0.144-1.43,0.702-3.636,2.232-5.24
		C57.447,25.624,59.52,25.748,59.863,26.65L59.863,26.65z"/>
	<path fill="#FFFFFF" d="M44.466,28.558h-1.962l0.023,0.89l1.659,0.014c0,0-0.672,3.042-1.787,5.221
		c-1.092,2.179-2.427,4.042-4.41,3.815c-1.978-0.232-3.756-2.116-3.73-4.77c0.024-2.657,0.14-3.664,1.559-5.143
		c0.573-0.598,0.518-1.425-0.413-1.175c-0.927,0.247-1.544,0.824-1.973,2.535c-0.429,1.704-0.623,4.426,1.195,7.467
		c1.504,2.507,5.117,2.46,6.91,0.925c1.295-1.104,2.804-3.051,3.71-5.236c0.896-2.184,1.376-3.561,1.376-3.561h3.431
		c0,0-3.257,7.821,0.907,9.884c0,0-0.807-2.012-0.249-4.188c0.549-2.188,1.624-5.322,1.878-5.677c0,0,0.403-0.042,0.498-0.042
		c0.104,0,0.434,0.149,0.548-0.056c0.134-0.198,0.1-0.699,0.1-0.699l-0.866-0.077c0,0,0.652-2.329,1.33-3.808
		c0.678-1.482,1.489-2.763,2.679-3.838c0,0-0.982-0.379-2.834,1.029c-1.853,1.402-3.735,6.618-3.735,6.618l-3.362-0.052
		c0,0,0.553-2.199,1.479-4.032c0.927-1.844,1.763-3.042,1.763-3.042s-3.642,0.912-4.224,1.014c-0.563,0.095-1.977,0.122-2.854,0.521
		c-0.882,0.398-1.255,1.602-0.927,1.784c0.319,0.171,1.007-0.359,1.6-0.772c0.612-0.437,2.44-1.348,3.914-1.289
		C47.698,22.816,45.965,24.47,44.466,28.558L44.466,28.558z"/>
	<path fill="#FFFFFF" d="M76.111,13.38c0,0,0.483,0.737,0.996,0.249c0.588-0.542-0.175-1.258-0.802-1.382
		c-0.588-0.111-1.928-0.146-2.784,1.074c-0.856,1.235-0.782,3.613,0.304,5.076c1.086,1.45,2.864,2.608,5.24,1.928
		c2.406-0.677,2.391-2.431,2.181-2.909c-0.204-0.481-0.881-0.446-1.03-0.356c-0.149,0.109,0.31,0.613-0.149,1.435
		c-0.453,0.829-1.698,1.633-3.467,1.083c-1.749-0.553-2.795-2.341-2.755-3.813C73.895,14.287,74.911,13.156,76.111,13.38
		L76.111,13.38z"/>
	<path fill="#FFFFFF" d="M69.271,13.343c0,0-0.477,0.734-1.006,0.247c-0.588-0.538,0.174-1.258,0.803-1.372
		c0.582-0.134,1.938-0.165,2.779,1.063c0.852,1.235,0.771,3.617-0.289,5.071c-1.08,1.458-2.875,2.605-5.256,1.931
		c-2.4-0.675-2.375-2.426-2.176-2.91c0.199-0.475,0.871-0.451,1.031-0.346c0.148,0.097-0.299,0.597,0.148,1.422
		c0.453,0.839,1.703,1.639,3.467,1.086c1.754-0.55,2.814-2.328,2.75-3.811C71.473,14.229,70.479,13.116,69.271,13.343L69.271,13.343
		z"/>
	<path fill="#FFFFFF" d="M71.061,11.634c0,0,1.205-1.036,1.748-2.107c0,0,0.528,1.275,1.619,2.052c0,0-1.409,0.877-1.634,2.137
		C72.794,13.716,72.191,12.277,71.061,11.634L71.061,11.634z"/>
	<path fill="#FFFFFF" d="M71.064,19.897c0,0,1.107-1.03,1.66-2.104c0,0,0.429,1.303,1.509,2.08c0,0-1.314,0.747-1.534,2.097
		C72.699,21.969,72.191,20.553,71.064,19.897L71.064,19.897z"/>
	<path fill="#2D3D5D" d="M113.565,46.624c0,0,1.155,1.806,0.736,3.433c-0.423,1.614-1.324,2.302-2.127,2.145
		c-0.448-0.074-0.672-0.276-1.369-0.752c0,0,1.226-1.534,1.664-2.436C112.923,48.112,113.271,47.031,113.565,46.624L113.565,46.624z
		"/>
	<path fill="#2D3D5D" d="M107.617,48.313c0,0,0.101-0.931,0.817-1.705c0.718-0.785,1.146-0.721,1.334-0.401
		c0.175,0.311-0.064,1.15-0.503,1.512C108.823,48.059,108.319,48.382,107.617,48.313L107.617,48.313z"/>
	<path fill="#2D3D5D" d="M71.729,47.99c0,0,0.731,2.263,1.08,3.116c0,0-0.513,0.737-1.32,1.021
		c-0.801,0.279-1.484-0.063-1.818-0.689c-0.334-0.618-0.01-1.617,0.404-2.165C70.492,48.711,71.234,48.059,71.729,47.99
		L71.729,47.99z"/>
	<path fill="#2D3D5D" d="M72.715,46.74c0,0-0.28-0.743-0.199-1.41c0.085-0.662,0.482-0.887,0.926-0.757
		c0.429,0.142,0.344,0.866,0.264,1.051C73.616,45.797,73.422,46.206,72.715,46.74L72.715,46.74z"/>
	<path fill="#2D3D5D" d="M90.711,28.362c0,0,0.1,1.1,1.564,2.007c0,0-0.28,1.38-0.737,2.254c-0.454,0.882-1.106,1.682-1.704,1.404
		c-0.597-0.273-0.474-2.231-0.149-3.404C90.009,29.448,90.711,28.362,90.711,28.362L90.711,28.362z"/>
	<path fill="#2D3D5D" d="M91.483,27.233c0,0,0.428-0.499,0.951-0.329c0.538,0.172,0.389,1.858,0.135,2.613
		c0,0-0.574-0.069-0.896-0.981C91.339,27.634,91.483,27.233,91.483,27.233L91.483,27.233z"/>
	<path fill="#2D3D5D" d="M79.777,27.308c0.31,0.126,0.429,1.883-0.298,3.638c-0.733,1.754-1.914,2.984-2.366,2.859
		c-0.449-0.122-0.345-1.606,0.408-3.514C78.268,28.385,79.295,27.1,79.777,27.308L79.777,27.308z"/>
	<path fill="#2D3D5D" d="M59.295,27.233c0.145,0.075,0.27,1.028-0.135,2.162c-0.398,1.131-0.932,2.354-1.529,3.006
		c-0.607,0.647-1.325,1.028-1.678,0.901c-0.36-0.125-0.145-1.554,0.294-2.776c0.463-1.231,1.189-2.538,1.759-2.939
		C58.592,27.181,59.135,27.16,59.295,27.233L59.295,27.233z"/>
	<path fill="#E7344D" d="M125.616,60.999c0-1.246,1.006-2.173,2.191-2.173c1.18,0,2.192,0.927,2.192,2.173
		c0,1.247-1.013,2.169-2.192,2.169C126.622,63.168,125.616,62.246,125.616,60.999L125.616,60.999z M127.808,62.804
		c0.981,0,1.754-0.77,1.754-1.805c0-1.03-0.772-1.802-1.754-1.802c-0.991,0-1.769,0.771-1.769,1.802
		C126.039,62.034,126.816,62.804,127.808,62.804L127.808,62.804z M127.354,62.246h-0.383v-2.493h0.946
		c0.593,0,0.877,0.216,0.877,0.71c0,0.443-0.274,0.64-0.638,0.687l0.697,1.097h-0.413l-0.653-1.084h-0.434V62.246L127.354,62.246z
		 M127.802,60.851c0.324,0,0.613-0.032,0.613-0.41c0-0.312-0.289-0.372-0.548-0.372h-0.514v0.782H127.802L127.802,60.851z"/>
</g>
</svg>
