<?xml version="1.0" encoding="utf-8"?>
<!-- Generator: Adobe Illustrator 16.0.0, SVG Export Plug-In . SVG Version: 6.00 Build 0)  -->
<!DOCTYPE svg PUBLIC "-//W3C//DTD SVG 1.1//EN" "http://www.w3.org/Graphics/SVG/1.1/DTD/svg11.dtd">
<svg version="1.1" xmlns="http://www.w3.org/2000/svg" xmlns:xlink="http://www.w3.org/1999/xlink" x="0px" y="0px"
	 width="204.48px" height="241.92px" viewBox="0 0 204.48 241.92" enable-background="new 0 0 204.48 241.92" xml:space="preserve">
<g id="Layer_1">
	<g>
		<g enable-background="new    ">
			<path fill="#333333" d="M1.595,44.755l3.358-0.35c0.979-0.093,1.667-0.245,2.064-0.455c0.396-0.21,0.618-0.431,0.665-0.664
				l7.417-38.832c0.046-0.279-0.082-0.478-0.385-0.595c-0.304-0.115-1.131-0.268-2.484-0.454l-2.659-0.28l-0.07-1.05h17.702
				l-0.28,1.05l-3.568,0.35c-0.979,0.094-1.691,0.245-2.134,0.455c-0.444,0.21-0.688,0.432-0.734,0.665l-4.198,21.969L31.471,13.55
				c2.659-2.238,4.676-4.011,6.052-5.317c1.375-1.306,2.239-2.297,2.589-2.974c0.35-0.676,0.256-1.119-0.28-1.329
				c-0.537-0.21-1.388-0.385-2.554-0.524l-2.869-0.28v-1.05h16.512l-0.21,0.979l-1.539,0.141c-1.027,0.094-1.901,0.257-2.624,0.489
				c-0.724,0.234-1.586,0.7-2.589,1.399s-2.298,1.714-3.883,3.044c-1.586,1.329-3.755,3.138-6.507,5.422l-5.527,4.897l9.726,21.76
				c0.42,0.979,0.77,1.738,1.049,2.274c0.279,0.536,0.583,0.944,0.91,1.225c0.326,0.279,0.676,0.467,1.049,0.56
				c0.373,0.094,0.863,0.187,1.47,0.279l2.169,0.21l0.14,1.05H27.762l0.21-1.05l2.309-0.21c1.305-0.093,2.029-0.524,2.169-1.294
				c0.14-0.77-0.047-1.83-0.56-3.184l-7.976-18.262l-7.976,6.717l-2.869,14.903c-0.047,0.28,0.093,0.49,0.42,0.63
				c0.326,0.14,1.189,0.279,2.588,0.42l2.939,0.279l0.14,1.05H1.385L1.595,44.755z"/>
			<path fill="#333333" d="M48.822,45.735l3.638-11.194l4.408-16.582l-2.938-0.35l-4.968,7.066l-0.629-0.56
				c1.445-3.032,2.926-5.376,4.443-7.032c1.515-1.655,2.949-2.483,4.303-2.483c0.326,0,0.71,0.117,1.154,0.35
				c0.443,0.234,0.863,0.537,1.26,0.91c0.396,0.373,0.734,0.793,1.014,1.259c0.28,0.467,0.42,0.934,0.42,1.399
				c0,0.42-0.105,1.108-0.315,2.064c-0.21,0.956-0.514,2.088-0.909,3.393c-0.397,1.307-0.852,2.753-1.365,4.338
				c-0.514,1.587-1.073,3.266-1.679,5.038h0.42c0.933-1.865,1.842-3.649,2.729-5.353c0.886-1.702,1.714-3.241,2.484-4.618
				c0.77-1.375,1.48-2.564,2.134-3.567c0.652-1.003,1.235-1.737,1.749-2.204c0.84-1.073,1.585-1.854,2.239-2.344
				c0.653-0.49,1.493-0.711,2.519-0.665c1.259,0.094,2.262,0.56,3.008,1.399c0.746,0.84,1.096,1.796,1.05,2.868
				c-0.047,1.026-0.397,1.866-1.05,2.52c-0.653,0.653-1.376,0.956-2.169,0.909c-0.514,0-0.991-0.14-1.434-0.42
				c-0.444-0.28-0.759-0.641-0.945-1.084c-0.187-0.443-0.234-0.945-0.14-1.505c0.093-0.56,0.42-1.119,0.979-1.679
				c-0.327-0.093-0.607-0.21-0.84-0.351c-0.467-0.232-0.747-0.35-0.839-0.35c-0.794,0.467-2.158,2.216-4.093,5.248
				c-1.936,3.032-4.56,7.673-7.871,13.923L53.51,46.084L48.822,45.735z"/>
			<path fill="#333333" d="M79.957,46.714c-0.327,0-0.77-0.082-1.33-0.244c-0.56-0.164-1.108-0.374-1.644-0.63
				c-0.537-0.256-0.979-0.525-1.33-0.805c-0.35-0.28-0.524-0.536-0.524-0.77c0-0.093,0.209-0.77,0.629-2.029
				c0.42-1.259,0.945-2.81,1.574-4.652c0.63-1.843,1.317-3.837,2.064-5.982c0.746-2.146,1.458-4.174,2.134-6.087
				c0.675-1.912,1.27-3.557,1.784-4.933c0.513-1.376,0.815-2.228,0.91-2.554l-3.429-0.351l-4.967,6.997l-0.7-0.56
				c1.492-2.984,3.043-5.306,4.653-6.962c1.609-1.655,3.089-2.483,4.443-2.483c0.419,0,0.85,0.116,1.294,0.35
				c0.443,0.233,0.851,0.536,1.225,0.909c0.373,0.374,0.676,0.794,0.91,1.26c0.233,0.467,0.35,0.934,0.35,1.399
				c0,0.233-0.199,0.969-0.595,2.204c-0.396,1.236-0.886,2.718-1.469,4.442c-0.583,1.727-1.236,3.58-1.959,5.563
				c-0.724,1.983-1.399,3.848-2.029,5.598c-0.63,1.749-1.179,3.253-1.645,4.513c-0.467,1.259-0.77,2.053-0.91,2.379l3.358,0.489
				l5.108-6.717l0.629,0.49c-1.493,2.938-3.032,5.201-4.618,6.786C82.289,45.921,80.982,46.714,79.957,46.714z M89.332,8.233
				c-0.934,0-1.668-0.291-2.204-0.874c-0.537-0.583-0.805-1.317-0.805-2.204c0-1.166,0.326-2.157,0.979-2.974
				c0.653-0.815,1.375-1.225,2.169-1.225c0.98,0,1.737,0.292,2.274,0.874c0.536,0.584,0.805,1.319,0.805,2.204
				c-0.047,1.167-0.396,2.158-1.049,2.974C90.848,7.826,90.125,8.233,89.332,8.233z"/>
			<path fill="#333333" d="M98.357,46.714c-1.12,0-2.204-0.129-3.253-0.385c-1.05-0.257-1.971-0.617-2.764-1.084
				c-0.794-0.466-1.423-1.061-1.889-1.784c-0.466-0.723-0.7-1.527-0.7-2.414c0-0.933,0.28-1.714,0.839-2.344
				c0.56-0.63,1.283-0.944,2.169-0.944c0.745,0,1.352,0.269,1.819,0.805c0.466,0.536,0.7,1.154,0.7,1.854
				c0,0.514-0.187,1.062-0.56,1.645c-0.374,0.584-0.747,0.991-1.12,1.225c0.653,0.497,1.55,0.972,2.694,1.423
				c1.142,0.453,2.274,0.701,3.393,0.746c0.933-0.093,1.725-0.337,2.379-0.732c0.653-0.396,1.201-0.885,1.645-1.466
				c0.441-0.582,0.771-1.211,0.979-1.885c0.211-0.675,0.315-1.292,0.315-1.852c0-0.743-0.152-1.441-0.455-2.093
				c-0.305-0.652-0.7-1.269-1.189-1.851c-0.489-0.581-1.039-1.164-1.644-1.745c-0.607-0.582-1.213-1.175-1.819-1.78
				c-0.747-0.697-1.458-1.396-2.134-2.095c-0.677-0.697-1.271-1.407-1.784-2.128c-0.514-0.722-0.921-1.467-1.225-2.233
				c-0.304-0.768-0.455-1.595-0.455-2.479c0-1.257,0.303-2.408,0.91-3.455c0.605-1.047,1.387-1.932,2.344-2.653
				c0.956-0.722,2.017-1.291,3.184-1.71c1.166-0.419,2.309-0.628,3.428-0.628c2.1,0,3.885,0.419,5.354,1.259
				c1.469,0.84,2.227,2.216,2.273,4.128c0,0.979-0.303,1.749-0.91,2.31c-0.605,0.56-1.305,0.839-2.098,0.839
				c-0.748,0-1.354-0.256-1.82-0.77c-0.467-0.513-0.699-1.143-0.699-1.889c0-0.56,0.163-1.096,0.49-1.609
				c0.326-0.513,0.723-0.886,1.188-1.119c-0.653-0.466-1.389-0.886-2.204-1.26c-0.816-0.373-1.689-0.583-2.623-0.63
				c-0.84,0.047-1.575,0.257-2.205,0.63c-0.63,0.374-1.154,0.816-1.574,1.329c-0.42,0.514-0.735,1.097-0.944,1.749
				c-0.21,0.654-0.315,1.284-0.315,1.89c0,1.307,0.455,2.508,1.364,3.604c0.909,1.096,2.04,2.273,3.394,3.533
				c0.653,0.606,1.316,1.248,1.995,1.924c0.676,0.677,1.315,1.399,1.924,2.169c0.604,0.77,1.096,1.599,1.469,2.483
				c0.373,0.887,0.561,1.819,0.561,2.799c0,1.26-0.313,2.414-0.945,3.464c-0.629,1.049-1.434,1.959-2.414,2.729
				c-0.979,0.77-2.088,1.376-3.322,1.819C100.864,46.493,99.617,46.714,98.357,46.714z"/>
			<path fill="#333333" d="M118.438,46.714c-0.327,0-0.817-0.082-1.47-0.244c-0.653-0.164-1.271-0.374-1.854-0.63
				c-0.584-0.256-1.084-0.525-1.505-0.805c-0.42-0.28-0.606-0.536-0.561-0.77l7.065-26.098l-5.387-0.14l0.629-2.169l5.458-0.561
				l2.519-9.096h4.479l-2.521,9.376l6.646,0.07l-0.068,2.448h-7.276l-7.207,25.258l3.778,0.42l5.037-6.717l0.629,0.49
				c-1.492,2.938-2.996,5.201-4.512,6.786C120.804,45.921,119.51,46.714,118.438,46.714z"/>
			<path fill="#333333" d="M136.35,46.714c-0.327,0-0.771-0.082-1.329-0.244c-0.561-0.164-1.109-0.374-1.645-0.63
				c-0.537-0.256-0.979-0.525-1.33-0.805c-0.35-0.28-0.523-0.536-0.523-0.77c0-0.093,0.209-0.77,0.629-2.029
				c0.42-1.259,0.945-2.81,1.574-4.652c0.63-1.843,1.316-3.837,2.064-5.982c0.744-2.146,1.457-4.174,2.133-6.087
				c0.676-1.912,1.271-3.557,1.785-4.933c0.513-1.376,0.814-2.228,0.91-2.554l-3.431-0.351l-4.967,6.997l-0.699-0.56
				c1.492-2.984,3.043-5.306,4.651-6.962c1.609-1.655,3.091-2.483,4.443-2.483c0.42,0,0.851,0.116,1.293,0.35
				c0.443,0.234,0.853,0.536,1.226,0.909c0.373,0.374,0.676,0.794,0.909,1.26c0.232,0.467,0.351,0.934,0.351,1.399
				c0,0.233-0.198,0.969-0.595,2.204c-0.396,1.236-0.887,2.718-1.471,4.442c-0.582,1.727-1.235,3.58-1.959,5.563
				c-0.723,1.983-1.397,3.848-2.027,5.598c-0.631,1.749-1.18,3.253-1.645,4.513c-0.468,1.259-0.771,2.053-0.91,2.379l3.357,0.489
				l5.107-6.717l0.631,0.49c-1.494,2.938-3.033,5.201-4.618,6.786C138.681,45.921,137.375,46.714,136.35,46.714z M145.726,8.233
				c-0.934,0-1.669-0.291-2.205-0.874s-0.805-1.317-0.805-2.204c0-1.166,0.326-2.157,0.98-2.974
				c0.651-0.815,1.375-1.225,2.168-1.225c0.979,0,1.737,0.292,2.273,0.874c0.535,0.584,0.805,1.319,0.805,2.204
				c-0.047,1.167-0.396,2.158-1.05,2.974C147.242,7.826,146.518,8.233,145.726,8.233z"/>
			<path fill="#333333" d="M169.443,46.714c-0.326,0-0.77-0.082-1.328-0.244c-0.561-0.164-1.098-0.374-1.609-0.63
				c-0.514-0.256-0.957-0.536-1.329-0.84c-0.373-0.303-0.56-0.57-0.56-0.805c0-0.279,0.15-0.886,0.453-1.819
				c0.305-0.933,0.676-2.028,1.12-3.288c0.442-1.26,0.944-2.635,1.505-4.128c0.559-1.492,1.096-2.938,1.609-4.338
				c0.372-1.025,0.757-2.064,1.154-3.113c0.395-1.05,0.758-2.053,1.084-3.009s0.595-1.784,0.805-2.484
				c0.21-0.699,0.314-1.212,0.314-1.539c0-0.699-0.326-1.317-0.979-1.854c-0.654-0.536-1.377-0.805-2.17-0.805
				c-0.515,0-1.261,0.514-2.238,1.539c-0.979,1.026-2.101,2.461-3.358,4.303c-1.26,1.843-2.623,4.07-4.092,6.682
				c-1.472,2.613-2.976,5.505-4.515,8.676l-2.169,7.067l-4.688-0.351l3.498-11.194l4.547-16.512l-2.938-0.351l-4.969,6.997
				l-0.629-0.56c1.445-3.032,2.949-5.376,4.513-7.032c1.563-1.655,3.021-2.483,4.373-2.483c0.325,0,0.7,0.117,1.118,0.35
				c0.421,0.234,0.828,0.537,1.226,0.91s0.724,0.793,0.979,1.259c0.257,0.467,0.386,0.934,0.386,1.399
				c0,0.42-0.129,1.189-0.386,2.309c-0.258,1.12-0.618,2.426-1.084,3.919c-0.467,1.493-0.991,3.137-1.574,4.933
				c-0.584,1.796-1.202,3.58-1.854,5.354l0.42,0.14c1.024-2.005,2.074-3.964,3.147-5.877c1.071-1.912,2.122-3.662,3.147-5.248
				c1.025-1.585,1.972-2.984,2.834-4.198c0.863-1.212,1.599-2.122,2.205-2.729c1.631-1.632,3.24-2.448,4.826-2.448
				c0.561,0,1.131,0.116,1.715,0.35c0.582,0.233,1.107,0.56,1.574,0.979c0.465,0.42,0.85,0.898,1.154,1.435
				c0.303,0.536,0.455,1.108,0.455,1.714c0,0.467-0.094,1.097-0.28,1.889c-0.187,0.794-0.444,1.703-0.771,2.729
				s-0.699,2.123-1.119,3.288c-0.42,1.166-0.863,2.355-1.328,3.568c-0.375,1.073-0.816,2.298-1.33,3.673
				c-0.514,1.377-1.016,2.706-1.504,3.988c-0.49,1.283-0.91,2.403-1.26,3.358c-0.351,0.957-0.572,1.528-0.664,1.714l3.147,0.42
				l5.107-6.786l0.629,0.489c-1.492,2.985-3.009,5.271-4.547,6.856C171.683,45.921,170.423,46.714,169.443,46.714z"/>
			<path fill="#333333" d="M189.314,46.714c-1.307,0-2.484-0.269-3.533-0.805c-1.05-0.535-1.947-1.259-2.693-2.169
				c-0.748-0.909-1.318-1.981-1.715-3.218c-0.396-1.235-0.594-2.53-0.594-3.884c0-2.658,0.477-5.293,1.434-7.906
				c0.955-2.611,2.216-4.967,3.777-7.066c1.563-2.099,3.336-3.789,5.318-5.072c1.982-1.282,3.977-1.924,5.982-1.924
				c2.099,0,3.789,0.5,5.072,1.501c1.281,1,1.924,2.244,1.924,3.733c0,1.117-0.34,2.129-1.016,3.036
				c-0.677,0.908-1.749,1.77-3.218,2.583c-1.47,0.814-3.336,1.629-5.599,2.443c-2.264,0.814-5.002,1.687-8.221,2.617
				c-0.234,0.791-0.41,1.616-0.525,2.477c-0.116,0.861-0.174,1.688-0.174,2.479c0,2.56,0.535,4.525,1.608,5.898
				c1.071,1.373,2.495,2.059,4.269,2.059c1.491,0,2.949-0.525,4.373-1.574c1.422-1.05,2.949-2.74,4.582-5.073l0.699,0.49
				c-0.746,1.213-1.574,2.379-2.482,3.498c-0.91,1.119-1.854,2.118-2.834,2.992c-0.979,0.875-2.006,1.574-3.078,2.099
				C191.599,46.453,190.479,46.714,189.314,46.714z M192.988,27.333c1.701-0.699,3.055-1.434,4.057-2.203
				c1.004-0.771,1.716-1.598,2.136-2.484s0.629-1.889,0.629-3.009c0-1.025-0.338-1.877-1.015-2.554
				c-0.676-0.676-1.527-1.015-2.555-1.015c-0.699,0-1.41,0.199-2.133,0.595c-0.725,0.397-1.412,0.899-2.064,1.505
				c-1.025,1.026-2.053,2.565-3.078,4.617c-1.026,2.054-1.866,4.293-2.52,6.717l0.141,0.07
				C189.15,28.781,191.285,28.034,192.988,27.333z"/>
		</g>
		<g enable-background="new    ">
			<path fill="#333333" d="M15.731,119.873H5.623l-3.229,9.081H0.683l9.075-25.603h1.679l9.301,25.603h-1.711L15.731,119.873z
				 M15.15,118.269l-4.553-12.512l-4.425,12.512H15.15z"/>
			<path fill="#333333" d="M41.889,128.856h-2.131c-3.509-3.785-7.051-7.348-10.625-10.683c-0.646-0.021-1.507-0.085-2.583-0.192
				v10.973h-1.615v-25.571c2.239-0.278,4.058-0.396,5.458-0.353c3.401,0.107,5.823,0.92,7.266,2.438
				c1.119,1.198,1.69,2.919,1.711,5.165v0.032c0,0.021,0,0.043,0,0.064c-0.215,2.396-0.953,4.166-2.212,5.31
				c-1.26,1.144-3.149,1.834-5.668,2.069C34.999,121.488,38.466,125.071,41.889,128.856z M26.549,116.408
				c0.796,0.064,1.518,0.107,2.164,0.128c0.15-0.021,0.301-0.021,0.452,0c2.605,0,4.554-0.353,5.846-1.059
				c1.722-0.898,2.604-2.513,2.648-4.845c0-1.796-0.474-3.144-1.421-4.042c-1.227-1.197-3.38-1.839-6.459-1.925
				c-0.948-0.021-2.024,0.021-3.229,0.128v11.615H26.549z"/>
			<path fill="#333333" d="M47.767,114.194h11.335v1.604H47.767v3.112v8.502l11.303-0.033v1.572H46.152V103.35h1.615h11.335v1.604
				H47.767V114.194z"/>
			<path fill="#333333" d="M95.724,117.499v11.486l-1.098,0.096c-1.356,0.086-3.068,0.129-5.135,0.129
				c-3.058,0-5.383-0.565-6.976-1.701c-1.4-1.004-2.422-2.041-3.068-3.11c-0.991-1.711-1.562-4.096-1.712-7.155h-0.032
				c0-0.042,0-0.235,0-0.577c0-0.235,0-0.406,0-0.514v-1.091h0.032c0.15-3.058,0.721-5.443,1.712-7.154
				c0.646-1.069,1.668-2.106,3.068-3.112c1.593-1.134,3.918-1.701,6.976-1.701c1.076,0,2.648,0.086,4.715,0.257v1.572
				c-2.239-0.193-3.94-0.289-5.103-0.289c-2.282,0-4.059,0.46-5.329,1.38c-1.271,0.919-2.164,1.829-2.68,2.727
				c-0.904,1.519-1.454,3.722-1.647,6.609c-0.022,0.107-0.033,0.375-0.033,0.802c0,0.428,0.011,0.685,0.033,0.77
				c0.193,2.909,0.743,5.124,1.647,6.642c0.517,0.877,1.41,1.78,2.68,2.711s3.046,1.396,5.329,1.396c1.528,0,3.176-0.053,4.941-0.16
				v-10.009H87.52v-1.604h8.203L95.724,117.499L95.724,117.499z"/>
			<path fill="#333333" d="M102.247,114.194h11.335v1.604h-11.335v3.112v8.502l11.304-0.033v1.572h-12.918V103.35h1.615h11.335
				v1.604h-11.335V114.194z"/>
			<path fill="#333333" d="M131.764,104.923h-6.718v24.031h-1.614v-24.031h-6.718v-1.604h15.05V104.923z"/>
			<path fill="#333333" d="M149.785,104.923h-6.718v24.031h-1.614v-24.031h-6.718v-1.604h15.05V104.923z"/>
			<path fill="#333333" d="M156.437,103.287v25.698h-1.615v-25.698H156.437z"/>
			<path fill="#333333" d="M180.561,103.254l-0.032,25.667h-1.582h-0.033l-14.08-22.619v22.619h-1.614v-25.667h1.614l14.113,22.65
				v-22.65H180.561z"/>
			<path fill="#333333" d="M203.781,117.499v11.486l-1.099,0.096c-1.356,0.086-3.067,0.129-5.136,0.129
				c-3.057,0-5.383-0.565-6.975-1.701c-1.4-1.004-2.423-2.041-3.068-3.11c-0.99-1.711-1.562-4.096-1.711-7.155h-0.033
				c0-0.042,0-0.235,0-0.577c0-0.235,0-0.406,0-0.514v-1.091h0.033c0.149-3.058,0.721-5.443,1.711-7.154
				c0.646-1.069,1.668-2.106,3.068-3.112c1.592-1.134,3.918-1.701,6.975-1.701c1.076,0,2.647,0.086,4.716,0.257v1.572
				c-2.239-0.193-3.94-0.289-5.103-0.289c-2.283,0-4.06,0.46-5.328,1.38c-1.271,0.919-2.164,1.829-2.682,2.727
				c-0.904,1.519-1.453,3.722-1.646,6.609c-0.021,0.107-0.032,0.375-0.032,0.802c0,0.428,0.011,0.685,0.032,0.77
				c0.193,2.909,0.742,5.124,1.646,6.642c0.518,0.877,1.409,1.78,2.682,2.711c1.27,0.931,3.045,1.396,5.328,1.396
				c1.527,0,3.176-0.053,4.94-0.16v-10.009h-6.522v-1.604h8.203V117.499L203.781,117.499z"/>
		</g>
		<g enable-background="new    ">
			<path fill="#333333" d="M21.819,193.2h-5.892l-8.153-30.763V193.2H1.197v-55.976h7.125l10.551,42.409l10.62-42.409h6.303V193.2
				H29.15v-30.49L21.819,193.2z"/>
			<path fill="#333333" d="M62.031,193.2l-1.85-8.359h-9.386l-1.713,8.359h-8.085l11.304-55.976h6.098L70.115,193.2H62.031z
				 M59.564,178.195l-4.18-22.335c-1.302,7.125-2.466,13.977-3.974,22.335H59.564z"/>
			<path fill="#333333" d="M82.307,193.2h-6.646v-55.976h11.921c6.577,0,11.99,5.345,11.99,11.922v13.839
				c0,3.083-1.439,6.166-3.563,8.357c2.604,2.33,4.042,5.688,4.042,9.045V193.2h-6.646v-12.813c0-3.016-2.535-5.551-5.481-5.551
				h-5.617V193.2z M82.307,143.801v24.459h5.549c2.809,0,5.001-2.467,5.001-5.275v-13.839c0-2.946-2.329-5.345-5.275-5.345H82.307z"
				/>
			<path fill="#333333" d="M114.093,193.2h-6.646v-55.976h11.922c6.576,0,11.989,5.345,11.989,11.922v13.839
				c0,3.083-1.438,6.166-3.563,8.357c2.604,2.33,4.043,5.688,4.043,9.045V193.2h-6.646v-12.813c0-3.016-2.535-5.551-5.48-5.551
				h-5.617V193.2z M114.093,143.801v24.459h5.549c2.809,0,5.002-2.467,5.002-5.275v-13.839c0-2.946-2.33-5.345-5.275-5.345H114.093z
				"/>
			<path fill="#333333" d="M145.261,193.2h-6.576v-55.976h6.576V193.2z"/>
			<path fill="#333333" d="M174.31,137.224v6.577h-14.936v13.429h13.086v6.577h-13.086v22.814h14.936v6.576h-21.514v-55.975
				L174.31,137.224L174.31,137.224z"/>
			<path fill="#333333" d="M179.789,193.2v-55.976h11.92c6.234,0,11.922,4.796,11.922,11.305v33.365
				c0,6.509-5.688,11.306-11.922,11.306H179.789z M186.365,143.665v43.094h5.344c2.74,0,5.275-2.055,5.275-4.863V148.53
				c0-2.809-2.535-4.863-5.275-4.863h-5.344V143.665z"/>
		</g>
		<g enable-background="new    ">
			<path fill="#333333" d="M23.388,238.225c-2.445,2.386-5.368,3.579-8.828,3.579c-5.129,0-9.603-3.042-11.631-7.755
				c-0.955-2.266-1.193-4.891-1.193-7.336v-11.811c0-7.635,4.712-14.314,12.824-14.314c8.052,0,12.824,6.74,12.824,14.314v11.811
				C27.384,231.187,26.668,235.004,23.388,238.225z M23.388,215.797c0-3.16-0.477-6.858-2.922-9.125
				c-1.551-1.432-3.817-2.506-5.905-2.506c-3.34,0-6.8,2.445-7.933,5.606c-0.596,1.67-0.895,4.235-0.895,6.024v10.259
				c0,3.46,0.239,6.979,2.744,9.604c1.73,1.789,3.579,2.563,6.084,2.563c3.639,0,6.859-2.207,8.052-5.666
				c0.597-1.851,0.775-4.593,0.775-6.502V215.797z"/>
			<path fill="#333333" d="M41.04,241.088h-4.175l16.403-36.205H34.36v-3.579h22.964v3.579L41.04,241.088z"/>
			<path fill="#333333" d="M59.708,241.088v-6.74h3.997v6.74H59.708z"/>
			<path fill="#333333" d="M88.515,225.282L75.691,237.51h19.862v3.578h-25.23v-3.578l13.957-13.479
				c3.102-2.982,7.516-6.74,7.516-11.394s-3.997-8.47-8.589-8.47c-3.579,0-6.979,2.326-8.112,5.785
				c-0.477,1.49-0.537,2.685-0.537,4.234h-3.937v-0.299c0-7.694,4.951-13.301,12.824-13.301c6.74,0,12.347,5.367,12.347,12.168
				C95.792,218.125,92.154,221.823,88.515,225.282z"/>
			<path fill="#333333" d="M114.162,241.804c-5.428,0-10.021-3.042-12.347-7.933c-0.835-1.73-1.133-3.4-1.372-5.25h3.877
				c0.656,5.25,4.234,9.604,9.781,9.604s9.484-4.95,9.484-10.26c0-5.367-3.996-10.379-9.604-10.379c-3.34,0-6.144,1.97-8.172,4.475
				l-3.042-1.133l3.579-19.624h17.896v3.579h-14.732l-2.029,11.033c2.268-1.192,4.295-1.908,6.859-1.908
				c7.576,0,13.242,6.562,13.242,13.957C127.582,235.482,121.796,241.804,114.162,241.804z"/>
			<path fill="#333333" d="M133.96,241.088v-6.74h3.996v6.74H133.96z"/>
			<path fill="#333333" d="M157.4,241.088v-36.205h-6.859v-3.579h10.797v39.784H157.4z"/>
			<path fill="#333333" d="M185.611,241.804c-5.428,0-10.021-3.042-12.347-7.933c-0.835-1.73-1.134-3.4-1.372-5.25h3.877
				c0.656,5.25,4.234,9.604,9.782,9.604c5.547,0,9.483-4.95,9.483-10.26c0-5.367-3.996-10.379-9.604-10.379
				c-3.341,0-6.144,1.97-8.171,4.475l-3.042-1.133l3.577-19.624h17.896v3.579h-14.731l-2.028,11.033
				c2.267-1.192,4.295-1.908,6.858-1.908c7.576,0,13.242,6.562,13.242,13.957C199.031,235.482,193.246,241.804,185.611,241.804z"/>
		</g>
		<g enable-background="new    ">
			<path fill="#333333" d="M31.72,77.067c1.369,0.445,2.431,1.232,3.185,2.362c0.753,1.131,1.13,2.518,1.13,4.161
				c0,1.713-0.48,3.339-1.438,4.88c-0.959,1.541-2.26,2.902-3.904,4.084c-1.644,1.182-3.563,2.124-5.753,2.825
				c-2.192,0.701-4.503,1.053-6.935,1.053c-2.397,0-4.606-0.308-6.627-0.924c-2.021-0.617-3.768-1.481-5.239-2.595
				c-1.473-1.112-2.62-2.439-3.442-3.98c-0.822-1.541-1.233-3.219-1.233-5.034c0-1.267,0.206-2.474,0.617-3.622
				c0.411-1.146,0.993-2.19,1.747-3.133c0.752-0.941,1.644-1.772,2.671-2.492c1.027-0.719,2.158-1.267,3.39-1.644
				c-0.171-0.753-0.257-1.421-0.257-2.003c0-1.13,0.197-2.184,0.591-3.159c0.394-0.977,0.933-1.841,1.618-2.595
				c0.685-0.753,1.49-1.335,2.415-1.746c0.924-0.411,1.917-0.616,2.979-0.616c0.993,0,1.918,0.23,2.774,0.693
				c0.856,0.462,1.593,1.088,2.209,1.875c0.617,0.788,1.07,1.713,1.361,2.773c0.291,1.063,0.351,2.192,0.18,3.391l-0.873-0.154
				c0.068-0.719,0.008-1.446-0.18-2.183c-0.189-0.736-0.48-1.404-0.874-2.004c-0.394-0.599-0.908-1.087-1.541-1.464
				c-0.634-0.376-1.361-0.565-2.183-0.565c-1.473,0-2.671,0.545-3.596,1.632c-0.925,1.089-1.387,2.517-1.387,4.284
				c0,0.204,0.008,0.399,0.026,0.587c0.017,0.187,0.042,0.365,0.077,0.535h0.822c0.925,0,1.78,0.112,2.568,0.336
				c0.788,0.225,1.472,0.544,2.055,0.958c0.582,0.414,1.036,0.888,1.361,1.422c0.325,0.534,0.488,1.112,0.488,1.733
				c0,0.793-0.326,1.449-0.976,1.966c-0.651,0.518-1.524,0.776-2.62,0.776c-1.507,0-2.876-0.539-4.109-1.618
				c-1.233-1.079-2.124-2.405-2.671-3.981c-1.679,0.583-2.997,1.533-3.956,2.852c-0.959,1.318-1.438,2.868-1.438,4.648
				c0,1.919,0.385,3.64,1.156,5.163s1.875,2.808,3.313,3.853s3.185,1.841,5.24,2.389c2.055,0.548,4.383,0.821,6.986,0.821
				c1.986,0,3.818-0.265,5.497-0.796c1.677-0.53,3.125-1.25,4.34-2.157c1.215-0.907,2.166-1.969,2.851-3.186
				c0.685-1.215,1.027-2.524,1.027-3.93c0-0.821-0.137-1.583-0.411-2.285c-0.275-0.702-0.66-1.327-1.156-1.875
				c-0.497-0.548-1.062-0.977-1.695-1.284c-0.634-0.309-1.31-0.463-2.029-0.463c-0.583,0-1.19,0.13-1.823,0.389
				c-0.634,0.259-1.208,0.587-1.721,0.983c-0.513,0.396-0.942,0.828-1.284,1.294c-0.343,0.466-0.514,0.923-0.514,1.371
				c0,0.862,0.308,1.553,0.925,2.069c0.616,0.518,1.49,0.811,2.62,0.88c-0.308-0.171-0.505-0.428-0.591-0.771
				c-0.085-0.342-0.085-0.693,0-1.053s0.274-0.668,0.565-0.925c0.291-0.257,0.676-0.386,1.156-0.386c0.514,0,0.958,0.181,1.335,0.54
				c0.376,0.359,0.565,0.779,0.565,1.258c0,0.617-0.231,1.148-0.693,1.593s-1.071,0.668-1.824,0.668
				c-1.541,0-2.825-0.479-3.853-1.438c-1.027-0.958-1.541-2.26-1.541-3.904c0-1.13,0.351-2.063,1.053-2.799
				c0.701-0.736,1.575-1.361,2.62-1.875c1.044-0.514,2.174-0.968,3.39-1.361c1.215-0.394,2.346-0.822,3.391-1.284
				c1.044-0.463,1.917-1.019,2.62-1.67c0.702-0.65,1.053-1.472,1.053-2.466c0-1.096-0.352-1.985-1.053-2.671
				c-0.702-0.685-1.652-1.079-2.851-1.182c0.274,0.172,0.471,0.437,0.591,0.797c0.12,0.359,0.146,0.728,0.077,1.104
				c-0.069,0.378-0.249,0.712-0.54,1.002c-0.291,0.292-0.693,0.437-1.207,0.437c-0.583,0-1.062-0.18-1.438-0.539
				c-0.377-0.359-0.565-0.83-0.565-1.413c0-0.649,0.274-1.215,0.822-1.694c0.547-0.479,1.199-0.72,1.952-0.72
				c0.788,0,1.523,0.18,2.209,0.539c0.685,0.36,1.284,0.848,1.798,1.465c0.514,0.616,0.916,1.335,1.207,2.157
				c0.291,0.821,0.437,1.695,0.437,2.62c0,0.719-0.12,1.379-0.359,1.978c-0.24,0.6-0.634,1.155-1.182,1.669
				c-0.548,0.514-1.276,1.002-2.183,1.464C34.125,76.219,33.021,76.656,31.72,77.067z M15.231,76.399
				c0.89,0.822,1.866,1.232,2.928,1.232c0.342,0,0.633-0.119,0.874-0.359c0.239-0.239,0.359-0.53,0.359-0.873
				c0-0.411-0.146-0.805-0.437-1.182c-0.292-0.376-0.677-0.719-1.156-1.027c-0.48-0.309-1.036-0.547-1.669-0.719
				c-0.634-0.171-1.31-0.257-2.029-0.257h-0.719C13.724,74.516,14.34,75.577,15.231,76.399z"/>
		</g>
		<g enable-background="new    ">
			<path fill="#333333" d="M42.215,94.663l2.662-0.21c1.587-0.093,2.708-0.386,3.362-0.876c0.653-0.49,1.144-1.459,1.471-2.906
				l7.916-36.355c-0.28-0.326-0.701-0.571-1.261-0.735c-0.561-0.163-1.215-0.291-1.961-0.386l-2.802-0.21l-0.14-1.051H64.07
				l5.884,35.935l0.14,0.07l21.014-36.005h11.979l-0.28,1.051l-3.292,0.351c-1.028,0.14-1.751,0.304-2.171,0.49
				c-0.42,0.188-0.655,0.397-0.701,0.631l-6.865,37.125c-0.094,1.027,0.023,1.705,0.351,2.031c0.326,0.327,1.167,0.585,2.521,0.771
				l2.592,0.28l0.07,1.051H77.59l0.21-1.051l3.572-0.351c1.027-0.093,1.762-0.35,2.207-0.771c0.443-0.42,0.736-1.12,0.876-2.101
				l6.584-36.146h-0.21L67.363,95.293h-1.401l-6.585-38.806c-0.094-0.374-0.187-0.677-0.28-0.911
				c-0.094-0.233-0.188-0.443-0.28-0.63L51.182,90.74c-0.234,1.354-0.047,2.289,0.561,2.802c0.606,0.515,1.821,0.818,3.642,0.911
				l2.312,0.21l0.14,1.051H42.005L42.215,94.663z"/>
			<path fill="#333333" d="M119.41,96.624c-0.328,0-0.736-0.104-1.227-0.314c-0.491-0.21-0.971-0.468-1.436-0.771
				c-0.469-0.304-0.854-0.642-1.156-1.016c-0.305-0.374-0.455-0.724-0.455-1.051c0-0.606,0.279-1.867,0.84-3.783
				c0.561-1.914,1.377-4.413,2.452-7.495h-0.28c-1.215,2.009-2.371,3.888-3.467,5.639c-1.098,1.752-2.148,3.27-3.152,4.554
				c-1.006,1.285-1.986,2.301-2.941,3.047c-0.959,0.746-1.928,1.121-2.907,1.121c-1.636,0-3.023-0.666-4.167-1.997
				c-1.145-1.33-1.716-3.093-1.716-5.288c0-1.867,0.303-3.771,0.911-5.709c0.606-1.938,1.389-3.806,2.346-5.604
				s2.02-3.49,3.188-5.079c1.168-1.587,2.334-2.965,3.502-4.133c1.121-1.166,2.357-2.112,3.713-2.837
				c1.354-0.724,2.639-1.086,3.854-1.086c2.476,0,3.853,2.102,4.133,6.305h0.21l2.172-6.584l4.272,0.14l-4.834,14.43l-4.063,14.149
				l3.082,0.421l5.113-6.795l0.631,0.49c-1.494,2.989-3.002,5.278-4.518,6.865C121.99,95.83,120.623,96.624,119.41,96.624z
				 M107.781,93.051c0.653,0,1.389-0.35,2.207-1.051c0.816-0.7,1.703-1.704,2.662-3.012c0.956-1.307,1.973-2.86,3.047-4.658
				c1.073-1.797,2.193-3.794,3.361-5.989c0.141-0.326,0.305-0.735,0.49-1.226c0.186-0.491,0.361-0.98,0.525-1.471
				c0.164-0.491,0.291-0.957,0.385-1.401c0.094-0.443,0.141-0.781,0.141-1.016c-0.141-0.653-0.385-1.307-0.734-1.961
				c-0.352-0.654-0.807-1.249-1.367-1.787c-0.56-0.536-1.18-0.98-1.854-1.33c-0.679-0.351-1.413-0.525-2.207-0.525
				c-0.7,0-1.319,0.151-1.854,0.455c-0.537,0.304-1.063,0.712-1.576,1.226c-0.795,0.795-1.576,1.915-2.348,3.362
				c-0.771,1.448-1.472,3.036-2.102,4.764s-1.146,3.479-1.541,5.253c-0.396,1.775-0.596,3.387-0.596,4.834
				c0,1.868,0.326,3.257,0.98,4.168C106.052,92.596,106.846,93.051,107.781,93.051z"/>
			<path fill="#333333" d="M131.527,95.643l3.643-11.207l4.412-16.602l-2.94-0.351l-4.974,7.075l-0.631-0.561
				c1.446-3.035,2.931-5.382,4.447-7.04c1.518-1.657,2.953-2.486,4.309-2.486c0.326,0,0.711,0.117,1.156,0.35
				c0.442,0.234,0.863,0.538,1.26,0.911c0.396,0.374,0.736,0.795,1.017,1.261c0.28,0.468,0.42,0.935,0.42,1.401
				c0,0.42-0.104,1.109-0.313,2.066c-0.211,0.957-0.516,2.09-0.91,3.397c-0.398,1.308-0.854,2.756-1.367,4.343
				c-0.514,1.588-1.074,3.269-1.682,5.043h0.422c0.934-1.867,1.844-3.653,2.73-5.358c0.887-1.704,1.717-3.245,2.487-4.623
				c0.771-1.377,1.481-2.568,2.136-3.572c0.653-1.004,1.237-1.739,1.751-2.207c0.841-1.073,1.589-1.856,2.242-2.347
				c0.651-0.49,1.494-0.711,2.521-0.665c1.262,0.094,2.265,0.561,3.013,1.4c0.745,0.841,1.097,1.799,1.051,2.872
				c-0.047,1.028-0.396,1.868-1.051,2.522c-0.655,0.654-1.378,0.957-2.173,0.91c-0.514,0-0.991-0.14-1.436-0.42
				c-0.443-0.28-0.76-0.642-0.945-1.086c-0.188-0.443-0.233-0.946-0.141-1.506c0.094-0.561,0.42-1.121,0.98-1.682
				c-0.326-0.093-0.607-0.21-0.84-0.35c-0.467-0.233-0.748-0.351-0.842-0.351c-0.794,0.467-2.16,2.219-4.098,5.254
				c-1.938,3.036-4.564,7.682-7.88,13.939l-3.082,10.017L131.527,95.643z"/>
			<path fill="#333333" d="M162.697,96.624c-0.326,0-0.771-0.082-1.33-0.245c-0.561-0.164-1.109-0.374-1.646-0.63
				c-0.537-0.256-0.979-0.525-1.331-0.806c-0.352-0.281-0.525-0.536-0.525-0.771c0-0.093,0.211-0.771,0.631-2.031
				c0.42-1.261,0.945-2.813,1.576-4.658c0.631-1.845,1.318-3.841,2.065-5.989c0.747-2.147,1.459-4.179,2.137-6.094
				c0.677-1.915,1.271-3.561,1.787-4.938c0.513-1.377,0.815-2.229,0.91-2.557l-3.433-0.351l-4.975,7.005l-0.699-0.561
				c1.493-2.988,3.047-5.312,4.657-6.97c1.61-1.657,3.093-2.486,4.448-2.486c0.42,0,0.852,0.116,1.295,0.35s0.852,0.537,1.227,0.911
				c0.373,0.374,0.676,0.794,0.91,1.261c0.233,0.467,0.352,0.935,0.352,1.4c0,0.234-0.199,0.97-0.596,2.207
				c-0.397,1.237-0.889,2.721-1.472,4.448c-0.585,1.728-1.237,3.584-1.962,5.568c-0.725,1.985-1.4,3.853-2.031,5.604
				c-0.63,1.752-1.18,3.258-1.646,4.519c-0.467,1.261-0.771,2.056-0.91,2.382l3.363,0.49l5.113-6.725l0.629,0.49
				c-1.494,2.942-3.035,5.208-4.623,6.795C165.033,95.83,163.724,96.624,162.697,96.624z M172.083,58.097
				c-0.936,0-1.67-0.291-2.207-0.875s-0.805-1.319-0.805-2.207c0-1.166,0.325-2.159,0.979-2.977
				c0.653-0.816,1.377-1.226,2.172-1.226c0.979,0,1.737,0.292,2.274,0.875c0.537,0.585,0.808,1.32,0.808,2.207
				c-0.047,1.168-0.397,2.16-1.052,2.977C173.601,57.689,172.876,58.097,172.083,58.097z"/>
			<path fill="#333333" d="M195.83,96.624c-0.328,0-0.771-0.082-1.332-0.245c-0.561-0.164-1.098-0.374-1.61-0.63
				s-0.957-0.536-1.33-0.841c-0.375-0.303-0.562-0.571-0.562-0.806c0-0.28,0.15-0.887,0.455-1.821
				c0.303-0.934,0.678-2.031,1.121-3.292c0.443-1.261,0.945-2.638,1.506-4.133c0.562-1.494,1.098-2.942,1.611-4.343
				c0.373-1.027,0.758-2.066,1.156-3.117c0.396-1.051,0.758-2.055,1.085-3.013c0.325-0.956,0.596-1.786,0.806-2.486
				c0.211-0.7,0.314-1.214,0.314-1.541c0-0.7-0.326-1.318-0.98-1.856c-0.654-0.536-1.377-0.806-2.171-0.806
				c-0.515,0-1.261,0.515-2.241,1.541c-0.979,1.028-2.102,2.464-3.363,4.309c-1.26,1.845-2.625,4.074-4.098,6.689
				c-1.471,2.615-2.977,5.511-4.518,8.686l-2.172,7.075l-4.693-0.351l3.503-11.207l4.554-16.531l-2.942-0.351l-4.974,7.005
				l-0.631-0.561c1.447-3.035,2.953-5.382,4.52-7.04c1.563-1.657,3.021-2.486,4.378-2.486c0.325,0,0.7,0.117,1.121,0.35
				c0.42,0.234,0.827,0.538,1.226,0.911c0.396,0.374,0.725,0.795,0.98,1.261c0.257,0.468,0.386,0.935,0.386,1.401
				c0,0.42-0.129,1.19-0.386,2.312c-0.258,1.12-0.62,2.429-1.086,3.923c-0.469,1.494-0.992,3.141-1.575,4.938
				c-0.585,1.799-1.203,3.585-1.856,5.359l0.42,0.14c1.026-2.007,2.078-3.969,3.151-5.884c1.074-1.914,2.125-3.666,3.151-5.254
				c1.027-1.587,1.974-2.987,2.839-4.203c0.862-1.213,1.599-2.124,2.206-2.731c1.634-1.634,3.244-2.451,4.832-2.451
				c0.562,0,1.133,0.116,1.718,0.35c0.583,0.234,1.108,0.561,1.575,0.98c0.467,0.421,0.853,0.9,1.156,1.437s0.455,1.109,0.455,1.716
				c0,0.468-0.095,1.098-0.281,1.892c-0.187,0.795-0.442,1.705-0.77,2.731c-0.328,1.028-0.701,2.126-1.121,3.293
				s-0.865,2.358-1.33,3.572c-0.375,1.074-0.818,2.301-1.332,3.678c-0.514,1.378-1.016,2.708-1.506,3.992
				c-0.49,1.285-0.91,2.406-1.261,3.362c-0.351,0.958-0.573,1.53-0.665,1.716l3.15,0.421l5.115-6.795l0.629,0.49
				c-1.494,2.989-3.013,5.278-4.554,6.865S196.81,96.624,195.83,96.624z"/>
		</g>
	</g>
</g>
<g id="Layer_2">
	<g>
		<g enable-background="new    ">
			<path fill="#FFFFFF" d="M0.595,43.755l3.358-0.35c0.979-0.093,1.667-0.245,2.064-0.455c0.396-0.21,0.618-0.431,0.665-0.664
				l7.417-38.832c0.046-0.279-0.082-0.478-0.385-0.595c-0.304-0.115-1.131-0.268-2.484-0.454l-2.659-0.28l-0.07-1.05h17.702
				l-0.28,1.05l-3.568,0.35c-0.979,0.094-1.691,0.245-2.134,0.455c-0.444,0.21-0.688,0.432-0.734,0.665l-4.198,21.969L30.471,12.55
				c2.659-2.238,4.676-4.011,6.052-5.317c1.375-1.306,2.239-2.297,2.589-2.974c0.35-0.676,0.256-1.119-0.28-1.329
				c-0.537-0.21-1.388-0.385-2.554-0.524l-2.869-0.28v-1.05h16.512l-0.21,0.979l-1.539,0.141c-1.027,0.094-1.901,0.257-2.624,0.489
				c-0.724,0.234-1.586,0.7-2.589,1.399s-2.298,1.714-3.883,3.044c-1.586,1.329-3.755,3.138-6.507,5.422l-5.527,4.897l9.726,21.76
				c0.42,0.979,0.77,1.738,1.049,2.274c0.279,0.536,0.583,0.944,0.91,1.225c0.326,0.279,0.676,0.467,1.049,0.56
				c0.373,0.094,0.863,0.187,1.47,0.279l2.169,0.21l0.14,1.05H26.762l0.21-1.05l2.309-0.21c1.305-0.093,2.029-0.524,2.169-1.294
				c0.14-0.77-0.047-1.83-0.56-3.184l-7.976-18.262l-7.976,6.717l-2.869,14.903c-0.047,0.28,0.093,0.49,0.42,0.63
				c0.326,0.14,1.189,0.279,2.588,0.42l2.939,0.279l0.14,1.05H0.385L0.595,43.755z"/>
			<path fill="#FFFFFF" d="M47.822,44.735l3.638-11.194l4.408-16.582l-2.938-0.35l-4.968,7.066l-0.629-0.56
				c1.445-3.032,2.926-5.376,4.443-7.032c1.515-1.655,2.949-2.483,4.303-2.483c0.326,0,0.71,0.117,1.154,0.35
				c0.443,0.234,0.863,0.537,1.26,0.91c0.396,0.373,0.734,0.793,1.014,1.259c0.28,0.467,0.42,0.934,0.42,1.399
				c0,0.42-0.105,1.108-0.315,2.064c-0.21,0.956-0.514,2.088-0.909,3.393c-0.397,1.307-0.852,2.753-1.365,4.338
				c-0.514,1.587-1.073,3.266-1.679,5.038h0.42c0.933-1.865,1.842-3.649,2.729-5.353c0.886-1.702,1.714-3.241,2.484-4.618
				c0.77-1.375,1.48-2.564,2.134-3.567c0.652-1.003,1.235-1.737,1.749-2.204c0.84-1.073,1.585-1.854,2.239-2.344
				c0.653-0.49,1.493-0.711,2.519-0.665c1.259,0.094,2.262,0.56,3.008,1.399c0.746,0.84,1.096,1.796,1.05,2.868
				c-0.047,1.026-0.397,1.866-1.05,2.52c-0.653,0.653-1.376,0.956-2.169,0.909c-0.514,0-0.991-0.14-1.434-0.42
				c-0.444-0.28-0.759-0.641-0.945-1.084c-0.187-0.443-0.234-0.945-0.14-1.505c0.093-0.56,0.42-1.119,0.979-1.679
				c-0.327-0.093-0.607-0.21-0.84-0.351c-0.467-0.232-0.747-0.35-0.839-0.35c-0.794,0.467-2.158,2.216-4.093,5.248
				c-1.936,3.032-4.56,7.673-7.871,13.923L52.51,45.084L47.822,44.735z"/>
			<path fill="#FFFFFF" d="M78.957,45.714c-0.327,0-0.77-0.082-1.33-0.244c-0.56-0.164-1.108-0.374-1.644-0.63
				c-0.537-0.256-0.979-0.525-1.33-0.805c-0.35-0.28-0.524-0.536-0.524-0.77c0-0.093,0.209-0.77,0.629-2.029
				c0.42-1.259,0.945-2.81,1.574-4.652c0.63-1.843,1.317-3.837,2.064-5.982c0.746-2.146,1.458-4.174,2.134-6.087
				c0.675-1.912,1.27-3.557,1.784-4.933c0.513-1.376,0.815-2.228,0.91-2.554l-3.429-0.351l-4.967,6.997l-0.7-0.56
				c1.492-2.984,3.043-5.306,4.653-6.962c1.609-1.655,3.089-2.483,4.443-2.483c0.419,0,0.85,0.116,1.294,0.35
				c0.443,0.233,0.851,0.536,1.225,0.909c0.373,0.374,0.676,0.794,0.91,1.26c0.233,0.467,0.35,0.934,0.35,1.399
				c0,0.233-0.199,0.969-0.595,2.204c-0.396,1.236-0.886,2.718-1.469,4.442c-0.583,1.727-1.236,3.58-1.959,5.563
				c-0.724,1.983-1.399,3.848-2.029,5.598c-0.63,1.749-1.179,3.253-1.645,4.513c-0.467,1.259-0.77,2.053-0.91,2.379l3.358,0.489
				l5.108-6.717l0.629,0.49c-1.493,2.938-3.032,5.201-4.618,6.786C81.289,44.921,79.982,45.714,78.957,45.714z M88.332,7.233
				c-0.934,0-1.668-0.291-2.204-0.874c-0.537-0.583-0.805-1.317-0.805-2.204c0-1.166,0.326-2.157,0.979-2.974
				c0.653-0.815,1.375-1.225,2.169-1.225c0.98,0,1.737,0.292,2.274,0.874c0.536,0.584,0.805,1.319,0.805,2.204
				c-0.047,1.167-0.396,2.158-1.049,2.974C89.848,6.826,89.125,7.233,88.332,7.233z"/>
			<path fill="#FFFFFF" d="M97.357,45.714c-1.12,0-2.204-0.129-3.253-0.385c-1.05-0.257-1.971-0.617-2.764-1.084
				c-0.794-0.466-1.423-1.061-1.889-1.784c-0.466-0.723-0.7-1.527-0.7-2.414c0-0.933,0.28-1.714,0.839-2.344
				c0.56-0.63,1.283-0.944,2.169-0.944c0.745,0,1.352,0.269,1.819,0.805c0.466,0.536,0.7,1.154,0.7,1.854
				c0,0.514-0.187,1.062-0.56,1.645c-0.374,0.584-0.747,0.991-1.12,1.225c0.653,0.497,1.55,0.972,2.694,1.423
				c1.142,0.453,2.274,0.701,3.393,0.746c0.933-0.093,1.725-0.337,2.379-0.732c0.653-0.396,1.201-0.885,1.645-1.466
				c0.441-0.582,0.771-1.211,0.979-1.885c0.211-0.675,0.315-1.292,0.315-1.852c0-0.743-0.152-1.441-0.455-2.093
				c-0.305-0.652-0.7-1.269-1.189-1.851c-0.489-0.581-1.039-1.164-1.644-1.745c-0.607-0.582-1.213-1.175-1.819-1.78
				c-0.747-0.697-1.458-1.396-2.134-2.095c-0.677-0.697-1.271-1.407-1.784-2.128c-0.514-0.722-0.921-1.467-1.225-2.233
				c-0.304-0.768-0.455-1.595-0.455-2.479c0-1.257,0.303-2.408,0.91-3.455c0.605-1.047,1.387-1.932,2.344-2.653
				c0.956-0.722,2.017-1.291,3.184-1.71c1.166-0.419,2.309-0.628,3.428-0.628c2.1,0,3.885,0.419,5.354,1.259
				c1.469,0.84,2.227,2.216,2.273,4.128c0,0.979-0.303,1.749-0.91,2.31c-0.605,0.56-1.305,0.839-2.098,0.839
				c-0.748,0-1.354-0.256-1.82-0.77c-0.467-0.513-0.699-1.143-0.699-1.889c0-0.56,0.163-1.096,0.49-1.609
				c0.326-0.513,0.723-0.886,1.188-1.119c-0.653-0.466-1.389-0.886-2.204-1.26c-0.816-0.373-1.689-0.583-2.623-0.63
				c-0.84,0.047-1.575,0.257-2.205,0.63c-0.63,0.374-1.154,0.816-1.574,1.329c-0.42,0.514-0.735,1.097-0.944,1.749
				c-0.21,0.654-0.315,1.284-0.315,1.89c0,1.307,0.455,2.508,1.364,3.604c0.909,1.096,2.04,2.273,3.394,3.533
				c0.653,0.606,1.316,1.248,1.995,1.924c0.676,0.677,1.315,1.399,1.924,2.169c0.604,0.77,1.096,1.599,1.469,2.483
				c0.373,0.887,0.561,1.819,0.561,2.799c0,1.26-0.313,2.414-0.945,3.464c-0.629,1.049-1.434,1.959-2.414,2.729
				c-0.979,0.77-2.088,1.376-3.322,1.819C99.864,45.493,98.617,45.714,97.357,45.714z"/>
			<path fill="#FFFFFF" d="M117.438,45.714c-0.327,0-0.817-0.082-1.47-0.244c-0.653-0.164-1.271-0.374-1.854-0.63
				c-0.584-0.256-1.084-0.525-1.505-0.805c-0.42-0.28-0.606-0.536-0.561-0.77l7.065-26.098l-5.387-0.14l0.629-2.169l5.458-0.561
				l2.519-9.096h4.479l-2.521,9.376l6.646,0.07l-0.068,2.448h-7.276l-7.207,25.258l3.778,0.42l5.037-6.717l0.629,0.49
				c-1.492,2.938-2.996,5.201-4.512,6.786C119.804,44.921,118.51,45.714,117.438,45.714z"/>
			<path fill="#FFFFFF" d="M135.35,45.714c-0.327,0-0.771-0.082-1.329-0.244c-0.561-0.164-1.109-0.374-1.645-0.63
				c-0.537-0.256-0.979-0.525-1.33-0.805c-0.35-0.28-0.523-0.536-0.523-0.77c0-0.093,0.209-0.77,0.629-2.029
				c0.42-1.259,0.945-2.81,1.574-4.652c0.63-1.843,1.316-3.837,2.064-5.982c0.744-2.146,1.457-4.174,2.133-6.087
				c0.676-1.912,1.271-3.557,1.785-4.933c0.513-1.376,0.814-2.228,0.91-2.554l-3.431-0.351l-4.967,6.997l-0.699-0.56
				c1.492-2.984,3.043-5.306,4.651-6.962c1.609-1.655,3.091-2.483,4.443-2.483c0.42,0,0.851,0.116,1.293,0.35
				c0.443,0.234,0.853,0.536,1.226,0.909c0.373,0.374,0.676,0.794,0.909,1.26c0.232,0.467,0.351,0.934,0.351,1.399
				c0,0.233-0.198,0.969-0.595,2.204c-0.396,1.236-0.887,2.718-1.471,4.442c-0.582,1.727-1.235,3.58-1.959,5.563
				c-0.723,1.983-1.397,3.848-2.027,5.598c-0.631,1.749-1.18,3.253-1.645,4.513c-0.468,1.259-0.771,2.053-0.91,2.379l3.357,0.489
				l5.107-6.717l0.631,0.49c-1.494,2.938-3.033,5.201-4.618,6.786C137.681,44.921,136.375,45.714,135.35,45.714z M144.726,7.233
				c-0.934,0-1.669-0.291-2.205-0.874s-0.805-1.317-0.805-2.204c0-1.166,0.326-2.157,0.98-2.974
				c0.651-0.815,1.375-1.225,2.168-1.225c0.979,0,1.737,0.292,2.273,0.874c0.535,0.584,0.805,1.319,0.805,2.204
				c-0.047,1.167-0.396,2.158-1.05,2.974C146.242,6.826,145.518,7.233,144.726,7.233z"/>
			<path fill="#FFFFFF" d="M168.443,45.714c-0.326,0-0.77-0.082-1.328-0.244c-0.561-0.164-1.098-0.374-1.609-0.63
				c-0.514-0.256-0.957-0.536-1.329-0.84c-0.373-0.303-0.56-0.57-0.56-0.805c0-0.279,0.15-0.886,0.453-1.819
				c0.305-0.933,0.676-2.028,1.12-3.288c0.442-1.26,0.944-2.635,1.505-4.128c0.559-1.492,1.096-2.938,1.609-4.338
				c0.372-1.025,0.757-2.064,1.154-3.113c0.395-1.05,0.758-2.053,1.084-3.009s0.595-1.784,0.805-2.484
				c0.21-0.699,0.314-1.212,0.314-1.539c0-0.699-0.326-1.317-0.979-1.854c-0.654-0.536-1.377-0.805-2.17-0.805
				c-0.515,0-1.261,0.514-2.238,1.539c-0.979,1.026-2.101,2.461-3.358,4.303c-1.26,1.843-2.623,4.07-4.092,6.682
				c-1.472,2.613-2.976,5.505-4.515,8.676l-2.169,7.067l-4.688-0.351l3.498-11.194l4.547-16.512l-2.938-0.351l-4.969,6.997
				l-0.629-0.56c1.445-3.032,2.949-5.376,4.513-7.032c1.563-1.655,3.021-2.483,4.373-2.483c0.325,0,0.7,0.117,1.118,0.35
				c0.421,0.234,0.828,0.537,1.226,0.91s0.724,0.793,0.979,1.259c0.257,0.467,0.386,0.934,0.386,1.399
				c0,0.42-0.129,1.189-0.386,2.309c-0.258,1.12-0.618,2.426-1.084,3.919c-0.467,1.493-0.991,3.137-1.574,4.933
				c-0.584,1.796-1.202,3.58-1.854,5.354l0.42,0.14c1.024-2.005,2.074-3.964,3.147-5.877c1.071-1.912,2.122-3.662,3.147-5.248
				c1.025-1.585,1.972-2.984,2.834-4.198c0.863-1.212,1.599-2.122,2.205-2.729c1.631-1.632,3.24-2.448,4.826-2.448
				c0.561,0,1.131,0.116,1.715,0.35c0.582,0.233,1.107,0.56,1.574,0.979c0.465,0.42,0.85,0.898,1.154,1.435
				c0.303,0.536,0.455,1.108,0.455,1.714c0,0.467-0.094,1.097-0.28,1.889c-0.187,0.794-0.444,1.703-0.771,2.729
				s-0.699,2.123-1.119,3.288c-0.42,1.166-0.863,2.355-1.328,3.568c-0.375,1.073-0.816,2.298-1.33,3.673
				c-0.514,1.377-1.016,2.706-1.504,3.988c-0.49,1.283-0.91,2.403-1.26,3.358c-0.351,0.957-0.572,1.528-0.664,1.714l3.147,0.42
				l5.107-6.786l0.629,0.489c-1.492,2.985-3.009,5.271-4.547,6.856C170.683,44.921,169.423,45.714,168.443,45.714z"/>
			<path fill="#FFFFFF" d="M188.314,45.714c-1.307,0-2.484-0.269-3.533-0.805c-1.05-0.535-1.947-1.259-2.693-2.169
				c-0.748-0.909-1.318-1.981-1.715-3.218c-0.396-1.235-0.594-2.53-0.594-3.884c0-2.658,0.477-5.293,1.434-7.906
				c0.955-2.611,2.216-4.967,3.777-7.066c1.563-2.099,3.336-3.789,5.318-5.072c1.982-1.282,3.977-1.924,5.982-1.924
				c2.099,0,3.789,0.5,5.072,1.501c1.281,1,1.924,2.244,1.924,3.733c0,1.117-0.34,2.129-1.016,3.036
				c-0.677,0.908-1.749,1.77-3.218,2.583c-1.47,0.814-3.336,1.629-5.599,2.443c-2.264,0.814-5.002,1.687-8.221,2.617
				c-0.234,0.791-0.41,1.616-0.525,2.477c-0.116,0.861-0.174,1.688-0.174,2.479c0,2.56,0.535,4.525,1.608,5.898
				c1.071,1.373,2.495,2.059,4.269,2.059c1.491,0,2.949-0.525,4.373-1.574c1.422-1.05,2.949-2.74,4.582-5.073l0.699,0.49
				c-0.746,1.213-1.574,2.379-2.482,3.498c-0.91,1.119-1.854,2.118-2.834,2.992c-0.979,0.875-2.006,1.574-3.078,2.099
				C190.599,45.453,189.479,45.714,188.314,45.714z M191.988,26.333c1.701-0.699,3.055-1.434,4.057-2.203
				c1.004-0.771,1.716-1.598,2.136-2.484s0.629-1.889,0.629-3.009c0-1.025-0.338-1.877-1.015-2.554
				c-0.676-0.676-1.527-1.015-2.555-1.015c-0.699,0-1.41,0.199-2.133,0.595c-0.725,0.397-1.412,0.899-2.064,1.505
				c-1.025,1.026-2.053,2.565-3.078,4.617c-1.026,2.054-1.866,4.293-2.52,6.717l0.141,0.07
				C188.15,27.781,190.285,27.034,191.988,26.333z"/>
		</g>
		<g enable-background="new    ">
			<path fill="#FFFFFF" d="M14.731,118.873H4.623l-3.229,9.081h-1.711l9.075-25.603h1.679l9.301,25.603h-1.711L14.731,118.873z
				 M14.15,117.269l-4.553-12.512l-4.425,12.512H14.15z"/>
			<path fill="#FFFFFF" d="M40.889,127.856h-2.131c-3.509-3.785-7.051-7.348-10.625-10.683c-0.646-0.021-1.507-0.085-2.583-0.192
				v10.973h-1.615v-25.571c2.239-0.278,4.058-0.396,5.458-0.353c3.401,0.107,5.823,0.92,7.266,2.438
				c1.119,1.198,1.69,2.919,1.711,5.165v0.032c0,0.021,0,0.043,0,0.064c-0.215,2.396-0.953,4.166-2.212,5.31
				c-1.26,1.144-3.149,1.834-5.668,2.069C33.999,120.488,37.466,124.071,40.889,127.856z M25.549,115.408
				c0.796,0.064,1.518,0.107,2.164,0.128c0.15-0.021,0.301-0.021,0.452,0c2.605,0,4.554-0.353,5.846-1.059
				c1.722-0.898,2.604-2.513,2.648-4.845c0-1.796-0.474-3.144-1.421-4.042c-1.227-1.197-3.38-1.839-6.459-1.925
				c-0.948-0.021-2.024,0.021-3.229,0.128v11.615H25.549z"/>
			<path fill="#FFFFFF" d="M46.767,113.194h11.335v1.604H46.767v3.112v8.502l11.303-0.033v1.572H45.152V102.35h1.615h11.335v1.604
				H46.767V113.194z"/>
			<path fill="#FFFFFF" d="M94.724,116.499v11.486l-1.098,0.096c-1.356,0.086-3.068,0.129-5.135,0.129
				c-3.058,0-5.383-0.565-6.976-1.701c-1.4-1.004-2.422-2.041-3.068-3.11c-0.991-1.711-1.562-4.096-1.712-7.155h-0.032
				c0-0.042,0-0.235,0-0.577c0-0.235,0-0.406,0-0.514v-1.091h0.032c0.15-3.058,0.721-5.443,1.712-7.154
				c0.646-1.069,1.668-2.106,3.068-3.112c1.593-1.134,3.918-1.701,6.976-1.701c1.076,0,2.648,0.086,4.715,0.257v1.572
				c-2.239-0.193-3.94-0.289-5.103-0.289c-2.282,0-4.059,0.46-5.329,1.38c-1.271,0.919-2.164,1.829-2.68,2.727
				c-0.904,1.519-1.454,3.722-1.647,6.609c-0.022,0.107-0.033,0.375-0.033,0.802c0,0.428,0.011,0.685,0.033,0.77
				c0.193,2.909,0.743,5.124,1.647,6.642c0.517,0.877,1.41,1.78,2.68,2.711s3.046,1.396,5.329,1.396c1.528,0,3.176-0.053,4.941-0.16
				v-10.009H86.52v-1.604h8.203L94.724,116.499L94.724,116.499z"/>
			<path fill="#FFFFFF" d="M101.247,113.194h11.335v1.604h-11.335v3.112v8.502l11.304-0.033v1.572H99.632V102.35h1.615h11.335v1.604
				h-11.335V113.194z"/>
			<path fill="#FFFFFF" d="M130.764,103.923h-6.718v24.031h-1.614v-24.031h-6.718v-1.604h15.05V103.923z"/>
			<path fill="#FFFFFF" d="M148.785,103.923h-6.718v24.031h-1.614v-24.031h-6.718v-1.604h15.05V103.923z"/>
			<path fill="#FFFFFF" d="M155.437,102.287v25.698h-1.615v-25.698H155.437z"/>
			<path fill="#FFFFFF" d="M179.561,102.254l-0.032,25.667h-1.582h-0.033l-14.08-22.619v22.619h-1.614v-25.667h1.614l14.113,22.65
				v-22.65H179.561z"/>
			<path fill="#FFFFFF" d="M202.781,116.499v11.486l-1.099,0.096c-1.356,0.086-3.067,0.129-5.136,0.129
				c-3.057,0-5.383-0.565-6.975-1.701c-1.4-1.004-2.423-2.041-3.068-3.11c-0.99-1.711-1.562-4.096-1.711-7.155h-0.033
				c0-0.042,0-0.235,0-0.577c0-0.235,0-0.406,0-0.514v-1.091h0.033c0.149-3.058,0.721-5.443,1.711-7.154
				c0.646-1.069,1.668-2.106,3.068-3.112c1.592-1.134,3.918-1.701,6.975-1.701c1.076,0,2.647,0.086,4.716,0.257v1.572
				c-2.239-0.193-3.94-0.289-5.103-0.289c-2.283,0-4.06,0.46-5.328,1.38c-1.271,0.919-2.164,1.829-2.682,2.727
				c-0.904,1.519-1.453,3.722-1.646,6.609c-0.021,0.107-0.032,0.375-0.032,0.802c0,0.428,0.011,0.685,0.032,0.77
				c0.193,2.909,0.742,5.124,1.646,6.642c0.518,0.877,1.409,1.78,2.682,2.711c1.27,0.931,3.045,1.396,5.328,1.396
				c1.527,0,3.176-0.053,4.94-0.16v-10.009h-6.522v-1.604h8.203V116.499L202.781,116.499z"/>
		</g>
		<g enable-background="new    ">
			<path fill="#FFFFFF" d="M20.819,192.2h-5.892l-8.153-30.763V192.2H0.197v-55.976h7.125l10.551,42.409l10.62-42.409h6.303V192.2
				H28.15v-30.49L20.819,192.2z"/>
			<path fill="#FFFFFF" d="M61.031,192.2l-1.85-8.359h-9.386l-1.713,8.359h-8.085l11.304-55.976h6.098L69.115,192.2H61.031z
				 M58.564,177.195l-4.18-22.335c-1.302,7.125-2.466,13.977-3.974,22.335H58.564z"/>
			<path fill="#FFFFFF" d="M81.307,192.2h-6.646v-55.976h11.921c6.577,0,11.99,5.345,11.99,11.922v13.839
				c0,3.083-1.439,6.166-3.563,8.357c2.604,2.33,4.042,5.688,4.042,9.045V192.2h-6.646v-12.813c0-3.016-2.535-5.551-5.481-5.551
				h-5.617V192.2z M81.307,142.801v24.459h5.549c2.809,0,5.001-2.467,5.001-5.275v-13.839c0-2.946-2.329-5.345-5.275-5.345H81.307z"
				/>
			<path fill="#FFFFFF" d="M113.093,192.2h-6.646v-55.976h11.922c6.576,0,11.989,5.345,11.989,11.922v13.839
				c0,3.083-1.438,6.166-3.563,8.357c2.604,2.33,4.043,5.688,4.043,9.045V192.2h-6.646v-12.813c0-3.016-2.535-5.551-5.48-5.551
				h-5.617V192.2z M113.093,142.801v24.459h5.549c2.809,0,5.002-2.467,5.002-5.275v-13.839c0-2.946-2.33-5.345-5.275-5.345H113.093z
				"/>
			<path fill="#FFFFFF" d="M144.261,192.2h-6.576v-55.976h6.576V192.2z"/>
			<path fill="#FFFFFF" d="M173.31,136.224v6.577h-14.936v13.429h13.086v6.577h-13.086v22.814h14.936v6.576h-21.514v-55.975
				L173.31,136.224L173.31,136.224z"/>
			<path fill="#FFFFFF" d="M178.789,192.2v-55.976h11.92c6.234,0,11.922,4.796,11.922,11.305v33.365
				c0,6.509-5.688,11.306-11.922,11.306H178.789z M185.365,142.665v43.094h5.344c2.74,0,5.275-2.055,5.275-4.863V147.53
				c0-2.809-2.535-4.863-5.275-4.863h-5.344V142.665z"/>
		</g>
		<g enable-background="new    ">
			<path fill="#FFFFFF" d="M22.388,237.225c-2.445,2.386-5.368,3.579-8.828,3.579c-5.129,0-9.603-3.042-11.631-7.755
				c-0.955-2.266-1.193-4.891-1.193-7.336v-11.811c0-7.635,4.712-14.314,12.824-14.314c8.052,0,12.824,6.74,12.824,14.314v11.811
				C26.384,230.187,25.668,234.004,22.388,237.225z M22.388,214.797c0-3.16-0.477-6.858-2.922-9.125
				c-1.551-1.432-3.817-2.506-5.905-2.506c-3.34,0-6.8,2.445-7.933,5.606c-0.596,1.67-0.895,4.235-0.895,6.024v10.259
				c0,3.46,0.239,6.979,2.744,9.604c1.73,1.789,3.579,2.563,6.084,2.563c3.639,0,6.859-2.207,8.052-5.666
				c0.597-1.851,0.775-4.593,0.775-6.502V214.797z"/>
			<path fill="#FFFFFF" d="M40.04,240.088h-4.175l16.403-36.205H33.36v-3.579h22.964v3.579L40.04,240.088z"/>
			<path fill="#FFFFFF" d="M58.708,240.088v-6.74h3.997v6.74H58.708z"/>
			<path fill="#FFFFFF" d="M87.515,224.282L74.691,236.51h19.862v3.578h-25.23v-3.578l13.957-13.479
				c3.102-2.982,7.516-6.74,7.516-11.394s-3.997-8.47-8.589-8.47c-3.579,0-6.979,2.326-8.112,5.785
				c-0.477,1.49-0.537,2.685-0.537,4.234h-3.937v-0.299c0-7.694,4.951-13.301,12.824-13.301c6.74,0,12.347,5.367,12.347,12.168
				C94.792,217.125,91.154,220.823,87.515,224.282z"/>
			<path fill="#FFFFFF" d="M113.162,240.804c-5.428,0-10.021-3.042-12.347-7.933c-0.835-1.73-1.133-3.4-1.372-5.25h3.877
				c0.656,5.25,4.234,9.604,9.781,9.604s9.484-4.95,9.484-10.26c0-5.367-3.996-10.379-9.604-10.379c-3.34,0-6.144,1.97-8.172,4.475
				l-3.042-1.133l3.579-19.624h17.896v3.579h-14.732l-2.029,11.033c2.268-1.192,4.295-1.908,6.859-1.908
				c7.576,0,13.242,6.562,13.242,13.957C126.582,234.482,120.796,240.804,113.162,240.804z"/>
			<path fill="#FFFFFF" d="M132.96,240.088v-6.74h3.996v6.74H132.96z"/>
			<path fill="#FFFFFF" d="M156.4,240.088v-36.205h-6.859v-3.579h10.797v39.784H156.4z"/>
			<path fill="#FFFFFF" d="M184.611,240.804c-5.428,0-10.021-3.042-12.347-7.933c-0.835-1.73-1.134-3.4-1.372-5.25h3.877
				c0.656,5.25,4.234,9.604,9.782,9.604c5.547,0,9.483-4.95,9.483-10.26c0-5.367-3.996-10.379-9.604-10.379
				c-3.341,0-6.144,1.97-8.171,4.475l-3.042-1.133l3.577-19.624h17.896v3.579h-14.731l-2.028,11.033
				c2.267-1.192,4.295-1.908,6.858-1.908c7.576,0,13.242,6.562,13.242,13.957C198.031,234.482,192.246,240.804,184.611,240.804z"/>
		</g>
		<g enable-background="new    ">
			<path fill="#FFFFFF" d="M30.72,76.067c1.369,0.445,2.431,1.232,3.185,2.362c0.753,1.131,1.13,2.518,1.13,4.161
				c0,1.713-0.48,3.339-1.438,4.88c-0.959,1.541-2.26,2.902-3.904,4.084c-1.644,1.182-3.563,2.124-5.753,2.825
				c-2.192,0.701-4.503,1.053-6.935,1.053c-2.397,0-4.606-0.308-6.627-0.924c-2.021-0.617-3.768-1.481-5.239-2.595
				c-1.473-1.112-2.62-2.439-3.442-3.98c-0.822-1.541-1.233-3.219-1.233-5.034c0-1.267,0.206-2.474,0.617-3.622
				c0.411-1.146,0.993-2.19,1.747-3.133c0.752-0.941,1.644-1.772,2.671-2.492c1.027-0.719,2.158-1.267,3.39-1.644
				c-0.171-0.753-0.257-1.421-0.257-2.003c0-1.13,0.197-2.184,0.591-3.159c0.394-0.977,0.933-1.841,1.618-2.595
				c0.685-0.753,1.49-1.335,2.415-1.746c0.924-0.411,1.917-0.616,2.979-0.616c0.993,0,1.918,0.23,2.774,0.693
				c0.856,0.462,1.593,1.088,2.209,1.875c0.617,0.788,1.07,1.713,1.361,2.773c0.291,1.063,0.351,2.192,0.18,3.391l-0.873-0.154
				c0.068-0.719,0.008-1.446-0.18-2.183c-0.189-0.736-0.48-1.404-0.874-2.004c-0.394-0.599-0.908-1.087-1.541-1.464
				c-0.634-0.376-1.361-0.565-2.183-0.565c-1.473,0-2.671,0.545-3.596,1.632c-0.925,1.089-1.387,2.517-1.387,4.284
				c0,0.204,0.008,0.399,0.026,0.587c0.017,0.187,0.042,0.365,0.077,0.535h0.822c0.925,0,1.78,0.112,2.568,0.336
				c0.788,0.225,1.472,0.544,2.055,0.958c0.582,0.414,1.036,0.888,1.361,1.422c0.325,0.534,0.488,1.112,0.488,1.733
				c0,0.793-0.326,1.449-0.976,1.966c-0.651,0.518-1.524,0.776-2.62,0.776c-1.507,0-2.876-0.539-4.109-1.618
				c-1.233-1.079-2.124-2.405-2.671-3.981c-1.679,0.583-2.997,1.533-3.956,2.852c-0.959,1.318-1.438,2.868-1.438,4.648
				c0,1.919,0.385,3.64,1.156,5.163s1.875,2.808,3.313,3.853s3.185,1.841,5.24,2.389c2.055,0.548,4.383,0.821,6.986,0.821
				c1.986,0,3.818-0.265,5.497-0.796c1.677-0.53,3.125-1.25,4.34-2.157c1.215-0.907,2.166-1.969,2.851-3.186
				c0.685-1.215,1.027-2.524,1.027-3.93c0-0.821-0.137-1.583-0.411-2.285c-0.275-0.702-0.66-1.327-1.156-1.875
				c-0.497-0.548-1.062-0.977-1.695-1.284c-0.634-0.309-1.31-0.463-2.029-0.463c-0.583,0-1.19,0.13-1.823,0.389
				c-0.634,0.259-1.208,0.587-1.721,0.983c-0.513,0.396-0.942,0.828-1.284,1.294c-0.343,0.466-0.514,0.923-0.514,1.371
				c0,0.862,0.308,1.553,0.925,2.069c0.616,0.518,1.49,0.811,2.62,0.88c-0.308-0.171-0.505-0.428-0.591-0.771
				c-0.085-0.342-0.085-0.693,0-1.053s0.274-0.668,0.565-0.925c0.291-0.257,0.676-0.386,1.156-0.386c0.514,0,0.958,0.181,1.335,0.54
				c0.376,0.359,0.565,0.779,0.565,1.258c0,0.617-0.231,1.148-0.693,1.593s-1.071,0.668-1.824,0.668
				c-1.541,0-2.825-0.479-3.853-1.438c-1.027-0.958-1.541-2.26-1.541-3.904c0-1.13,0.351-2.063,1.053-2.799
				c0.701-0.736,1.575-1.361,2.62-1.875c1.044-0.514,2.174-0.968,3.39-1.361c1.215-0.394,2.346-0.822,3.391-1.284
				c1.044-0.463,1.917-1.019,2.62-1.67c0.702-0.65,1.053-1.472,1.053-2.466c0-1.096-0.352-1.985-1.053-2.671
				c-0.702-0.685-1.652-1.079-2.851-1.182c0.274,0.172,0.471,0.437,0.591,0.797c0.12,0.359,0.146,0.728,0.077,1.104
				c-0.069,0.378-0.249,0.712-0.54,1.002c-0.291,0.292-0.693,0.437-1.207,0.437c-0.583,0-1.062-0.18-1.438-0.539
				c-0.377-0.359-0.565-0.83-0.565-1.413c0-0.649,0.274-1.215,0.822-1.694c0.547-0.479,1.199-0.72,1.952-0.72
				c0.788,0,1.523,0.18,2.209,0.539c0.685,0.36,1.284,0.848,1.798,1.465c0.514,0.616,0.916,1.335,1.207,2.157
				c0.291,0.821,0.437,1.695,0.437,2.62c0,0.719-0.12,1.379-0.359,1.978c-0.24,0.6-0.634,1.155-1.182,1.669
				c-0.548,0.514-1.276,1.002-2.183,1.464C33.125,75.219,32.021,75.656,30.72,76.067z M14.231,75.399
				c0.89,0.822,1.866,1.232,2.928,1.232c0.342,0,0.633-0.119,0.874-0.359c0.239-0.239,0.359-0.53,0.359-0.873
				c0-0.411-0.146-0.805-0.437-1.182c-0.292-0.376-0.677-0.719-1.156-1.027c-0.48-0.309-1.036-0.547-1.669-0.719
				c-0.634-0.171-1.31-0.257-2.029-0.257h-0.719C12.724,73.516,13.34,74.577,14.231,75.399z"/>
		</g>
		<g enable-background="new    ">
			<path fill="#FFFFFF" d="M41.215,93.663l2.662-0.21c1.587-0.093,2.708-0.386,3.362-0.876c0.653-0.49,1.144-1.459,1.471-2.906
				l7.916-36.355c-0.28-0.326-0.701-0.571-1.261-0.735c-0.561-0.163-1.215-0.291-1.961-0.386l-2.802-0.21l-0.14-1.051H63.07
				l5.884,35.935l0.14,0.07l21.014-36.005h11.979l-0.28,1.051l-3.292,0.351c-1.028,0.14-1.751,0.304-2.171,0.49
				c-0.42,0.188-0.655,0.397-0.701,0.631l-6.865,37.125c-0.094,1.027,0.023,1.705,0.351,2.031c0.326,0.327,1.167,0.585,2.521,0.771
				l2.592,0.28l0.07,1.051H76.59l0.21-1.051l3.572-0.351c1.027-0.093,1.762-0.35,2.207-0.771c0.443-0.42,0.736-1.12,0.876-2.101
				l6.584-36.146h-0.21L66.363,94.293h-1.401l-6.585-38.806c-0.094-0.374-0.187-0.677-0.28-0.911
				c-0.094-0.233-0.188-0.443-0.28-0.63L50.182,89.74c-0.234,1.354-0.047,2.289,0.561,2.802c0.606,0.515,1.821,0.818,3.642,0.911
				l2.312,0.21l0.14,1.051H41.005L41.215,93.663z"/>
			<path fill="#FFFFFF" d="M118.41,95.624c-0.328,0-0.736-0.104-1.227-0.314c-0.491-0.21-0.971-0.468-1.436-0.771
				c-0.469-0.304-0.854-0.642-1.156-1.016c-0.305-0.374-0.455-0.724-0.455-1.051c0-0.606,0.279-1.867,0.84-3.783
				c0.561-1.914,1.377-4.413,2.452-7.495h-0.28c-1.215,2.009-2.371,3.888-3.467,5.639c-1.098,1.752-2.148,3.27-3.152,4.554
				c-1.006,1.285-1.986,2.301-2.941,3.047c-0.959,0.746-1.928,1.121-2.907,1.121c-1.636,0-3.023-0.666-4.167-1.997
				c-1.145-1.33-1.716-3.093-1.716-5.288c0-1.867,0.303-3.771,0.911-5.709c0.606-1.938,1.389-3.806,2.346-5.604
				s2.02-3.49,3.188-5.079c1.168-1.587,2.334-2.965,3.502-4.133c1.121-1.166,2.357-2.112,3.713-2.837
				c1.354-0.724,2.639-1.086,3.854-1.086c2.476,0,3.853,2.102,4.133,6.305h0.21l2.172-6.584l4.272,0.14l-4.834,14.43l-4.063,14.149
				l3.082,0.421l5.113-6.795l0.631,0.49c-1.494,2.989-3.002,5.278-4.518,6.865C120.99,94.83,119.623,95.624,118.41,95.624z
				 M106.781,92.051c0.653,0,1.389-0.35,2.207-1.051c0.816-0.7,1.703-1.704,2.662-3.012c0.956-1.307,1.973-2.86,3.047-4.658
				c1.073-1.797,2.193-3.794,3.361-5.989c0.141-0.326,0.305-0.735,0.49-1.226c0.186-0.491,0.361-0.98,0.525-1.471
				c0.164-0.491,0.291-0.957,0.385-1.401c0.094-0.443,0.141-0.781,0.141-1.016c-0.141-0.653-0.385-1.307-0.734-1.961
				c-0.352-0.654-0.807-1.249-1.367-1.787c-0.56-0.536-1.18-0.98-1.854-1.33c-0.679-0.351-1.413-0.525-2.207-0.525
				c-0.7,0-1.319,0.151-1.854,0.455c-0.537,0.304-1.063,0.712-1.576,1.226c-0.795,0.795-1.576,1.915-2.348,3.362
				c-0.771,1.448-1.472,3.036-2.102,4.764s-1.146,3.479-1.541,5.253c-0.396,1.775-0.596,3.387-0.596,4.834
				c0,1.868,0.326,3.257,0.98,4.168C105.052,91.596,105.846,92.051,106.781,92.051z"/>
			<path fill="#FFFFFF" d="M130.527,94.643l3.643-11.207l4.412-16.602l-2.94-0.351l-4.974,7.075l-0.631-0.561
				c1.446-3.035,2.931-5.382,4.447-7.04c1.518-1.657,2.953-2.486,4.309-2.486c0.326,0,0.711,0.117,1.156,0.35
				c0.442,0.234,0.863,0.538,1.26,0.911c0.396,0.374,0.736,0.795,1.017,1.261c0.28,0.468,0.42,0.935,0.42,1.401
				c0,0.42-0.104,1.109-0.313,2.066c-0.211,0.957-0.516,2.09-0.91,3.397c-0.398,1.308-0.854,2.756-1.367,4.343
				c-0.514,1.588-1.074,3.269-1.682,5.043h0.422c0.934-1.867,1.844-3.653,2.73-5.358c0.887-1.704,1.717-3.245,2.487-4.623
				c0.771-1.377,1.481-2.568,2.136-3.572c0.653-1.004,1.237-1.739,1.751-2.207c0.841-1.073,1.589-1.856,2.242-2.347
				c0.651-0.49,1.494-0.711,2.521-0.665c1.262,0.094,2.265,0.561,3.013,1.4c0.745,0.841,1.097,1.799,1.051,2.872
				c-0.047,1.028-0.396,1.868-1.051,2.522c-0.655,0.654-1.378,0.957-2.173,0.91c-0.514,0-0.991-0.14-1.436-0.42
				c-0.443-0.28-0.76-0.642-0.945-1.086c-0.188-0.443-0.233-0.946-0.141-1.506c0.094-0.561,0.42-1.121,0.98-1.682
				c-0.326-0.093-0.607-0.21-0.84-0.35c-0.467-0.233-0.748-0.351-0.842-0.351c-0.794,0.467-2.16,2.219-4.098,5.254
				c-1.938,3.036-4.564,7.682-7.88,13.939l-3.082,10.017L130.527,94.643z"/>
			<path fill="#FFFFFF" d="M161.697,95.624c-0.326,0-0.771-0.082-1.33-0.245c-0.561-0.164-1.109-0.374-1.646-0.63
				c-0.537-0.256-0.979-0.525-1.331-0.806c-0.352-0.281-0.525-0.536-0.525-0.771c0-0.093,0.211-0.771,0.631-2.031
				c0.42-1.261,0.945-2.813,1.576-4.658c0.631-1.845,1.318-3.841,2.065-5.989c0.747-2.147,1.459-4.179,2.137-6.094
				c0.677-1.915,1.271-3.561,1.787-4.938c0.513-1.377,0.815-2.229,0.91-2.557l-3.433-0.351l-4.975,7.005l-0.699-0.561
				c1.493-2.988,3.047-5.312,4.657-6.97c1.61-1.657,3.093-2.486,4.448-2.486c0.42,0,0.852,0.116,1.295,0.35s0.852,0.537,1.227,0.911
				c0.373,0.374,0.676,0.794,0.91,1.261c0.233,0.467,0.352,0.935,0.352,1.4c0,0.234-0.199,0.97-0.596,2.207
				c-0.397,1.237-0.889,2.721-1.472,4.448c-0.585,1.728-1.237,3.584-1.962,5.568c-0.725,1.985-1.4,3.853-2.031,5.604
				c-0.63,1.752-1.18,3.258-1.646,4.519c-0.467,1.261-0.771,2.056-0.91,2.382l3.363,0.49l5.113-6.725l0.629,0.49
				c-1.494,2.942-3.035,5.208-4.623,6.795C164.033,94.83,162.724,95.624,161.697,95.624z M171.083,57.097
				c-0.936,0-1.67-0.291-2.207-0.875s-0.805-1.319-0.805-2.207c0-1.166,0.325-2.159,0.979-2.977
				c0.653-0.816,1.377-1.226,2.172-1.226c0.979,0,1.737,0.292,2.274,0.875c0.537,0.585,0.808,1.32,0.808,2.207
				c-0.047,1.168-0.397,2.16-1.052,2.977C172.601,56.689,171.876,57.097,171.083,57.097z"/>
			<path fill="#FFFFFF" d="M194.83,95.624c-0.328,0-0.771-0.082-1.332-0.245c-0.561-0.164-1.098-0.374-1.61-0.63
				s-0.957-0.536-1.33-0.841c-0.375-0.303-0.562-0.571-0.562-0.806c0-0.28,0.15-0.887,0.455-1.821
				c0.303-0.934,0.678-2.031,1.121-3.292c0.443-1.261,0.945-2.638,1.506-4.133c0.562-1.494,1.098-2.942,1.611-4.343
				c0.373-1.027,0.758-2.066,1.156-3.117c0.396-1.051,0.758-2.055,1.085-3.013c0.325-0.956,0.596-1.786,0.806-2.486
				c0.211-0.7,0.314-1.214,0.314-1.541c0-0.7-0.326-1.318-0.98-1.856c-0.654-0.536-1.377-0.806-2.171-0.806
				c-0.515,0-1.261,0.515-2.241,1.541c-0.979,1.028-2.102,2.464-3.363,4.309c-1.26,1.845-2.625,4.074-4.098,6.689
				c-1.471,2.615-2.977,5.511-4.518,8.686l-2.172,7.075l-4.693-0.351l3.503-11.207l4.554-16.531l-2.942-0.351l-4.974,7.005
				l-0.631-0.561c1.447-3.035,2.953-5.382,4.52-7.04c1.563-1.657,3.021-2.486,4.378-2.486c0.325,0,0.7,0.117,1.121,0.35
				c0.42,0.234,0.827,0.538,1.226,0.911c0.396,0.374,0.725,0.795,0.98,1.261c0.257,0.468,0.386,0.935,0.386,1.401
				c0,0.42-0.129,1.19-0.386,2.312c-0.258,1.12-0.62,2.429-1.086,3.923c-0.469,1.494-0.992,3.141-1.575,4.938
				c-0.585,1.799-1.203,3.585-1.856,5.359l0.42,0.14c1.026-2.007,2.078-3.969,3.151-5.884c1.074-1.914,2.125-3.666,3.151-5.254
				c1.027-1.587,1.974-2.987,2.839-4.203c0.862-1.213,1.599-2.124,2.206-2.731c1.634-1.634,3.244-2.451,4.832-2.451
				c0.562,0,1.133,0.116,1.718,0.35c0.583,0.234,1.108,0.561,1.575,0.98c0.467,0.421,0.853,0.9,1.156,1.437s0.455,1.109,0.455,1.716
				c0,0.468-0.095,1.098-0.281,1.892c-0.187,0.795-0.442,1.705-0.77,2.731c-0.328,1.028-0.701,2.126-1.121,3.293
				s-0.865,2.358-1.33,3.572c-0.375,1.074-0.818,2.301-1.332,3.678c-0.514,1.378-1.016,2.708-1.506,3.992
				c-0.49,1.285-0.91,2.406-1.261,3.362c-0.351,0.958-0.573,1.53-0.665,1.716l3.15,0.421l5.115-6.795l0.629,0.49
				c-1.494,2.989-3.013,5.278-4.554,6.865S195.81,95.624,194.83,95.624z"/>
		</g>
	</g>
</g>
</svg>
