<?xml version="1.0" encoding="utf-8"?>
<!-- Generator: Adobe Illustrator 16.0.3, SVG Export Plug-In . SVG Version: 6.00 Build 0)  -->
<!DOCTYPE svg PUBLIC "-//W3C//DTD SVG 1.1//EN" "http://www.w3.org/Graphics/SVG/1.1/DTD/svg11.dtd">
<svg version="1.1" xmlns="http://www.w3.org/2000/svg" xmlns:xlink="http://www.w3.org/1999/xlink" x="0px" y="0px" width="36px"
	 height="36px" viewBox="0 0 36 36" enable-background="new 0 0 36 36" xml:space="preserve">
<g id="Layer_3">
	<path fill-rule="evenodd" clip-rule="evenodd" fill="#FFFFFF" d="M29.879,6.115C26.602,2.838,22.642,1.2,18,1.201
		c-4.641,0-8.601,1.639-11.882,4.915L6.115,6.118C2.839,9.399,1.201,13.359,1.201,18c0,4.642,1.638,8.602,4.915,11.879
		c3.281,3.281,7.243,4.92,11.885,4.92c4.641,0,8.599-1.64,11.876-4.92l0.003-0.003c3.281-3.276,4.92-7.235,4.92-11.876
		C34.799,13.358,33.16,9.396,29.879,6.115z M18,0c4.973,0,9.214,1.757,12.726,5.269C34.241,8.784,36,13.027,36,18
		c0,4.972-1.758,9.214-5.271,12.726l-0.003,0.003C27.214,34.242,22.972,36,18,36c-4.973,0-9.216-1.759-12.731-5.274
		C1.757,27.214,0,22.973,0,18S1.755,8.784,5.266,5.269l0.003-0.003C8.784,1.755,13.027,0,18,0z"/>
</g>
<g id="Layer_1_1_">
	<path fill-rule="evenodd" clip-rule="evenodd" fill="#FFFFFF" d="M19.441,15.55c0.296-0.572,0.752-1.049,1.369-1.429
		c0.716-0.444,1.531-0.667,2.443-0.667c1.889,0,3.21,0.594,3.963,1.783c0.592,0.937,0.888,2.403,0.888,4.401v7.121H24.07v-6.322
		c0-1.064-0.092-1.825-0.276-2.281c-0.304-0.769-0.913-1.153-1.825-1.153c-0.957,0-1.625,0.344-2.005,1.033
		c-0.284,0.508-0.426,1.277-0.426,2.306v6.418h-4.017V13.773h3.86v1.777H19.441z M8.616,9.661c0-0.648,0.23-1.199,0.69-1.651
		c0.457-0.46,1.009-0.69,1.657-0.69s1.199,0.23,1.651,0.69c0.46,0.452,0.69,1.003,0.69,1.651c0,0.644-0.23,1.197-0.69,1.657
		c-0.452,0.453-1.002,0.679-1.651,0.679s-1.201-0.226-1.657-0.679C8.846,10.857,8.616,10.305,8.616,9.661z M12.987,13.773V26.76
		H8.946V13.773H12.987z"/>
</g>
</svg>
