<?xml version="1.0" encoding="utf-8"?>
<!-- Generator: Adobe Illustrator 16.0.0, SVG Export Plug-In . SVG Version: 6.00 Build 0)  -->
<!DOCTYPE svg PUBLIC "-//W3C//DTD SVG 1.1//EN" "http://www.w3.org/Graphics/SVG/1.1/DTD/svg11.dtd">
<svg version="1.1" id="Layer_1" xmlns="http://www.w3.org/2000/svg" xmlns:xlink="http://www.w3.org/1999/xlink" x="0px" y="0px"
	 width="36px" height="36px" viewBox="0 0 36 36" enable-background="new 0 0 36 36" xml:space="preserve">
<g id="Layer_1_1_">
	<path fill="#FFFFFF" d="M19.441,15.55c0.295-0.572,0.752-1.049,1.369-1.429c0.715-0.444,1.53-0.667,2.442-0.667
		c1.89,0,3.21,0.594,3.963,1.783c0.593,0.937,0.888,2.403,0.888,4.402v7.12H24.07v-6.321c0-1.064-0.092-1.826-0.276-2.281
		c-0.304-0.769-0.913-1.153-1.825-1.153c-0.957,0-1.625,0.344-2.005,1.033c-0.284,0.508-0.426,1.276-0.426,2.306v6.418h-4.017
		V13.773h3.86v1.777H19.441z M8.616,9.661c0-0.648,0.23-1.199,0.69-1.651c0.457-0.46,1.009-0.69,1.657-0.69s1.199,0.23,1.651,0.69
		c0.46,0.452,0.69,1.003,0.69,1.651c0,0.644-0.23,1.197-0.69,1.657c-0.452,0.453-1.002,0.679-1.651,0.679s-1.201-0.226-1.657-0.679
		C8.846,10.857,8.616,10.305,8.616,9.661z M12.987,13.773V26.76H8.946V13.773H12.987z"/>
</g>
</svg>
