<?xml version="1.0" encoding="utf-8"?>
<!-- Generator: Adobe Illustrator 16.0.0, SVG Export Plug-In . SVG Version: 6.00 Build 0)  -->
<!DOCTYPE svg PUBLIC "-//W3C//DTD SVG 1.1//EN" "http://www.w3.org/Graphics/SVG/1.1/DTD/svg11.dtd">
<svg version="1.1" id="Layer_2" xmlns="http://www.w3.org/2000/svg" xmlns:xlink="http://www.w3.org/1999/xlink" x="0px" y="0px"
	 width="71.428px" height="60px" viewBox="0 0 71.428 60" enable-background="new 0 0 71.428 60" xml:space="preserve">
<path fill="#FFFFFF" d="M35.714,8.659c-2.439,0-4.488,0.836-6.147,2.51c-1.717,1.66-2.575,3.694-2.575,6.104
	c0.028,2.266,0.778,4.178,2.251,5.736l4.328,4.329l-6.169,6.146l-4.438-4.351c-1.573-1.458-3.441-2.179-5.605-2.165
	c-2.396,0-4.451,0.844-6.169,2.532c-1.674,1.718-2.511,3.759-2.511,6.126c0,2.338,0.787,4.322,2.36,5.952l4.134,4.112L9.069,51.84
	l-4.372-4.395C1.565,44.113,0,40.182,0,35.65c-0.015-4.82,1.681-8.903,5.086-12.251c3.03-3.102,6.703-4.784,11.018-5.043
	c0.39-0.014,0.822-0.014,1.298,0c0.332-0.014,0.672-0.014,1.018,0V17.23c-0.015-0.836,0.021-1.703,0.107-2.597
	c0.506-3.651,2.15-6.847,4.936-9.589c3.405-3.405,7.481-5.086,12.229-5.043c1.356,0,2.619,0.115,3.788,0.346
	c1.573,0.361,2.987,0.902,4.243,1.624c1.227,0.62,2.388,1.414,3.484,2.381l4.632,4.653l-6.039,6.104l-4.113-4.156
	c-0.679-0.635-1.407-1.125-2.187-1.472C38.376,8.918,37.114,8.644,35.714,8.659z M67.336,24.524
	c1.198,1.385,2.158,2.958,2.879,4.719c0,0.086,0.043,0.173,0.13,0.259c0.649,1.732,0.981,3.564,0.996,5.498
	c0.058,0.173,0.086,0.375,0.086,0.605c-0.072,4.82-1.797,8.912-5.173,12.273c-2.208,2.251-4.771,3.76-7.685,4.523
	c-1.457,0.332-2.973,0.498-4.545,0.498h-0.648c-4.329-0.131-8.081-1.696-11.255-4.697l-4.318-4.318l6.147-6.104l4.123,4.145
	c1.658,1.602,3.65,2.389,5.974,2.359c2.353,0,4.394-0.866,6.126-2.598c1.27-1.271,2.077-2.756,2.424-4.459l0.043-0.237
	c0.086-0.519,0.103-0.968,0.043-1.343c0.043-2.25-0.67-4.191-2.143-5.821l-6.451-6.429L17.25,60l-6.082-6.061l42.943-42.663
	L66.6,23.701c0.159,0.116,0.268,0.246,0.325,0.39C67.084,24.236,67.221,24.38,67.336,24.524z"/>
</svg>
