<?xml version="1.0" encoding="utf-8"?>
<!-- Generator: Adobe Illustrator 16.0.0, SVG Export Plug-In . SVG Version: 6.00 Build 0)  -->
<!DOCTYPE svg PUBLIC "-//W3C//DTD SVG 1.1//EN" "http://www.w3.org/Graphics/SVG/1.1/DTD/svg11.dtd">
<svg version="1.1" id="Layer_2" xmlns="http://www.w3.org/2000/svg" xmlns:xlink="http://www.w3.org/1999/xlink" x="0px" y="0px"
	 width="53.57px" height="45px" viewBox="0.004 0 53.57 45" enable-background="new 0.004 0 53.57 45" xml:space="preserve">
<path fill="#FFFFFF" d="M26.786,6.494c-1.83,0-3.366,0.627-4.611,1.883c-1.288,1.245-1.93,2.771-1.93,4.578
	c0.02,1.7,0.583,3.134,1.688,4.302l3.246,3.247l-4.626,4.61l-3.328-3.264c-1.18-1.093-2.582-1.634-4.204-1.624
	c-1.797,0-3.338,0.633-4.627,1.899C7.137,23.414,6.51,24.944,6.51,26.72c0,1.753,0.59,3.242,1.77,4.464l3.101,3.083l-4.579,4.614
	l-3.279-3.296C1.174,33.085,0,30.136,0,26.738c-0.012-3.615,1.26-6.678,3.814-9.189c2.273-2.327,5.027-3.588,8.263-3.782
	c0.293-0.011,0.617-0.011,0.973,0c0.25-0.011,0.505-0.011,0.764,0v-0.844c-0.012-0.627,0.016-1.278,0.08-1.948
	c0.38-2.738,1.613-5.135,3.703-7.192c2.554-2.553,5.61-3.814,9.171-3.782c1.018,0,1.965,0.086,2.841,0.26
	c1.18,0.27,2.241,0.676,3.182,1.218c0.921,0.465,1.792,1.06,2.613,1.786l3.475,3.489l-4.529,4.579l-3.085-3.117
	c-0.509-0.477-1.055-0.844-1.64-1.104C28.782,6.688,27.835,6.483,26.786,6.494z M50.502,18.393c0.899,1.039,1.619,2.219,2.16,3.54
	c0,0.064,0.032,0.13,0.098,0.194c0.486,1.3,0.735,2.674,0.747,4.124c0.043,0.129,0.063,0.281,0.063,0.454
	c-0.055,3.614-1.347,6.683-3.879,9.205c-1.656,1.688-3.579,2.82-5.766,3.392c-1.092,0.249-2.229,0.373-3.408,0.373h-0.485
	c-3.247-0.098-6.061-1.271-8.441-3.521l-3.239-3.239l4.61-4.578l3.092,3.109c1.244,1.201,2.738,1.792,4.48,1.769
	c1.765,0,3.295-0.649,4.595-1.948c0.952-0.953,1.558-2.067,1.818-3.344l0.032-0.178c0.064-0.389,0.077-0.726,0.031-1.007
	c0.033-1.688-0.502-3.143-1.606-4.365l-4.838-4.822L12.938,45l-4.562-4.545L40.583,8.457l9.367,9.319
	c0.119,0.087,0.201,0.185,0.243,0.292C50.314,18.177,50.416,18.285,50.502,18.393z"/>
</svg>
