<?xml version="1.0" encoding="utf-8"?>
<!-- Generator: Adobe Illustrator 16.0.0, SVG Export Plug-In . SVG Version: 6.00 Build 0)  -->
<!DOCTYPE svg PUBLIC "-//W3C//DTD SVG 1.1//EN" "http://www.w3.org/Graphics/SVG/1.1/DTD/svg11.dtd">
<svg version="1.1" id="Layer_1" xmlns="http://www.w3.org/2000/svg" xmlns:xlink="http://www.w3.org/1999/xlink" x="0px" y="0px"
	 width="144px" height="73.145px" viewBox="0 0 144 73.145" enable-background="new 0 0 144 73.145" xml:space="preserve">
<g>
	<path fill-rule="evenodd" clip-rule="evenodd" fill="#712A80" d="M15.841,1.996c-0.377-0.287-0.596-0.664-0.656-1.131
		c-0.09-0.679,0.438-0.958,1.584-0.837c1.312,0.121,2.7,0.528,4.164,1.222c0.785,0.393,1.614,0.837,2.489,1.335h8.214
		c0.317-0.121,1.109-0.506,2.376-1.155c1.433-0.603,2.836-0.965,4.209-1.086c1.403-0.091,1.969,0.083,1.698,0.521
		c-0.604,0.649-1.011,1.131-1.222,1.448c-0.664,0.709-1.32,1.531-1.969,2.467c-0.875,1.252-1.229,2.051-1.064,2.398
		c0.105,0.271,0.536,1.418,1.29,3.44c0.604,2.082,0.604,3.47,0,4.164c-0.211,0.408-0.317,0.687-0.317,0.837
		c0,0.06,0.03,0.09,0.091,0.09l0.09,0.34h4.662c3.5,0.09,6.042,0.415,7.626,0.973c1.66,0.377,5.302,1.72,10.93,4.028
		c5.114,2.143,8.154,3.236,9.12,3.282c0.77,0.105,3.025,0.083,6.767-0.068c3.771-0.181,6.2-0.347,7.286-0.498
		c3.893,0.151,6.993,1.381,9.301,3.689c1.147,1.207,2.482,2.602,4.006,4.187c0.724,0.226,2.18,0.196,4.367-0.091
		c2.671-0.317,5.13-0.943,7.378-1.878c7.996-3.5,15.003-4.24,21.022-2.218c2.52,0.875,5.153,1.75,7.898,2.625
		c1.584,0.482,2.761,0.708,3.53,0.679c0.815-0.121,1.222-0.015,1.222,0.317c-0.06,0.256-0.279,0.558-0.656,0.905
		c-1.795,1.583-3.243,2.678-4.345,3.281c-3.666,2.142-8.102,3.651-13.306,4.526c-19.116,0-29.223,0-30.324,0l-31.207,0.656
		c-0.528,0-0.996-0.083-1.403-0.249c-0.437-0.212-0.513-0.521-0.227-0.928c1.252-1.403,2.233-2.105,2.942-2.105
		c0.664,0,2.142,0.354,4.435,1.064c0.347,0.105,0.709,0.105,1.086,0c0.422-0.06,0.475-0.31,0.159-0.747
		c-1.358-0.77-2.595-1.509-3.711-2.218c-2.022-1.252-3.032-2.52-3.032-3.802c-0.045-0.754,0.399-1.546,1.335-2.375
		c0.438-0.377,0.89-0.672,1.357-0.882l-0.882,1.402c-0.498,1.086-0.551,1.878-0.159,2.376c1.161,1.433,2.006,2.368,2.535,2.806
		c1.433,1.146,3.055,1.72,4.865,1.72c2.082,0.03,4.496-0.354,7.241-1.154c2.67-0.785,4.443-1.584,5.318-2.399
		c-0.438,0.603-1.26,1.229-2.467,1.878c-2.399,1.373-5.605,2.338-9.618,2.897c-0.483,0.061-0.86,0.166-1.131,0.317
		c-0.347,0.227-0.543,0.34-0.588,0.34c-0.664,0.15-1.019,0.339-1.063,0.565c-0.061,0.181,0.022,0.347,0.249,0.498
		c0.211,0.106,0.43,0.159,0.657,0.159c34.322-0.226,52.697-0.558,55.126-0.996c3.108-0.528,4.202-1.403,3.282-2.625
		c-0.347-1.584-1.396-2.67-3.146-3.259c0.996,0.151,1.826,0.166,2.49,0.045c0.98-0.09,1.199-0.528,0.656-1.313
		c1.69-0.03,2.806-0.294,3.349-0.792c0.438-0.438,0.408-0.792-0.09-1.063c-0.754-0.497-2.014-0.995-3.779-1.493
		c-2.504-0.724-4.714-0.913-6.63-0.566c-3.953,0.332-8.2,1.313-12.741,2.942c-4.104,1.524-7.664,2.286-10.681,2.286
		c-1.267,0.06-3.508-1.358-6.721-4.254c-3.183-2.837-6.11-4.036-8.78-3.599c-2.867,0.271-5.206,0.46-7.016,0.566
		c-3.333,0.15-6.042-0.068-8.124-0.656c-0.966-0.272-4.624-1.75-10.976-4.436c-5.491-2.369-9.308-3.568-11.451-3.598
		c-4.646-0.287-7.385-0.158-8.214,0.385c-1.026,0.709-1.818,1.969-2.376,3.779c-0.815,2.459-0.725,5.092,0.271,7.898
		c0.091,0.438,0.385,1.395,0.883,2.874c0.271,1.313,0.022,2.127-0.747,2.444c-0.589,0.227-3.704,0.694-9.346,1.403
		c-5.597,0.709-8.772,1.237-9.527,1.584c-1.539,0.709-2.753,1.192-3.644,1.449c-1.584,0.558-2.972,0.762-4.164,0.611
		c-2.202-0.287-3.432-0.4-3.688-0.339c-1.101,0-1.682,0.347-1.742,1.041c0.498,0.347,2.632,0.491,6.404,0.43
		c6.427-0.06,12.017-0.113,16.769-0.158c9.263-0.061,14.023-0.152,14.28-0.272c0.709-0.211,1.282-0.867,1.719-1.969
		c1.056,1.66,0.732,2.625-0.973,2.897c-1.629,0.271-11.707,0.355-30.233,0.249L0,41.168c0.121-0.648,0.369-1.297,0.747-1.946
		c0.725-1.282,1.765-1.954,3.123-2.014c0.227,0,1.32,0.279,3.281,0.837c1.086,0.347,2.708,0.053,4.865-0.883
		c0.377-0.181,2.369-1.177,5.974-2.987c1.645-0.815,3.153-1.222,4.526-1.222c0.936-0.151,1.237-0.505,0.905-1.063
		c-0.558-0.544-0.89-0.875-0.996-0.997c-0.588-0.438-1.131-0.98-1.629-1.628c-0.935-1.207-1.434-2.655-1.494-4.345
		c-0.105-1.086,0.219-2.21,0.974-3.372c0.407-0.619,0.799-1.116,1.177-1.493l-0.566,2.625c-0.287,1.931-0.053,3.304,0.702,4.119
		c2.701,2.896,3.915,5.008,3.644,6.336c-0.121,0.604,0.256,0.905,1.131,0.905c4.541-0.12,6.902-0.702,7.083-1.742
		c0.105-0.649,0.075-1.66-0.09-3.032c-0.151-1.147-0.287-1.939-0.408-2.376c-0.06-0.377-0.882,0.136-2.467,1.539
		c-1.478,1.373-2.277,2.414-2.398,3.123c0.06-0.528,0.204-1.154,0.43-1.878c0.559-1.705,1.569-3.319,3.032-4.843
		c0.815-0.815,1.388-2.293,1.72-4.436c0.166-0.996,0.573-1.901,1.222-2.716c0.407-0.437,0.747-0.762,1.018-0.973v-0.747
		c-1.327,0.815-2.429,1.418-3.304,1.81l-1.969,0.656l-0.566,1.969c0,3.063-0.792,4.646-2.375,4.752
		c-0.438-0.061-0.905-0.385-1.404-0.974l-0.656-0.837l1.72,0.52c1.162,0.045,1.788-0.565,1.878-1.833
		c0.121-0.754,0.151-2.391,0.091-4.91c0-1.931,0.113-3.002,0.339-3.214c0.316-0.316,0.83-0.566,1.539-0.747
		c0.709-0.211,1.176-0.234,1.403-0.068c0.211,0.227,0.272,0.634,0.181,1.223c-0.181,0.664-0.399,1.056-0.656,1.177
		c-0.618,0.377-0.814,0.724-0.588,1.041c0.166,0.392,0.935,0.37,2.308-0.068c1.479-0.498,2.323-1.244,2.535-2.24
		c0.271-1.523,0.022-3.002-0.747-4.436c-0.966-1.735-1.479-2.904-1.539-3.508c0-0.708,0.249-1.342,0.747-1.9
		c0.03-0.061,0.491-0.438,1.381-1.132c0.603-0.498,1.229-1.131,1.878-1.9C36.992,1.4,36.2,1.566,35.325,1.838
		c-1.75,0.498-3.063,1.29-3.938,2.376c-0.77,0.256-2.225,0.384-4.367,0.384c-2.278-0.03-3.666-0.294-4.164-0.792
		c-0.936-0.558-1.795-1.056-2.58-1.494c-1.403-0.814-2.55-1.169-3.44-1.063c1.977,2.142,3.108,3.727,3.395,4.752
		c0.151,0.619-0.098,1.524-0.747,2.716c-0.393,0.619-0.89,1.396-1.494,2.331c-0.497,0.754-0.686,1.516-0.565,2.285
		c0.166,1.147,1.116,2.052,2.851,2.716l0.747-0.091c0.438-0.166,0.362-0.633-0.226-1.403c-0.619-0.754-0.762-1.245-0.43-1.471
		c0.121-0.105,0.309-0.127,0.566-0.067l1.742,0.407c1.147,0.483,1.645,1.388,1.494,2.716c-0.167,1.358-1.351,1.795-3.553,1.313
		c-2.082-0.438-3.364-1.019-3.847-1.743c-1.268-2.203-0.611-4.911,1.968-8.124C19.552,5.821,18.586,3.958,15.841,1.996z
		 M19.077,34.787l-1.833,0.973l0.61,0.226c0.528,0.121,1.26,0.098,2.195-0.067c1.69-0.106,2.95-0.468,3.779-1.087l0.747-0.792
		c-0.438-0.287-1.23-0.399-2.376-0.339C21.476,33.761,20.435,34.123,19.077,34.787z M63.59,39.698c0.317,0,1.267-0.03,2.851-0.09
		c1.328-0.045,1.607-0.316,0.838-0.815c-0.875-0.559-1.916-0.867-3.123-0.928c-1.253-0.03-1.969,0.219-2.15,0.747
		C61.689,39.457,62.217,39.818,63.59,39.698z M134.648,30.17c-0.393-0.167-0.732-0.249-1.019-0.249
		c-0.468-0.06-0.815,0.219-1.041,0.837c-0.211,0.467-0.951,1.169-2.218,2.104c-1.042,0.785-1.448,1.222-1.222,1.313
		c0.649,0.287,1.003,0.92,1.064,1.901c0,0.875,0.075,1.313,0.226,1.313c2.308-0.588,4.473-1.735,6.494-3.439
		c1.042-0.815,1.841-1.584,2.399-2.308C136.466,30.706,134.904,30.215,134.648,30.17z M114.666,66.084
		c0.271,0.151,0.408,0.37,0.408,0.656c0,0.648-0.649,1.245-1.947,1.788c-0.875,0.438-1.734,0.656-2.579,0.656
		c-0.317,0-0.611-0.083-0.883-0.249c-0.226-0.211-0.339-0.4-0.339-0.565c0-0.182,0.09-0.393,0.271-0.634l-0.747,0.634
		c-0.77,0.543-1.434,0.814-1.992,0.814l-0.702-0.158c-0.241-0.226-0.362-0.415-0.362-0.565c0-0.061,0.136-0.287,0.407-0.679
		l-0.136,0.181l-0.702,0.498c0.528-0.393,1.116-0.951,1.766-1.675l0.973-0.974h1.222l-1.629,1.584
		c-0.769,0.755-1.155,1.237-1.155,1.448c0,0.181,0.137,0.271,0.408,0.271c0.604,0,1.509-0.527,2.716-1.584l0.227-0.226l0.135-0.045
		c0.076-0.091,0.174-0.189,0.294-0.295l4.187-4.096l0.566,0.068h0.656l-4.571,4.276l1.629-1.131
		c0.272-0.226,0.596-0.339,0.973-0.339C114.138,65.745,114.439,65.858,114.666,66.084z M113.76,65.812
		c-0.422,0-1.26,0.498-2.511,1.494c-0.905,0.709-1.358,1.199-1.358,1.471c0,0.226,0.174,0.339,0.521,0.339
		c0.648,0,1.44-0.354,2.375-1.063c1.026-0.724,1.539-1.335,1.539-1.833C114.326,65.948,114.138,65.812,113.76,65.812z
		 M100.363,63.188c-1.085,0.438-2.391,0.822-3.915,1.154c-1.69,0.317-3.198,0.475-4.526,0.475h-0.498
		c-1.086,0.936-1.63,1.795-1.63,2.58c0,0.588,0.302,1.049,0.905,1.38c0.589,0.317,1.411,0.476,2.467,0.476
		c1.84,0,3.538-0.543,5.092-1.63c0.935-0.648,1.403-1.274,1.403-1.878c0-0.272-0.174-0.551-0.521-0.837
		c-0.316-0.15-0.724-0.226-1.222-0.226c-0.875,0-1.773,0.264-2.693,0.792c-0.996,0.498-1.494,0.996-1.494,1.494l0.091,0.091
		l0.09-0.091l0.475-0.09c0.332,0,0.498,0.113,0.498,0.339c0,0.272-0.249,0.407-0.747,0.407c-0.438,0-0.656-0.166-0.656-0.498
		c0-0.543,0.49-1.124,1.471-1.743c0.936-0.528,1.923-0.792,2.965-0.792c1.313,0,1.969,0.407,1.969,1.221
		c0,0.875-0.717,1.698-2.15,2.467c-1.358,0.709-2.912,1.063-4.662,1.063c-1.207,0-2.218-0.241-3.032-0.724
		c-0.785-0.438-1.177-1.018-1.177-1.743c0-0.709,0.392-1.425,1.177-2.149c-2.912-0.317-4.368-1.019-4.368-2.105
		c0-0.649,0.551-1.177,1.652-1.584c1.146-0.438,2.489-0.656,4.027-0.656c2.233,0,4.534,0.467,6.903,1.403l1.222-0.091
		c1.313,0,1.968,0.204,1.968,0.611c0,0.317-0.302,0.581-0.905,0.792c0.558,0.499,0.837,0.966,0.837,1.404
		c0,0.121-0.061,0.181-0.181,0.181l-0.091-0.271C101.11,64.032,100.861,63.625,100.363,63.188z M99.663,61.785l-1.177,0.09
		c0.784,0.317,1.44,0.694,1.968,1.131c0.559-0.21,0.837-0.445,0.837-0.701C101.292,61.958,100.748,61.785,99.663,61.785z
		 M106.202,65.812l-2.376,2.376c-0.271,0.287-0.407,0.506-0.407,0.656c0,0.181,0.136,0.271,0.407,0.271
		c0.349,0,0.759-0.146,1.234-0.441l-0.396,0.26c-0.347,0.166-0.649,0.249-0.905,0.249l-0.747-0.158
		c-0.211-0.166-0.317-0.355-0.317-0.565c0-0.182,0.09-0.37,0.271-0.566c-1.116,0.86-1.953,1.29-2.512,1.29l-0.747-0.158
		c-0.211-0.226-0.316-0.392-0.316-0.498c0-0.286,0.105-0.505,0.316-0.656l4.865-5.001l0.498,0.068l0.724-0.068l-5.001,5.001
		c-0.438,0.543-0.656,0.868-0.656,0.973c0,0.181,0.105,0.271,0.316,0.271c0.498,0,1.433-0.527,2.806-1.584l1.72-1.72H106.202z
		 M91.583,64.681c1.705,0,3.274-0.143,4.708-0.43c1.523-0.271,2.866-0.656,4.027-1.154c-0.286-0.271-0.973-0.678-2.059-1.222
		c-1.433,0.287-2.663,0.642-3.689,1.064C93.349,63.542,92.353,64.123,91.583,64.681z M91.356,60.721
		c-1.478,0-2.715,0.196-3.711,0.588c-1.086,0.438-1.629,0.928-1.629,1.471c0,0.921,1.373,1.554,4.119,1.901
		c1.614-1.433,4.209-2.398,7.785-2.896C95.943,61.075,93.756,60.721,91.356,60.721z M73.547,65.903c0,0.211-0.468,0.49-1.403,0.837
		l-0.656,0.226l-0.181,0.091l-0.091,0.475c0,0.347,0.196,0.521,0.588,0.521c0.604,0,1.185-0.279,1.743-0.837l0.136-0.045
		l1.313-1.358h1.313l-2.06,1.969c-0.528,0.498-0.792,0.853-0.792,1.063c0,0.181,0.136,0.271,0.408,0.271
		c0.345,0,0.729-0.109,1.154-0.328l-0.272,0.147c-0.332,0.166-0.656,0.249-0.973,0.249l-0.747-0.158
		c-0.211-0.226-0.317-0.392-0.317-0.498c0-0.226,0.144-0.498,0.43-0.814c-0.453,0.256-0.897,0.384-1.335,0.384
		c-0.498,0-0.747-0.188-0.747-0.566l0.09-0.407l-0.996,0.656l-1.381,1.403l-0.679-0.068l-0.566,0.068l1.629-1.652
		c0.83-0.815,1.245-1.328,1.245-1.539c0-0.121-0.083-0.182-0.249-0.182c-0.332,0-1.019,0.438-2.06,1.313l-0.068,0.09l-0.498,0.407
		c-1.192,1.042-2.149,1.562-2.874,1.562l-0.747-0.158c-0.212-0.166-0.317-0.355-0.317-0.565c0-0.167,0.105-0.408,0.317-0.725
		l-0.725,0.634c-0.785,0.543-1.41,0.814-1.878,0.814l-0.747-0.158c-0.226-0.166-0.339-0.355-0.339-0.565l0.158-0.498l0.974-0.905
		c0.558-0.498,0.837-0.822,0.837-0.973c0-0.181-0.136-0.272-0.407-0.272c-0.438,0-0.936,0.197-1.494,0.589l0.362-0.271
		c0.438-0.256,0.814-0.385,1.131-0.385c0.332,0,0.581,0.083,0.747,0.249c0.211,0.15,0.317,0.31,0.317,0.475
		c0,0.271-0.294,0.709-0.882,1.313c-0.664,0.604-0.996,0.958-0.996,1.063c0,0.181,0.128,0.271,0.385,0.271
		c0.498,0,1.403-0.52,2.715-1.561v-0.023l1.719-1.72h-1.063l0.18-0.067h0.973l1.177-1.154h1.222l-1.222,1.154h1.38l-0.068,0.067
		h-1.403l-2.239,2.376c-0.257,0.287-0.385,0.506-0.385,0.656c0,0.181,0.159,0.271,0.476,0.271c0.558,0,1.598-0.633,3.123-1.901
		v-0.09l0.158-0.159c1.102-0.814,1.811-1.222,2.127-1.222c0.558,0,0.837,0.219,0.837,0.656c0,0.316-0.279,0.724-0.837,1.222
		l0.996-0.565c0.211-0.332,0.536-0.641,0.973-0.928c0.407-0.256,0.739-0.385,0.996-0.385C73.427,65.745,73.547,65.797,73.547,65.903
		z M79.431,65.812l-3.462,3.53l2.149-0.814l1.878-1.313l0.181-0.09h0.091l-1.154,0.837c-0.815,0.588-1.879,1.079-3.19,1.471
		l-0.521,0.566c-0.86,0.935-1.901,1.735-3.123,2.399c-1.026,0.498-1.976,0.747-2.851,0.747c-0.333,0-0.551-0.061-0.657-0.182
		c-0.181-0.06-0.271-0.173-0.271-0.339c0-0.875,1.562-1.72,4.685-2.535l1.154-0.316l0.181-0.091l1.72-1.901
		c0.316-0.256,0.647-0.588,0.995-0.996l0.883-0.974H79.431z M74.339,69.773l-1.063,0.385c-3.123,0.935-4.685,1.757-4.685,2.466
		c0,0.287,0.301,0.43,0.905,0.43c0.769,0,1.479-0.219,2.127-0.656c0.785-0.559,1.66-1.388,2.625-2.49L74.339,69.773z M55.602,65.812
		l-1.629,1.584c-0.77,0.755-1.154,1.237-1.154,1.448c0,0.181,0.136,0.271,0.407,0.271c0.558,0,1.441-0.527,2.648-1.584l0.498-0.317
		h-0.023l0.249-0.249c1.102-0.814,1.811-1.222,2.127-1.222l0.566,0.159l0.271,0.498c0,0.316-0.218,0.648-0.656,0.996l0.871-0.577
		c-0.755,0.533-1.619,1.321-2.591,2.365l-0.588-0.068l-0.656,0.068l1.584-1.562c0.92-0.814,1.38-1.328,1.38-1.539
		c0-0.181-0.083-0.272-0.249-0.272c-0.332,0-1.019,0.438-2.06,1.313l-0.159,0.09l-1.403,1.155c-0.709,0.543-1.335,0.814-1.878,0.814
		l-0.746-0.158c-0.211-0.166-0.317-0.355-0.317-0.565c0-0.061,0.128-0.287,0.385-0.679l-1.539,1.154
		c-0.347,0.166-0.648,0.249-0.905,0.249l-0.747-0.158c-0.211-0.166-0.317-0.355-0.317-0.565l0.407-0.77
		c-0.634,0.271-1.162,0.407-1.584,0.407l-0.566-0.045c-0.799,0.755-1.652,1.131-2.557,1.131c-0.377,0-0.702-0.083-0.974-0.249
		c-0.316-0.211-0.475-0.46-0.475-0.747c0-0.588,0.687-1.184,2.059-1.788c1.026-0.437,1.818-0.656,2.376-0.656
		c0.588,0,0.882,0.188,0.882,0.565c0,0.499-0.407,1.079-1.222,1.743h0.407l1.064-0.271c0.438-0.166,0.762-0.354,0.973-0.566
		l0.09-0.045l1.403-1.358h1.222l-2.444,2.376c-0.211,0.227-0.317,0.445-0.317,0.656c0,0.181,0.129,0.271,0.385,0.271
		c0.679,0,1.78-0.777,3.304-2.331l0.973-0.974H55.602z M44.762,64.681l-0.09-0.271c0-0.377-0.234-0.784-0.702-1.222
		c-1.162,0.498-2.512,0.882-4.05,1.154c-1.629,0.317-3.101,0.475-4.414,0.475h-0.498c-1.101,0.936-1.652,1.795-1.652,2.58
		c0,0.588,0.302,1.049,0.905,1.38c0.588,0.317,1.381,0.476,2.376,0.476c1.931,0,3.659-0.543,5.182-1.63
		c0.936-0.648,1.403-1.274,1.403-1.878c0-0.272-0.174-0.551-0.521-0.837c-0.316-0.15-0.724-0.226-1.222-0.226
		c-0.92,0-1.817,0.264-2.693,0.792c-0.996,0.498-1.493,0.996-1.493,1.494l0.09,0.091l0.09-0.091l0.476-0.09
		c0.332,0,0.498,0.113,0.498,0.339c0,0.272-0.249,0.407-0.747,0.407c-0.438,0-0.656-0.166-0.656-0.498
		c0-0.543,0.498-1.124,1.494-1.743c0.92-0.528,1.9-0.792,2.941-0.792c1.312,0,1.969,0.407,1.969,1.221
		c0,0.875-0.709,1.698-2.127,2.467c-1.373,0.709-2.934,1.063-4.685,1.063c-1.207,0-2.218-0.241-3.032-0.724
		c-0.815-0.377-1.223-0.958-1.223-1.743c0-0.648,0.408-1.365,1.223-2.149c-2.897-0.317-4.345-1.019-4.345-2.105
		c0-0.649,0.543-1.177,1.629-1.584c1.147-0.438,2.49-0.656,4.028-0.656c2.143,0,4.443,0.467,6.902,1.403l1.154-0.091
		c1.358,0,2.037,0.204,2.037,0.611c0,0.256-0.302,0.521-0.905,0.792c0.559,0.499,0.837,0.966,0.837,1.404L44.762,64.681z
		 M41.82,61.875c-1.433,0.287-2.663,0.642-3.688,1.064c-1.162,0.543-2.173,1.124-3.033,1.742c1.735,0,3.32-0.143,4.753-0.43
		c1.629-0.332,2.972-0.716,4.028-1.154C43.592,62.826,42.906,62.418,41.82,61.875z M44.015,63.006
		c0.558-0.21,0.837-0.445,0.837-0.701c0-0.347-0.543-0.521-1.629-0.521l-1.177,0.09C42.891,62.252,43.547,62.629,44.015,63.006z
		 M48.405,66.31c0-0.332-0.249-0.498-0.747-0.498c-0.709,0-1.456,0.355-2.241,1.064c-0.936,0.785-1.403,1.388-1.403,1.811
		c0,0.287,0.218,0.43,0.656,0.43c0.785,0,1.614-0.354,2.489-1.063c-0.227-0.181-0.34-0.324-0.34-0.43
		c0-0.15,0.136-0.369,0.408-0.656c0.332-0.21,0.581-0.316,0.747-0.316c0.061,0,0.144,0.045,0.249,0.136L48.405,66.31z
		 M31.207,61.309c-1.086,0.438-1.63,0.928-1.63,1.471c0,0.921,1.373,1.554,4.119,1.901c1.645-1.433,4.24-2.398,7.785-2.896
		c-1.961-0.709-4.149-1.063-6.563-1.063C33.439,60.721,32.202,60.917,31.207,61.309z"/>
	<path fill-rule="evenodd" clip-rule="evenodd" fill="#FDBD64" d="M0.566,45.106h10.613l0.09,3.124h-0.521
		c-0.151-0.981-0.415-1.607-0.792-1.879c-0.347-0.332-1.064-0.498-2.15-0.498H6.834v9.527c0,0.724,0.105,1.191,0.317,1.403
		c0.226,0.105,0.724,0.219,1.493,0.339v0.317H3.213v-0.317c0.694-0.06,1.184-0.204,1.471-0.43c0.151-0.211,0.226-0.709,0.226-1.494
		v-9.346H3.87c-1.041,0-1.72,0.166-2.037,0.498c-0.347,0.227-0.656,0.853-0.928,1.879H0.521L0.566,45.106z M15.457,47.075v3.734
		h5.657v-3.734c0-0.649-0.105-1.056-0.316-1.222c-0.121-0.151-0.559-0.287-1.313-0.408v-0.339h5.159v0.339
		c-0.754,0.121-1.191,0.257-1.313,0.408c-0.226,0.166-0.339,0.573-0.339,1.222v8.305c0,0.724,0.113,1.161,0.339,1.313
		c0.212,0.226,0.649,0.37,1.313,0.43v0.317h-5.159v-0.317c0.588-0.06,1.056-0.204,1.403-0.43c0.151-0.211,0.226-0.709,0.226-1.494
		v-3.597h-5.657v3.779c0,0.724,0.113,1.161,0.339,1.313c0.15,0.166,0.588,0.309,1.313,0.43v0.317h-5.183v-0.317
		c0.588-0.06,1.056-0.204,1.403-0.43c0.15-0.211,0.227-0.709,0.227-1.494v-8.124c0-0.649-0.106-1.056-0.317-1.222
		c-0.105-0.151-0.543-0.287-1.313-0.408v-0.339h5.183v0.339c-0.785,0.121-1.222,0.257-1.313,0.408
		C15.57,46.019,15.457,46.426,15.457,47.075z M25.323,45.106h9.821l0.091,2.625h-0.476c-0.181-0.754-0.399-1.268-0.656-1.539
		c-0.393-0.287-1.109-0.43-2.15-0.43h-2.557c-0.211,0-0.37,0.061-0.475,0.181l-0.091,0.476v4.209h2.896
		c0.694,0,1.177-0.143,1.449-0.43c0.226-0.091,0.43-0.558,0.611-1.403h0.385v4.299h-0.385c-0.181-0.724-0.385-1.191-0.611-1.403
		c-0.211-0.21-0.694-0.316-1.449-0.316h-2.896v4.571c0,0.407,0.113,0.626,0.339,0.656c0.151,0.061,0.83,0.091,2.037,0.091
		c1.222,0,2.188-0.136,2.896-0.407c0.483-0.227,1.003-0.883,1.562-1.969h0.566l-0.905,3.123H25.323v-0.317
		c0.528-0.06,0.966-0.204,1.313-0.43c0.211-0.211,0.316-0.649,0.316-1.313v-8.305c0-0.588-0.105-0.996-0.316-1.222
		c-0.121-0.151-0.559-0.287-1.313-0.408V45.106z M41.322,45.106h5.183c1.207,0,2.074,0.144,2.602,0.43
		c1.373,0.498,2.06,1.426,2.06,2.784c0,0.936-0.294,1.645-0.883,2.127c-0.558,0.498-1.388,0.831-2.489,0.996l3.893,4.774
		l0.724,0.656l0.904,0.249v0.317h-3.032L45.6,51.691l-0.838,0.091v3.598c0,0.664,0.113,1.101,0.34,1.313
		c0.332,0.226,0.799,0.37,1.403,0.43v0.317h-5.183v-0.317c0.648-0.06,1.079-0.204,1.29-0.43c0.181-0.211,0.272-0.709,0.272-1.494
		v-8.124c0-0.649-0.091-1.056-0.272-1.222c-0.151-0.151-0.581-0.287-1.29-0.408V45.106z M45.011,45.943
		c-0.166,0.106-0.249,0.264-0.249,0.476v4.617c1.267,0,2.233-0.136,2.897-0.408c0.965-0.377,1.448-1.146,1.448-2.308
		c0-1.086-0.438-1.826-1.313-2.218c-0.528-0.226-1.146-0.339-1.855-0.339C45.441,45.763,45.131,45.823,45.011,45.943z
		 M56.212,51.284c0,1.855,0.377,3.304,1.131,4.345c0.83,0.936,1.789,1.403,2.875,1.403c1.102,0,2.029-0.468,2.784-1.403
		c0.77-0.814,1.154-2.263,1.154-4.345c0-2.036-0.385-3.515-1.154-4.436c-0.815-0.875-1.743-1.313-2.784-1.313
		c-1.086,0-2.044,0.46-2.875,1.38C56.59,47.852,56.212,49.308,56.212,51.284z M55.941,46.509c1.086-1.086,2.512-1.63,4.277-1.63
		c1.69,0,3.085,0.544,4.187,1.63c1.267,1.147,1.901,2.739,1.901,4.775c0,2.021-0.657,3.636-1.969,4.843
		c-1.116,1.041-2.489,1.562-4.119,1.562c-1.765,0-3.214-0.596-4.345-1.788c-1.207-1.162-1.811-2.701-1.811-4.616
		C54.063,49.248,54.688,47.656,55.941,46.509z M68.591,46.034c-0.377-0.392-0.785-0.589-1.222-0.589v-0.339h5.25v0.339l-0.996,0.091
		c-0.211,0.061-0.316,0.227-0.316,0.498l0.09,0.316l0.226,0.498l2.716,4.006l2.896-4.504l0.045-0.249
		c0-0.271-0.159-0.46-0.475-0.566l-0.837-0.091v-0.339h4.028v0.339c-0.211,0-0.536,0.105-0.973,0.317
		c-0.543,0.438-1.063,1.041-1.562,1.81l-2.715,4.209v3.598c0,0.724,0.113,1.191,0.339,1.403c0.211,0.166,0.725,0.279,1.539,0.339
		v0.317h-5.658v-0.317c0.936-0.121,1.456-0.264,1.562-0.43c0.211-0.211,0.317-0.709,0.317-1.494v-3.258l-2.444-3.531
		C69.526,47.083,68.923,46.291,68.591,46.034z M82.373,52.665h4.3l-2.15-5.183L82.373,52.665z M85.179,44.879l4.684,10.591
		c0.271,0.724,0.521,1.162,0.747,1.313c0.12,0.105,0.422,0.219,0.905,0.339v0.317h-4.752v-0.317l1.041-0.249
		c0.181,0,0.271-0.166,0.271-0.498L87.985,55.9l-0.995-2.489h-4.934l-0.815,2.217c-0.121,0.181-0.181,0.4-0.181,0.657
		c0,0.271,0.113,0.49,0.339,0.656l0.928,0.181v0.317h-3.689v-0.317c0.528-0.121,0.875-0.309,1.041-0.566
		c0.271-0.407,0.687-1.267,1.245-2.579l3.938-9.098H85.179z M97.263,45.445c-0.648,0-1.093,0.105-1.335,0.317
		c-0.256,0.181-0.385,0.596-0.385,1.245v8.938l0.159,0.521c0,0.09,0.136,0.136,0.407,0.136l0.498,0.091h0.814
		c1.584,0,2.708-0.136,3.372-0.407c0.558-0.227,1.131-0.913,1.719-2.06h0.407l-0.882,3.213H91.991v-0.317
		c0.603-0.06,1.071-0.204,1.403-0.43c0.166-0.151,0.249-0.589,0.249-1.313v-8.305c0-0.649-0.083-1.056-0.249-1.222
		c-0.151-0.151-0.619-0.287-1.403-0.408v-0.339h5.272V45.445z M107.379,45.106h9.934l0.068,2.625h-0.566
		c-0.105-0.875-0.324-1.388-0.657-1.539c-0.437-0.287-1.154-0.43-2.149-0.43h-2.534c-0.211,0-0.377,0.061-0.498,0.181l-0.091,0.476
		v4.209h2.715c0.77,0,1.29-0.143,1.562-0.43c0.166-0.151,0.324-0.619,0.476-1.403h0.43v4.299h-0.43
		c-0.152-0.724-0.34-1.191-0.566-1.403c-0.151-0.21-0.642-0.316-1.471-0.316h-2.715v4.005c0,0.724,0.121,1.161,0.362,1.313
		c0.211,0.226,0.663,0.37,1.357,0.43v0.317h-5.227v-0.317c0.753-0.06,1.214-0.204,1.38-0.43c0.166-0.211,0.249-0.709,0.249-1.494
		v-8.124c0-0.649-0.113-1.056-0.339-1.222c-0.105-0.151-0.536-0.287-1.29-0.408V45.106z M119.938,46.509
		c1.086-1.086,2.505-1.63,4.254-1.63c1.704,0,3.107,0.544,4.209,1.63c1.252,1.086,1.878,2.678,1.878,4.775
		c0,1.961-0.626,3.575-1.878,4.843c-1.102,1.041-2.505,1.562-4.209,1.562c-1.75,0-3.198-0.596-4.345-1.788
		c-1.147-1.162-1.72-2.701-1.72-4.616C118.128,49.248,118.731,47.656,119.938,46.509z M124.193,45.536
		c-1.086,0-2.037,0.46-2.852,1.38c-0.784,0.936-1.176,2.392-1.176,4.368c0,1.855,0.392,3.304,1.176,4.345
		c0.815,0.936,1.766,1.403,2.852,1.403s2.021-0.468,2.806-1.403c0.77-0.814,1.154-2.263,1.154-4.345
		c0-2.127-0.384-3.606-1.154-4.436C126.184,45.974,125.249,45.536,124.193,45.536z M135.53,46.102l0.158,0.588l2.241,3.191
		l2.716-3.462l0.067-0.317c0-0.271-0.135-0.46-0.407-0.566l-0.882-0.091v-0.339h4.391v0.339c-0.468,0-0.845,0.083-1.132,0.249
		c-0.558,0.332-1.079,0.853-1.562,1.562l-2.716,3.372l3.53,5.092c0.287,0.498,0.588,0.852,0.905,1.063l1.154,0.339v0.317h-5.499
		v-0.317l1.063-0.181c0.227-0.045,0.339-0.204,0.339-0.476c0-0.287-0.143-0.596-0.43-0.928c-0.316-0.604-1.079-1.75-2.286-3.439
		l-2.806,3.621l-0.317,0.656c0,0.332,0.166,0.521,0.498,0.566l0.905,0.181v0.317h-4.277v-0.317c0.499-0.06,0.875-0.204,1.131-0.43
		l4.39-5.318l-1.991-2.965c-0.814-1.206-1.44-2.029-1.878-2.466c-0.377-0.332-0.875-0.498-1.494-0.498v-0.339h5.68v0.339
		l-1.063,0.091C135.674,45.642,135.53,45.831,135.53,46.102z"/>
</g>
</svg>
