<?xml version="1.0" standalone="no"?>
<!DOCTYPE svg PUBLIC "-//W3C//DTD SVG 20010904//EN"
 "http://www.w3.org/TR/2001/REC-SVG-20010904/DTD/svg10.dtd">
<svg version="1.0" xmlns="http://www.w3.org/2000/svg"
 width="121.000000pt" height="121.000000pt" viewBox="0 0 121.000000 121.000000"
 preserveAspectRatio="xMidYMid meet">
<metadata>
Created by potrace 1.11, written by Peter Selinger 2001-2013
</metadata>
<g transform="translate(0.000000,121.000000) scale(0.100000,-0.100000)"
fill="#000000" stroke="none">
<path d="M502 1093 c-92 -32 -179 -149 -185 -245 -3 -40 -5 -42 -37 -45 -126
-14 -231 -97 -261 -205 -30 -112 -4 -209 81 -300 l58 -63 51 50 c28 27 51 53
51 57 0 4 -18 26 -40 47 -22 21 -46 54 -54 72 -28 70 5 147 77 179 64 29 121
12 187 -55 19 -19 37 -35 40 -35 3 0 28 22 54 49 l49 50 -50 55 c-55 60 -69
100 -53 155 17 61 71 101 134 101 51 0 86 -17 129 -61 21 -21 41 -39 45 -39 4
0 30 23 57 50 l50 50 -55 52 c-75 69 -132 95 -217 96 -39 0 -87 -6 -111 -15z"/>
<path d="M558 566 c-197 -195 -358 -358 -358 -363 0 -5 22 -30 48 -56 l48 -47
300 296 c164 162 305 300 312 306 9 8 27 -5 72 -51 33 -33 65 -73 70 -87 24
-62 4 -125 -55 -170 -31 -23 -42 -26 -91 -22 -50 4 -60 9 -107 55 l-52 51 -47
-47 c-27 -26 -48 -52 -48 -58 0 -21 119 -121 162 -135 149 -50 297 11 370 152
18 36 23 61 22 120 0 111 -21 148 -162 290 -65 66 -121 120 -123 120 -2 0
-165 -160 -361 -354z"/>
</g>
</svg>
